<?xml version="1.0" encoding="UTF-8" standalone="no"?>
<!DOCTYPE svg PUBLIC "-//W3C//DTD SVG 1.1//EN"
 "http://www.w3.org/Graphics/SVG/1.1/DTD/svg11.dtd">
<!-- Generated by graphviz version 2.43.0 (0)
 -->
<!-- Title: models.progress_record.CardioRecord Pages: 1 -->
<svg width="185pt" height="159pt"
 viewBox="0.00 0.00 185.00 159.00" xmlns="http://www.w3.org/2000/svg" xmlns:xlink="http://www.w3.org/1999/xlink">
<g id="graph0" class="graph" transform="scale(1 1) rotate(0) translate(4 155)">
<title>models.progress_record.CardioRecord</title>
<!-- Node1 -->
<g id="Node000001" class="node">
<title>Node1</title>
<g id="a_Node000001"><a xlink:title="Modelo para Registos de Exercício Cardiovascular, herdando de RegistroProgresso.">
<polygon fill="#999999" stroke="#666666" points="172.5,-30 4.5,-30 4.5,0 172.5,0 172.5,-30"/>
<text text-anchor="start" x="12.5" y="-18" font-family="Helvetica,sans-Serif" font-size="10.00">models.progress_record.Cardio</text>
<text text-anchor="middle" x="88.5" y="-7" font-family="Helvetica,sans-Serif" font-size="10.00">Record</text>
</a>
</g>
</g>
<!-- Node2 -->
<g id="Node000002" class="node">
<title>Node2</title>
<g id="a_Node000002"><a xlink:href="classmodels_1_1progress__record_1_1RegistroProgresso.html" target="_top" xlink:title="Modelo base para todos os tipos de registos de progresso.">
<polygon fill="white" stroke="#666666" points="177,-96 0,-96 0,-66 177,-66 177,-96"/>
<text text-anchor="start" x="8" y="-84" font-family="Helvetica,sans-Serif" font-size="10.00">models.progress_record.Registro</text>
<text text-anchor="middle" x="88.5" y="-73" font-family="Helvetica,sans-Serif" font-size="10.00">Progresso</text>
</a>
</g>
</g>
<!-- Node2&#45;&gt;Node1 -->
<g id="edge1_Node000001_Node000002" class="edge">
<title>Node2&#45;&gt;Node1</title>
<g id="a_edge1_Node000001_Node000002"><a xlink:title=" ">
<path fill="none" stroke="#63b8ff" d="M88.5,-55.54C88.5,-46.96 88.5,-37.61 88.5,-30.16"/>
<polygon fill="#63b8ff" stroke="#63b8ff" points="85,-55.8 88.5,-65.8 92,-55.8 85,-55.8"/>
</a>
</g>
</g>
<!-- Node3 -->
<g id="Node000003" class="node">
<title>Node3</title>
<g id="a_Node000003"><a xlink:title=" ">
<polygon fill="white" stroke="#bfbfbf" points="109,-151 68,-151 68,-132 109,-132 109,-151"/>
<text text-anchor="middle" x="88.5" y="-139" font-family="Helvetica,sans-Serif" font-size="10.00">Base</text>
</a>
</g>
</g>
<!-- Node3&#45;&gt;Node2 -->
<g id="edge2_Node000002_Node000003" class="edge">
<title>Node3&#45;&gt;Node2</title>
<g id="a_edge2_Node000002_Node000003"><a xlink:title=" ">
<path fill="none" stroke="#63b8ff" d="M88.5,-121.65C88.5,-113.36 88.5,-103.78 88.5,-96.11"/>
<polygon fill="#63b8ff" stroke="#63b8ff" points="85,-121.87 88.5,-131.87 92,-121.87 85,-121.87"/>
</a>
</g>
</g>
</g>
</svg>
