<?xml version="1.0" encoding="UTF-8" standalone="no"?>
<!DOCTYPE svg PUBLIC "-//W3C//DTD SVG 1.1//EN"
 "http://www.w3.org/Graphics/SVG/1.1/DTD/svg11.dtd">
<!-- Generated by graphviz version 2.43.0 (0)
 -->
<!-- Title: schemas.progress_record.RegistroProgressoBase Pages: 1 -->
<svg width="157pt" height="104pt"
 viewBox="0.00 0.00 156.50 104.00" xmlns="http://www.w3.org/2000/svg" xmlns:xlink="http://www.w3.org/1999/xlink">
<g id="graph0" class="graph" transform="scale(1 1) rotate(0) translate(4 100)">
<title>schemas.progress_record.RegistroProgressoBase</title>
<!-- Node1 -->
<g id="Node000001" class="node">
<title>Node1</title>
<g id="a_Node000001"><a xlink:title="Schema base de referência para todos os registos de progresso.">
<polygon fill="#999999" stroke="#666666" points="148.5,-30 4.5,-30 4.5,0 148.5,0 148.5,-30"/>
<text text-anchor="start" x="12.5" y="-18" font-family="Helvetica,sans-Serif" font-size="10.00">schemas.progress_record.</text>
<text text-anchor="middle" x="76.5" y="-7" font-family="Helvetica,sans-Serif" font-size="10.00">RegistroProgressoBase</text>
</a>
</g>
</g>
<!-- Node2 -->
<g id="Node000002" class="node">
<title>Node2</title>
<g id="a_Node000002"><a xlink:title=" ">
<polygon fill="white" stroke="#bfbfbf" points="71,-96 0,-96 0,-77 71,-77 71,-96"/>
<text text-anchor="middle" x="35.5" y="-84" font-family="Helvetica,sans-Serif" font-size="10.00">BaseModel</text>
</a>
</g>
</g>
<!-- Node2&#45;&gt;Node1 -->
<g id="edge1_Node000001_Node000002" class="edge">
<title>Node2&#45;&gt;Node1</title>
<g id="a_edge1_Node000001_Node000002"><a xlink:title=" ">
<path fill="none" stroke="#63b8ff" d="M45.74,-68.14C52.66,-56.41 61.68,-41.12 68.16,-30.14"/>
<polygon fill="#63b8ff" stroke="#63b8ff" points="42.59,-66.59 40.53,-76.98 48.62,-70.14 42.59,-66.59"/>
</a>
</g>
</g>
<!-- Node3 -->
<g id="Node000003" class="node">
<title>Node3</title>
<g id="a_Node000003"><a xlink:title=" ">
<polygon fill="white" stroke="#bfbfbf" points="147.5,-96 89.5,-96 89.5,-77 147.5,-77 147.5,-96"/>
<text text-anchor="middle" x="118.5" y="-84" font-family="Helvetica,sans-Serif" font-size="10.00">Optional</text>
</a>
</g>
</g>
<!-- Node3&#45;&gt;Node1 -->
<g id="edge2_Node000001_Node000003" class="edge">
<title>Node3&#45;&gt;Node1</title>
<g id="a_edge2_Node000001_Node000003"><a xlink:title=" ">
<path fill="none" stroke="#9a32cd" stroke-dasharray="5,2" d="M108.01,-68.14C100.92,-56.41 91.68,-41.12 85.04,-30.14"/>
<polygon fill="#9a32cd" stroke="#9a32cd" points="105.18,-70.23 113.35,-76.98 111.17,-66.61 105.18,-70.23"/>
</a>
</g>
<text text-anchor="middle" x="113" y="-51" font-family="Helvetica,sans-Serif" font-size="10.00" fill="grey"> data</text>
</g>
</g>
</svg>
