<?xml version="1.0" encoding="UTF-8" standalone="no"?>
<!DOCTYPE svg PUBLIC "-//W3C//DTD SVG 1.1//EN"
 "http://www.w3.org/Graphics/SVG/1.1/DTD/svg11.dtd">
<!-- Generated by graphviz version 2.43.0 (0)
 -->
<!-- Title: schemas.progress_record.OcrResponse Pages: 1 -->
<svg width="178pt" height="104pt"
 viewBox="0.00 0.00 178.00 104.00" xmlns="http://www.w3.org/2000/svg" xmlns:xlink="http://www.w3.org/1999/xlink">
<g id="graph0" class="graph" transform="scale(1 1) rotate(0) translate(4 100)">
<title>schemas.progress_record.OcrResponse</title>
<!-- Node1 -->
<g id="Node000001" class="node">
<title>Node1</title>
<g id="a_Node000001"><a xlink:title="Schema para a resposta da extração de dados por OCR.">
<polygon fill="#999999" stroke="#666666" points="144,-30 0,-30 0,0 144,0 144,-30"/>
<text text-anchor="start" x="8" y="-18" font-family="Helvetica,sans-Serif" font-size="10.00">schemas.progress_record.</text>
<text text-anchor="middle" x="72" y="-7" font-family="Helvetica,sans-Serif" font-size="10.00">OcrResponse</text>
</a>
</g>
</g>
<!-- Node2 -->
<g id="Node000002" class="node">
<title>Node2</title>
<g id="a_Node000002"><a xlink:title=" ">
<polygon fill="white" stroke="#bfbfbf" points="71.5,-96 0.5,-96 0.5,-77 71.5,-77 71.5,-96"/>
<text text-anchor="middle" x="36" y="-84" font-family="Helvetica,sans-Serif" font-size="10.00">BaseModel</text>
</a>
</g>
</g>
<!-- Node2&#45;&gt;Node1 -->
<g id="edge1_Node000001_Node000002" class="edge">
<title>Node2&#45;&gt;Node1</title>
<g id="a_edge1_Node000001_Node000002"><a xlink:title=" ">
<path fill="none" stroke="#63b8ff" d="M45.18,-67.78C51.23,-56.1 59.04,-41.01 64.68,-30.14"/>
<polygon fill="#63b8ff" stroke="#63b8ff" points="41.91,-66.49 40.41,-76.98 48.12,-69.71 41.91,-66.49"/>
</a>
</g>
</g>
<!-- Node3 -->
<g id="Node000003" class="node">
<title>Node3</title>
<g id="a_Node000003"><a xlink:title=" ">
<polygon fill="white" stroke="#bfbfbf" points="126,-96 90,-96 90,-77 126,-77 126,-96"/>
<text text-anchor="middle" x="108" y="-84" font-family="Helvetica,sans-Serif" font-size="10.00">Dict</text>
</a>
</g>
</g>
<!-- Node3&#45;&gt;Node1 -->
<g id="edge2_Node000001_Node000003" class="edge">
<title>Node3&#45;&gt;Node1</title>
<g id="a_edge2_Node000001_Node000003"><a xlink:title=" ">
<path fill="none" stroke="#9a32cd" stroke-dasharray="5,2" d="M98.82,-67.78C92.77,-56.1 84.96,-41.01 79.32,-30.14"/>
<polygon fill="#9a32cd" stroke="#9a32cd" points="95.88,-69.71 103.59,-76.98 102.09,-66.49 95.88,-69.71"/>
</a>
</g>
<text text-anchor="middle" x="131.5" y="-51" font-family="Helvetica,sans-Serif" font-size="10.00" fill="grey"> extracted_data</text>
</g>
</g>
</svg>
