<?xml version="1.0" encoding="UTF-8" standalone="no"?>
<!DOCTYPE svg PUBLIC "-//W3C//DTD SVG 1.1//EN"
 "http://www.w3.org/Graphics/SVG/1.1/DTD/svg11.dtd">
<!-- Generated by graphviz version 2.43.0 (0)
 -->
<!-- Title: schemas.user.UserUpdate Pages: 1 -->
<svg width="278pt" height="193pt"
 viewBox="0.00 0.00 277.50 193.00" xmlns="http://www.w3.org/2000/svg" xmlns:xlink="http://www.w3.org/1999/xlink">

<svg id="main" version="1.1" xmlns="http://www.w3.org/2000/svg" xmlns:xlink="http://www.w3.org/1999/xlink" xml:space="preserve" onload="init(evt)">
<style type="text/css"><![CDATA[
.node, .edge {opacity: 0.7;}
.node.selected, .edge.selected {opacity: 1;}
.edge:hover path { stroke: red; }
.edge:hover polygon { stroke: red; fill: red; }
]]></style>
<script type="application/ecmascript" xlink:href="svg.min.js"/>
<svg id="graph" class="graph">
<g id="graph0" class="graph" transform="scale(1 1) rotate(0) translate(4 189)">
<title>schemas.user.UserUpdate</title>
<!-- Node1 -->
<g id="Node000001" class="node">
<title>Node1</title>
<g id="a_Node000001"><a xlink:title="Schema para validar os dados ao atualizar um utilizador existente.">
<polygon fill="#999999" stroke="#666666" points="190.5,-19 46.5,-19 46.5,0 190.5,0 190.5,-19"/>
<text text-anchor="middle" x="118.5" y="-7" font-family="Helvetica,sans-Serif" font-size="10.00">schemas.user.UserUpdate</text>
</a>
</g>
</g>
<!-- Node2 -->
<g id="Node000002" class="node">
<title>Node2</title>
<g id="a_Node000002"><a xlink:href="classschemas_1_1user_1_1UserBase.html" target="_top" xlink:title="Schema base que define os campos comuns e editáveis de um utilizador.">
<polygon fill="white" stroke="#666666" points="185,-75 52,-75 52,-56 185,-56 185,-75"/>
<text text-anchor="middle" x="118.5" y="-63" font-family="Helvetica,sans-Serif" font-size="10.00">schemas.user.UserBase</text>
</a>
</g>
</g>
<!-- Node2&#45;&gt;Node1 -->
<g id="edge1_Node000001_Node000002" class="edge">
<title>Node2&#45;&gt;Node1</title>
<g id="a_edge1_Node000001_Node000002"><a xlink:title=" ">
<path fill="none" stroke="#63b8ff" d="M118.5,-45.3C118.5,-36.41 118.5,-26.28 118.5,-19.25"/>
<polygon fill="#63b8ff" stroke="#63b8ff" points="115,-45.58 118.5,-55.58 122,-45.58 115,-45.58"/>
</a>
</g>
</g>
<!-- Node3 -->
<g id="Node000003" class="node">
<title>Node3</title>
<g id="a_Node000003"><a xlink:title=" ">
<polygon fill="white" stroke="#bfbfbf" points="71,-185 0,-185 0,-166 71,-166 71,-185"/>
<text text-anchor="middle" x="35.5" y="-173" font-family="Helvetica,sans-Serif" font-size="10.00">BaseModel</text>
</a>
</g>
</g>
<!-- Node3&#45;&gt;Node2 -->
<g id="edge2_Node000002_Node000003" class="edge">
<title>Node3&#45;&gt;Node2</title>
<g id="a_edge2_Node000002_Node000003"><a xlink:title=" ">
<path fill="none" stroke="#63b8ff" d="M48.42,-157.69C66.34,-134.37 98.1,-93.05 111.85,-75.16"/>
<polygon fill="#63b8ff" stroke="#63b8ff" points="45.61,-155.6 42.29,-165.66 51.16,-159.87 45.61,-155.6"/>
</a>
</g>
</g>
<!-- Node4 -->
<g id="Node000004" class="node">
<title>Node4</title>
<g id="a_Node000004"><a xlink:title=" ">
<polygon fill="white" stroke="#bfbfbf" points="147.5,-185 89.5,-185 89.5,-166 147.5,-166 147.5,-185"/>
<text text-anchor="middle" x="118.5" y="-173" font-family="Helvetica,sans-Serif" font-size="10.00">EmailStr</text>
</a>
</g>
</g>
<!-- Node4&#45;&gt;Node2 -->
<g id="edge3_Node000002_Node000004" class="edge">
<title>Node4&#45;&gt;Node2</title>
<g id="a_edge3_Node000002_Node000004"><a xlink:title=" ">
<path fill="none" stroke="#9a32cd" stroke-dasharray="5,2" d="M118.5,-155.48C118.5,-131.84 118.5,-92.5 118.5,-75.16"/>
<polygon fill="#9a32cd" stroke="#9a32cd" points="115,-155.66 118.5,-165.66 122,-155.66 115,-155.66"/>
</a>
</g>
<text text-anchor="middle" x="134" y="-118" font-family="Helvetica,sans-Serif" font-size="10.00" fill="grey"> email</text>
</g>
<!-- Node5 -->
<g id="Node000005" class="node">
<title>Node5</title>
<g id="a_Node000005"><a xlink:title=" ">
<polygon fill="white" stroke="#bfbfbf" points="223.5,-185 165.5,-185 165.5,-166 223.5,-166 223.5,-185"/>
<text text-anchor="middle" x="194.5" y="-173" font-family="Helvetica,sans-Serif" font-size="10.00">Optional</text>
</a>
</g>
</g>
<!-- Node5&#45;&gt;Node2 -->
<g id="edge4_Node000002_Node000005" class="edge">
<title>Node5&#45;&gt;Node2</title>
<g id="a_edge4_Node000002_Node000005"><a xlink:title=" ">
<path fill="none" stroke="#9a32cd" stroke-dasharray="5,2" d="M188.14,-156.33C181.4,-138.83 169.53,-112.25 153.5,-93 147.65,-85.97 139.59,-79.71 132.68,-75.04"/>
<polygon fill="#9a32cd" stroke="#9a32cd" points="184.92,-157.72 191.66,-165.9 191.49,-155.31 184.92,-157.72"/>
</a>
</g>
<text text-anchor="middle" x="227" y="-140" font-family="Helvetica,sans-Serif" font-size="10.00" fill="grey"> altura_cm</text>
<text text-anchor="middle" x="227" y="-129" font-family="Helvetica,sans-Serif" font-size="10.00" fill="grey">data_nascimento</text>
<text text-anchor="middle" x="227" y="-118" font-family="Helvetica,sans-Serif" font-size="10.00" fill="grey">nome</text>
<text text-anchor="middle" x="227" y="-107" font-family="Helvetica,sans-Serif" font-size="10.00" fill="grey">peso_kg</text>
<text text-anchor="middle" x="227" y="-96" font-family="Helvetica,sans-Serif" font-size="10.00" fill="grey">sexo</text>
</g>
</g>
</svg>
</svg>

<style type='text/css'>
<![CDATA[
[data-mouse-over-selected='false'] { opacity: 0.7; }
[data-mouse-over-selected='true']  { opacity: 1.0; }
]]>
</style>
<script type="application/ecmascript"><![CDATA[
document.addEventListener('DOMContentLoaded', (event) => {
  highlightEdges();
  highlightAdjacentNodes();
});
]]></script>
</svg>
