<?xml version="1.0" encoding="UTF-8" standalone="no"?>
<!DOCTYPE svg PUBLIC "-//W3C//DTD SVG 1.1//EN"
 "http://www.w3.org/Graphics/SVG/1.1/DTD/svg11.dtd">
<!-- Generated by graphviz version 2.43.0 (0)
 -->
<!-- Title: schemas.exercise_session.SessaoDeTreinoCreate Pages: 1 -->
<svg width="238pt" height="171pt"
 viewBox="0.00 0.00 238.00 171.00" xmlns="http://www.w3.org/2000/svg" xmlns:xlink="http://www.w3.org/1999/xlink">
<g id="graph0" class="graph" transform="scale(1 1) rotate(0) translate(4 167)">
<title>schemas.exercise_session.SessaoDeTreinoCreate</title>
<!-- Node1 -->
<g id="Node000001" class="node">
<title>Node1</title>
<g id="a_Node000001"><a xlink:title="Schema para validar os dados ao criar uma nova sessão de treino.">
<polygon fill="#999999" stroke="#666666" points="230,-30 81,-30 81,0 230,0 230,-30"/>
<text text-anchor="start" x="89" y="-18" font-family="Helvetica,sans-Serif" font-size="10.00">schemas.exercise_session.</text>
<text text-anchor="middle" x="155.5" y="-7" font-family="Helvetica,sans-Serif" font-size="10.00">SessaoDeTreinoCreate</text>
</a>
</g>
</g>
<!-- Node2 -->
<g id="Node000002" class="node">
<title>Node2</title>
<g id="a_Node000002"><a xlink:href="classschemas_1_1exercise__session_1_1SessaoDeTreinoBase.html" target="_top" xlink:title="Schema base para uma sessão de treino, serve como base para outros schemas.">
<polygon fill="white" stroke="#666666" points="149,-107 0,-107 0,-77 149,-77 149,-107"/>
<text text-anchor="start" x="8" y="-95" font-family="Helvetica,sans-Serif" font-size="10.00">schemas.exercise_session.</text>
<text text-anchor="middle" x="74.5" y="-84" font-family="Helvetica,sans-Serif" font-size="10.00">SessaoDeTreinoBase</text>
</a>
</g>
</g>
<!-- Node2&#45;&gt;Node1 -->
<g id="edge1_Node000001_Node000002" class="edge">
<title>Node2&#45;&gt;Node1</title>
<g id="a_edge1_Node000001_Node000002"><a xlink:title=" ">
<path fill="none" stroke="#63b8ff" d="M97.38,-69.82C111.13,-57.08 128.25,-41.24 140.33,-30.04"/>
<polygon fill="#63b8ff" stroke="#63b8ff" points="94.7,-67.53 89.74,-76.89 99.45,-72.67 94.7,-67.53"/>
</a>
</g>
</g>
<!-- Node3 -->
<g id="Node000003" class="node">
<title>Node3</title>
<g id="a_Node000003"><a xlink:title=" ">
<polygon fill="white" stroke="#bfbfbf" points="110,-163 39,-163 39,-144 110,-144 110,-163"/>
<text text-anchor="middle" x="74.5" y="-151" font-family="Helvetica,sans-Serif" font-size="10.00">BaseModel</text>
</a>
</g>
</g>
<!-- Node3&#45;&gt;Node2 -->
<g id="edge2_Node000002_Node000003" class="edge">
<title>Node3&#45;&gt;Node2</title>
<g id="a_edge2_Node000002_Node000003"><a xlink:title=" ">
<path fill="none" stroke="#63b8ff" d="M74.5,-133.73C74.5,-125.09 74.5,-115 74.5,-107.02"/>
<polygon fill="#63b8ff" stroke="#63b8ff" points="71,-133.98 74.5,-143.98 78,-133.98 71,-133.98"/>
</a>
</g>
</g>
<!-- Node4 -->
<g id="Node000004" class="node">
<title>Node4</title>
<g id="a_Node000004"><a xlink:title=" ">
<polygon fill="white" stroke="#bfbfbf" points="200.5,-101.5 166.5,-101.5 166.5,-82.5 200.5,-82.5 200.5,-101.5"/>
<text text-anchor="middle" x="183.5" y="-89.5" font-family="Helvetica,sans-Serif" font-size="10.00">List</text>
</a>
</g>
</g>
<!-- Node4&#45;&gt;Node1 -->
<g id="edge3_Node000001_Node000004" class="edge">
<title>Node4&#45;&gt;Node1</title>
<g id="a_edge3_Node000001_Node000004"><a xlink:title=" ">
<path fill="none" stroke="#9a32cd" stroke-dasharray="5,2" d="M176.77,-72.99C171.86,-59.83 165.3,-42.25 160.77,-30.11"/>
<polygon fill="#9a32cd" stroke="#9a32cd" points="173.51,-74.25 180.29,-82.4 180.07,-71.8 173.51,-74.25"/>
</a>
</g>
<text text-anchor="middle" x="184.5" y="-51" font-family="Helvetica,sans-Serif" font-size="10.00" fill="grey"> itens</text>
</g>
</g>
</svg>
