<?xml version="1.0" encoding="UTF-8" standalone="no"?>
<!DOCTYPE svg PUBLIC "-//W3C//DTD SVG 1.1//EN"
 "http://www.w3.org/Graphics/SVG/1.1/DTD/svg11.dtd">
<!-- Generated by graphviz version 2.43.0 (0)
 -->
<!-- Title: schemas.progress_record.CardioRecord Pages: 1 -->
<svg width="292pt" height="214pt"
 viewBox="0.00 0.00 292.00 214.00" xmlns="http://www.w3.org/2000/svg" xmlns:xlink="http://www.w3.org/1999/xlink">

<svg id="main" version="1.1" xmlns="http://www.w3.org/2000/svg" xmlns:xlink="http://www.w3.org/1999/xlink" xml:space="preserve" onload="init(evt)">
<style type="text/css"><![CDATA[
.node, .edge {opacity: 0.7;}
.node.selected, .edge.selected {opacity: 1;}
.edge:hover path { stroke: red; }
.edge:hover polygon { stroke: red; fill: red; }
]]></style>
<script type="application/ecmascript" xlink:href="svg.min.js"/>
<svg id="graph" class="graph">
<g id="graph0" class="graph" transform="scale(1 1) rotate(0) translate(4 210)">
<title>schemas.progress_record.CardioRecord</title>
<!-- Node1 -->
<g id="Node000001" class="node">
<title>Node1</title>
<g id="a_Node000001"><a xlink:title="Schema para representar um registo de cardio lido da base de dados.">
<polygon fill="#999999" stroke="#666666" points="257.5,-30 113.5,-30 113.5,0 257.5,0 257.5,-30"/>
<text text-anchor="start" x="121.5" y="-18" font-family="Helvetica,sans-Serif" font-size="10.00">schemas.progress_record.</text>
<text text-anchor="middle" x="185.5" y="-7" font-family="Helvetica,sans-Serif" font-size="10.00">CardioRecord</text>
</a>
</g>
</g>
<!-- Node2 -->
<g id="Node000002" class="node">
<title>Node2</title>
<g id="a_Node000002"><a xlink:href="classschemas_1_1progress__record_1_1CardioRecordBase.html" target="_top" xlink:title="Schema base para um registo de exercício cardiovascular.">
<polygon fill="white" stroke="#666666" points="148.5,-118 4.5,-118 4.5,-88 148.5,-88 148.5,-118"/>
<text text-anchor="start" x="12.5" y="-106" font-family="Helvetica,sans-Serif" font-size="10.00">schemas.progress_record.</text>
<text text-anchor="middle" x="76.5" y="-95" font-family="Helvetica,sans-Serif" font-size="10.00">CardioRecordBase</text>
</a>
</g>
</g>
<!-- Node2&#45;&gt;Node1 -->
<g id="edge1_Node000001_Node000002" class="edge">
<title>Node2&#45;&gt;Node1</title>
<g id="a_edge1_Node000001_Node000002"><a xlink:title=" ">
<path fill="none" stroke="#63b8ff" d="M102.6,-81.4C122.64,-65.59 149.79,-44.17 167.47,-30.22"/>
<polygon fill="#63b8ff" stroke="#63b8ff" points="100.18,-78.86 94.5,-87.8 104.52,-84.35 100.18,-78.86"/>
</a>
</g>
</g>
<!-- Node3 -->
<g id="Node000003" class="node">
<title>Node3</title>
<g id="a_Node000003"><a xlink:title=" ">
<polygon fill="white" stroke="#bfbfbf" points="71,-206 0,-206 0,-187 71,-187 71,-206"/>
<text text-anchor="middle" x="35.5" y="-194" font-family="Helvetica,sans-Serif" font-size="10.00">BaseModel</text>
</a>
</g>
</g>
<!-- Node3&#45;&gt;Node2 -->
<g id="edge2_Node000002_Node000003" class="edge">
<title>Node3&#45;&gt;Node2</title>
<g id="a_edge2_Node000002_Node000003"><a xlink:title=" ">
<path fill="none" stroke="#63b8ff" d="M43.72,-177.16C51.49,-159.8 63.01,-134.11 70.12,-118.25"/>
<polygon fill="#63b8ff" stroke="#63b8ff" points="40.33,-176.17 39.43,-186.73 46.71,-179.03 40.33,-176.17"/>
</a>
</g>
</g>
<!-- Node4 -->
<g id="Node000004" class="node">
<title>Node4</title>
<g id="a_Node000004"><a xlink:title=" ">
<polygon fill="white" stroke="#bfbfbf" points="147.5,-206 89.5,-206 89.5,-187 147.5,-187 147.5,-206"/>
<text text-anchor="middle" x="118.5" y="-194" font-family="Helvetica,sans-Serif" font-size="10.00">Optional</text>
</a>
</g>
</g>
<!-- Node4&#45;&gt;Node2 -->
<g id="edge3_Node000002_Node000004" class="edge">
<title>Node4&#45;&gt;Node2</title>
<g id="a_edge3_Node000002_Node000004"><a xlink:title=" ">
<path fill="none" stroke="#9a32cd" stroke-dasharray="5,2" d="M110.08,-177.16C102.12,-159.8 90.32,-134.11 83.04,-118.25"/>
<polygon fill="#9a32cd" stroke="#9a32cd" points="107.12,-179.1 114.47,-186.73 113.48,-176.18 107.12,-179.1"/>
</a>
</g>
<text text-anchor="middle" x="151" y="-161" font-family="Helvetica,sans-Serif" font-size="10.00" fill="grey"> calorias</text>
<text text-anchor="middle" x="151" y="-150" font-family="Helvetica,sans-Serif" font-size="10.00" fill="grey">distancia_km</text>
<text text-anchor="middle" x="151" y="-139" font-family="Helvetica,sans-Serif" font-size="10.00" fill="grey">tipo_equipamento</text>
</g>
<!-- Node5 -->
<g id="Node000005" class="node">
<title>Node5</title>
<g id="a_Node000005"><a xlink:title=" ">
<polygon fill="white" stroke="#bfbfbf" points="204.5,-112.5 166.5,-112.5 166.5,-93.5 204.5,-93.5 204.5,-112.5"/>
<text text-anchor="middle" x="185.5" y="-100.5" font-family="Helvetica,sans-Serif" font-size="10.00">uuid</text>
</a>
</g>
</g>
<!-- Node5&#45;&gt;Node1 -->
<g id="edge4_Node000001_Node000005" class="edge">
<title>Node5&#45;&gt;Node1</title>
<g id="a_edge4_Node000001_Node000005"><a xlink:title=" ">
<path fill="none" stroke="#9a32cd" stroke-dasharray="5,2" d="M185.5,-83.19C185.5,-67.23 185.5,-44.68 185.5,-30.2"/>
<polygon fill="#9a32cd" stroke="#9a32cd" points="182,-83.44 185.5,-93.44 189,-83.44 182,-83.44"/>
</a>
</g>
<text text-anchor="middle" x="203.5" y="-62" font-family="Helvetica,sans-Serif" font-size="10.00" fill="grey"> id</text>
<text text-anchor="middle" x="203.5" y="-51" font-family="Helvetica,sans-Serif" font-size="10.00" fill="grey">user_id</text>
</g>
<!-- Node6 -->
<g id="Node000006" class="node">
<title>Node6</title>
<g id="a_Node000006"><a xlink:title=" ">
<polygon fill="white" stroke="#bfbfbf" points="284,-112.5 223,-112.5 223,-93.5 284,-93.5 284,-112.5"/>
<text text-anchor="middle" x="253.5" y="-100.5" font-family="Helvetica,sans-Serif" font-size="10.00">datetime</text>
</a>
</g>
</g>
<!-- Node6&#45;&gt;Node1 -->
<g id="edge5_Node000001_Node000006" class="edge">
<title>Node6&#45;&gt;Node1</title>
<g id="a_edge5_Node000001_Node000006"><a xlink:title=" ">
<path fill="none" stroke="#9a32cd" stroke-dasharray="5,2" d="M246.36,-83.81C241.5,-72.77 234.33,-58.76 225.5,-48 220.08,-41.4 213.1,-35.25 206.5,-30.14"/>
<polygon fill="#9a32cd" stroke="#9a32cd" points="243.24,-85.41 250.31,-93.3 249.7,-82.72 243.24,-85.41"/>
</a>
</g>
<text text-anchor="middle" x="251" y="-56.5" font-family="Helvetica,sans-Serif" font-size="10.00" fill="grey"> data</text>
</g>
</g>
</svg>
</svg>

<style type='text/css'>
<![CDATA[
[data-mouse-over-selected='false'] { opacity: 0.7; }
[data-mouse-over-selected='true']  { opacity: 1.0; }
]]>
</style>
<script type="application/ecmascript"><![CDATA[
document.addEventListener('DOMContentLoaded', (event) => {
  highlightEdges();
  highlightAdjacentNodes();
});
]]></script>
</svg>
