<?xml version="1.0" encoding="UTF-8" standalone="no"?>
<!DOCTYPE svg PUBLIC "-//W3C//DTD SVG 1.1//EN"
 "http://www.w3.org/Graphics/SVG/1.1/DTD/svg11.dtd">
<!-- Generated by graphviz version 2.43.0 (0)
 -->
<!-- Title: schemas.exercicio.Exercicio Pages: 1 -->
<svg width="185pt" height="137pt"
 viewBox="0.00 0.00 185.00 137.00" xmlns="http://www.w3.org/2000/svg" xmlns:xlink="http://www.w3.org/1999/xlink">
<g id="graph0" class="graph" transform="scale(1 1) rotate(0) translate(4 133)">
<title>schemas.exercicio.Exercicio</title>
<!-- Node1 -->
<g id="Node000001" class="node">
<title>Node1</title>
<g id="a_Node000001"><a xlink:title="Schema usado para representar um exercício lido da base de dados.">
<polygon fill="#999999" stroke="#666666" points="165,-19 12,-19 12,0 165,0 165,-19"/>
<text text-anchor="middle" x="88.5" y="-7" font-family="Helvetica,sans-Serif" font-size="10.00">schemas.exercicio.Exercicio</text>
</a>
</g>
</g>
<!-- Node2 -->
<g id="Node000002" class="node">
<title>Node2</title>
<g id="a_Node000002"><a xlink:href="classschemas_1_1exercicio_1_1ExercicioBase.html" target="_top" xlink:title="Schema base que define os campos comuns de um exercício.">
<polygon fill="white" stroke="#666666" points="177,-74 0,-74 0,-55 177,-55 177,-74"/>
<text text-anchor="middle" x="88.5" y="-62" font-family="Helvetica,sans-Serif" font-size="10.00">schemas.exercicio.ExercicioBase</text>
</a>
</g>
</g>
<!-- Node2&#45;&gt;Node1 -->
<g id="edge1_Node000001_Node000002" class="edge">
<title>Node2&#45;&gt;Node1</title>
<g id="a_edge1_Node000001_Node000002"><a xlink:title=" ">
<path fill="none" stroke="#63b8ff" d="M88.5,-44.66C88.5,-35.93 88.5,-25.99 88.5,-19.09"/>
<polygon fill="#63b8ff" stroke="#63b8ff" points="85,-44.75 88.5,-54.75 92,-44.75 85,-44.75"/>
</a>
</g>
</g>
<!-- Node3 -->
<g id="Node000003" class="node">
<title>Node3</title>
<g id="a_Node000003"><a xlink:title=" ">
<polygon fill="white" stroke="#bfbfbf" points="124,-129 53,-129 53,-110 124,-110 124,-129"/>
<text text-anchor="middle" x="88.5" y="-117" font-family="Helvetica,sans-Serif" font-size="10.00">BaseModel</text>
</a>
</g>
</g>
<!-- Node3&#45;&gt;Node2 -->
<g id="edge2_Node000002_Node000003" class="edge">
<title>Node3&#45;&gt;Node2</title>
<g id="a_edge2_Node000002_Node000003"><a xlink:title=" ">
<path fill="none" stroke="#63b8ff" d="M88.5,-99.66C88.5,-90.93 88.5,-80.99 88.5,-74.09"/>
<polygon fill="#63b8ff" stroke="#63b8ff" points="85,-99.75 88.5,-109.75 92,-99.75 85,-99.75"/>
</a>
</g>
</g>
</g>
</svg>
