<?xml version="1.0" encoding="UTF-8" standalone="no"?>
<!DOCTYPE svg PUBLIC "-//W3C//DTD SVG 1.1//EN"
 "http://www.w3.org/Graphics/SVG/1.1/DTD/svg11.dtd">
<!-- Generated by graphviz version 2.43.0 (0)
 -->
<!-- Title: schemas.ia_interaction.RegistroInteracaoIA Pages: 1 -->
<svg width="317pt" height="182pt"
 viewBox="0.00 0.00 317.00 182.00" xmlns="http://www.w3.org/2000/svg" xmlns:xlink="http://www.w3.org/1999/xlink">
<g id="graph0" class="graph" transform="scale(1 1) rotate(0) translate(4 178)">
<title>schemas.ia_interaction.RegistroInteracaoIA</title>
<!-- Node1 -->
<g id="Node000001" class="node">
<title>Node1</title>
<g id="a_Node000001"><a xlink:title="Schema usado para representar um registo de interação lido da base de dados.">
<polygon fill="#999999" stroke="#666666" points="297,-30 124,-30 124,0 297,0 297,-30"/>
<text text-anchor="start" x="132" y="-18" font-family="Helvetica,sans-Serif" font-size="10.00">schemas.ia_interaction.Registro</text>
<text text-anchor="middle" x="210.5" y="-7" font-family="Helvetica,sans-Serif" font-size="10.00">InteracaoIA</text>
</a>
</g>
</g>
<!-- Node2 -->
<g id="Node000002" class="node">
<title>Node2</title>
<g id="a_Node000002"><a xlink:href="classschemas_1_1ia__interaction_1_1RegistroInteracaoIABase.html" target="_top" xlink:title="Schema base que define os campos comuns de uma interação com a IA.">
<polygon fill="white" stroke="#666666" points="173,-118 0,-118 0,-88 173,-88 173,-118"/>
<text text-anchor="start" x="8" y="-106" font-family="Helvetica,sans-Serif" font-size="10.00">schemas.ia_interaction.Registro</text>
<text text-anchor="middle" x="86.5" y="-95" font-family="Helvetica,sans-Serif" font-size="10.00">InteracaoIABase</text>
</a>
</g>
</g>
<!-- Node2&#45;&gt;Node1 -->
<g id="edge1_Node000001_Node000002" class="edge">
<title>Node2&#45;&gt;Node1</title>
<g id="a_edge1_Node000001_Node000002"><a xlink:title=" ">
<path fill="none" stroke="#63b8ff" d="M115.05,-82.2C138.07,-66.24 169.87,-44.18 190.31,-30"/>
<polygon fill="#63b8ff" stroke="#63b8ff" points="112.92,-79.42 106.7,-87.99 116.91,-85.17 112.92,-79.42"/>
</a>
</g>
</g>
<!-- Node3 -->
<g id="Node000003" class="node">
<title>Node3</title>
<g id="a_Node000003"><a xlink:title=" ">
<polygon fill="white" stroke="#bfbfbf" points="122,-174 51,-174 51,-155 122,-155 122,-174"/>
<text text-anchor="middle" x="86.5" y="-162" font-family="Helvetica,sans-Serif" font-size="10.00">BaseModel</text>
</a>
</g>
</g>
<!-- Node3&#45;&gt;Node2 -->
<g id="edge2_Node000002_Node000003" class="edge">
<title>Node3&#45;&gt;Node2</title>
<g id="a_edge2_Node000002_Node000003"><a xlink:title=" ">
<path fill="none" stroke="#63b8ff" d="M86.5,-144.73C86.5,-136.09 86.5,-126 86.5,-118.02"/>
<polygon fill="#63b8ff" stroke="#63b8ff" points="83,-144.98 86.5,-154.98 90,-144.98 83,-144.98"/>
</a>
</g>
</g>
<!-- Node4 -->
<g id="Node000004" class="node">
<title>Node4</title>
<g id="a_Node000004"><a xlink:title=" ">
<polygon fill="white" stroke="#bfbfbf" points="229.5,-112.5 191.5,-112.5 191.5,-93.5 229.5,-93.5 229.5,-112.5"/>
<text text-anchor="middle" x="210.5" y="-100.5" font-family="Helvetica,sans-Serif" font-size="10.00">uuid</text>
</a>
</g>
</g>
<!-- Node4&#45;&gt;Node1 -->
<g id="edge3_Node000001_Node000004" class="edge">
<title>Node4&#45;&gt;Node1</title>
<g id="a_edge3_Node000001_Node000004"><a xlink:title=" ">
<path fill="none" stroke="#9a32cd" stroke-dasharray="5,2" d="M210.5,-83.19C210.5,-67.23 210.5,-44.68 210.5,-30.2"/>
<polygon fill="#9a32cd" stroke="#9a32cd" points="207,-83.44 210.5,-93.44 214,-83.44 207,-83.44"/>
</a>
</g>
<text text-anchor="middle" x="228.5" y="-62" font-family="Helvetica,sans-Serif" font-size="10.00" fill="grey"> id</text>
<text text-anchor="middle" x="228.5" y="-51" font-family="Helvetica,sans-Serif" font-size="10.00" fill="grey">user_id</text>
</g>
<!-- Node5 -->
<g id="Node000005" class="node">
<title>Node5</title>
<g id="a_Node000005"><a xlink:title=" ">
<polygon fill="white" stroke="#bfbfbf" points="309,-112.5 248,-112.5 248,-93.5 309,-93.5 309,-112.5"/>
<text text-anchor="middle" x="278.5" y="-100.5" font-family="Helvetica,sans-Serif" font-size="10.00">datetime</text>
</a>
</g>
</g>
<!-- Node5&#45;&gt;Node1 -->
<g id="edge4_Node000001_Node000005" class="edge">
<title>Node5&#45;&gt;Node1</title>
<g id="a_edge4_Node000001_Node000005"><a xlink:title=" ">
<path fill="none" stroke="#9a32cd" stroke-dasharray="5,2" d="M271.36,-83.81C266.5,-72.77 259.33,-58.76 250.5,-48 245.08,-41.4 238.1,-35.25 231.5,-30.14"/>
<polygon fill="#9a32cd" stroke="#9a32cd" points="268.24,-85.41 275.31,-93.3 274.7,-82.72 268.24,-85.41"/>
</a>
</g>
<text text-anchor="middle" x="276" y="-56.5" font-family="Helvetica,sans-Serif" font-size="10.00" fill="grey"> data</text>
</g>
</g>
</svg>
