<?xml version="1.0" encoding="UTF-8" standalone="no"?>
<!DOCTYPE svg PUBLIC "-//W3C//DTD SVG 1.1//EN"
 "http://www.w3.org/Graphics/SVG/1.1/DTD/svg11.dtd">
<!-- Generated by graphviz version 2.43.0 (0)
 -->
<!-- Title: schemas.progress_record.BodyImageRecord Pages: 1 -->
<svg width="292pt" height="192pt"
 viewBox="0.00 0.00 292.00 192.00" xmlns="http://www.w3.org/2000/svg" xmlns:xlink="http://www.w3.org/1999/xlink">
<g id="graph0" class="graph" transform="scale(1 1) rotate(0) translate(4 188)">
<title>schemas.progress_record.BodyImageRecord</title>
<!-- Node1 -->
<g id="Node000001" class="node">
<title>Node1</title>
<g id="a_Node000001"><a xlink:title="Schema para representar um registo de imagem corporal lido da base de dados.">
<polygon fill="#999999" stroke="#666666" points="257.5,-30 113.5,-30 113.5,0 257.5,0 257.5,-30"/>
<text text-anchor="start" x="121.5" y="-18" font-family="Helvetica,sans-Serif" font-size="10.00">schemas.progress_record.</text>
<text text-anchor="middle" x="185.5" y="-7" font-family="Helvetica,sans-Serif" font-size="10.00">BodyImageRecord</text>
</a>
</g>
</g>
<!-- Node2 -->
<g id="Node000002" class="node">
<title>Node2</title>
<g id="a_Node000002"><a xlink:href="classschemas_1_1progress__record_1_1BodyImageRecordBase.html" target="_top" xlink:title="Schema base para um registo de imagem corporal.">
<polygon fill="white" stroke="#666666" points="148.5,-118 4.5,-118 4.5,-88 148.5,-88 148.5,-118"/>
<text text-anchor="start" x="12.5" y="-106" font-family="Helvetica,sans-Serif" font-size="10.00">schemas.progress_record.</text>
<text text-anchor="middle" x="76.5" y="-95" font-family="Helvetica,sans-Serif" font-size="10.00">BodyImageRecordBase</text>
</a>
</g>
</g>
<!-- Node2&#45;&gt;Node1 -->
<g id="edge1_Node000001_Node000002" class="edge">
<title>Node2&#45;&gt;Node1</title>
<g id="a_edge1_Node000001_Node000002"><a xlink:title=" ">
<path fill="none" stroke="#63b8ff" d="M102.6,-81.4C122.64,-65.59 149.79,-44.17 167.47,-30.22"/>
<polygon fill="#63b8ff" stroke="#63b8ff" points="100.18,-78.86 94.5,-87.8 104.52,-84.35 100.18,-78.86"/>
</a>
</g>
</g>
<!-- Node3 -->
<g id="Node000003" class="node">
<title>Node3</title>
<g id="a_Node000003"><a xlink:title=" ">
<polygon fill="white" stroke="#bfbfbf" points="71,-184 0,-184 0,-165 71,-165 71,-184"/>
<text text-anchor="middle" x="35.5" y="-172" font-family="Helvetica,sans-Serif" font-size="10.00">BaseModel</text>
</a>
</g>
</g>
<!-- Node3&#45;&gt;Node2 -->
<g id="edge2_Node000002_Node000003" class="edge">
<title>Node3&#45;&gt;Node2</title>
<g id="a_edge2_Node000002_Node000003"><a xlink:title=" ">
<path fill="none" stroke="#63b8ff" d="M45.74,-156.14C52.66,-144.41 61.68,-129.12 68.16,-118.14"/>
<polygon fill="#63b8ff" stroke="#63b8ff" points="42.59,-154.59 40.53,-164.98 48.62,-158.14 42.59,-154.59"/>
</a>
</g>
</g>
<!-- Node4 -->
<g id="Node000004" class="node">
<title>Node4</title>
<g id="a_Node000004"><a xlink:title=" ">
<polygon fill="white" stroke="#bfbfbf" points="147.5,-184 89.5,-184 89.5,-165 147.5,-165 147.5,-184"/>
<text text-anchor="middle" x="118.5" y="-172" font-family="Helvetica,sans-Serif" font-size="10.00">Optional</text>
</a>
</g>
</g>
<!-- Node4&#45;&gt;Node2 -->
<g id="edge3_Node000002_Node000004" class="edge">
<title>Node4&#45;&gt;Node2</title>
<g id="a_edge3_Node000002_Node000004"><a xlink:title=" ">
<path fill="none" stroke="#9a32cd" stroke-dasharray="5,2" d="M108.01,-156.14C100.92,-144.41 91.68,-129.12 85.04,-118.14"/>
<polygon fill="#9a32cd" stroke="#9a32cd" points="105.18,-158.23 113.35,-164.98 111.17,-154.61 105.18,-158.23"/>
</a>
</g>
<text text-anchor="middle" x="122" y="-139" font-family="Helvetica,sans-Serif" font-size="10.00" fill="grey"> posicao</text>
</g>
<!-- Node5 -->
<g id="Node000005" class="node">
<title>Node5</title>
<g id="a_Node000005"><a xlink:title=" ">
<polygon fill="white" stroke="#bfbfbf" points="204.5,-112.5 166.5,-112.5 166.5,-93.5 204.5,-93.5 204.5,-112.5"/>
<text text-anchor="middle" x="185.5" y="-100.5" font-family="Helvetica,sans-Serif" font-size="10.00">uuid</text>
</a>
</g>
</g>
<!-- Node5&#45;&gt;Node1 -->
<g id="edge4_Node000001_Node000005" class="edge">
<title>Node5&#45;&gt;Node1</title>
<g id="a_edge4_Node000001_Node000005"><a xlink:title=" ">
<path fill="none" stroke="#9a32cd" stroke-dasharray="5,2" d="M185.5,-83.19C185.5,-67.23 185.5,-44.68 185.5,-30.2"/>
<polygon fill="#9a32cd" stroke="#9a32cd" points="182,-83.44 185.5,-93.44 189,-83.44 182,-83.44"/>
</a>
</g>
<text text-anchor="middle" x="203.5" y="-62" font-family="Helvetica,sans-Serif" font-size="10.00" fill="grey"> id</text>
<text text-anchor="middle" x="203.5" y="-51" font-family="Helvetica,sans-Serif" font-size="10.00" fill="grey">user_id</text>
</g>
<!-- Node6 -->
<g id="Node000006" class="node">
<title>Node6</title>
<g id="a_Node000006"><a xlink:title=" ">
<polygon fill="white" stroke="#bfbfbf" points="284,-112.5 223,-112.5 223,-93.5 284,-93.5 284,-112.5"/>
<text text-anchor="middle" x="253.5" y="-100.5" font-family="Helvetica,sans-Serif" font-size="10.00">datetime</text>
</a>
</g>
</g>
<!-- Node6&#45;&gt;Node1 -->
<g id="edge5_Node000001_Node000006" class="edge">
<title>Node6&#45;&gt;Node1</title>
<g id="a_edge5_Node000001_Node000006"><a xlink:title=" ">
<path fill="none" stroke="#9a32cd" stroke-dasharray="5,2" d="M246.36,-83.81C241.5,-72.77 234.33,-58.76 225.5,-48 220.08,-41.4 213.1,-35.25 206.5,-30.14"/>
<polygon fill="#9a32cd" stroke="#9a32cd" points="243.24,-85.41 250.31,-93.3 249.7,-82.72 243.24,-85.41"/>
</a>
</g>
<text text-anchor="middle" x="251" y="-56.5" font-family="Helvetica,sans-Serif" font-size="10.00" fill="grey"> data</text>
</g>
</g>
</svg>
