<?xml version="1.0" encoding="UTF-8" standalone="no"?>
<!DOCTYPE svg PUBLIC "-//W3C//DTD SVG 1.1//EN"
 "http://www.w3.org/Graphics/SVG/1.1/DTD/svg11.dtd">
<!-- Generated by graphviz version 2.43.0 (0)
 -->
<!-- Title: schemas.user.User Pages: 1 -->
<svg width="279pt" height="259pt"
 viewBox="0.00 0.00 278.50 259.00" xmlns="http://www.w3.org/2000/svg" xmlns:xlink="http://www.w3.org/1999/xlink">

<svg id="main" version="1.1" xmlns="http://www.w3.org/2000/svg" xmlns:xlink="http://www.w3.org/1999/xlink" xml:space="preserve" onload="init(evt)">
<style type="text/css"><![CDATA[
.node, .edge {opacity: 0.7;}
.node.selected, .edge.selected {opacity: 1;}
.edge:hover path { stroke: red; }
.edge:hover polygon { stroke: red; fill: red; }
]]></style>
<script type="application/ecmascript" xlink:href="svg.min.js"/>
<svg id="graph" class="graph">
<g id="graph0" class="graph" transform="scale(1 1) rotate(0) translate(4 255)">
<title>schemas.user.User</title>
<!-- Node1 -->
<g id="Node000001" class="node">
<title>Node1</title>
<g id="a_Node000001"><a xlink:title="Schema principal usado para retornar os dados de um utilizador na API.">
<polygon fill="#999999" stroke="#666666" points="225,-19 116,-19 116,0 225,0 225,-19"/>
<text text-anchor="middle" x="170.5" y="-7" font-family="Helvetica,sans-Serif" font-size="10.00">schemas.user.User</text>
</a>
</g>
</g>
<!-- Node2 -->
<g id="Node000002" class="node">
<title>Node2</title>
<g id="a_Node000002"><a xlink:href="classschemas_1_1user_1_1UserInDBBase.html" target="_top" xlink:title="Schema base para representar um utilizador lido da base de dados.">
<polygon fill="white" stroke="#666666" points="248.5,-75 92.5,-75 92.5,-56 248.5,-56 248.5,-75"/>
<text text-anchor="middle" x="170.5" y="-63" font-family="Helvetica,sans-Serif" font-size="10.00">schemas.user.UserInDBBase</text>
</a>
</g>
</g>
<!-- Node2&#45;&gt;Node1 -->
<g id="edge1_Node000001_Node000002" class="edge">
<title>Node2&#45;&gt;Node1</title>
<g id="a_edge1_Node000001_Node000002"><a xlink:title=" ">
<path fill="none" stroke="#63b8ff" d="M170.5,-45.3C170.5,-36.41 170.5,-26.28 170.5,-19.25"/>
<polygon fill="#63b8ff" stroke="#63b8ff" points="167,-45.58 170.5,-55.58 174,-45.58 167,-45.58"/>
</a>
</g>
</g>
<!-- Node3 -->
<g id="Node000003" class="node">
<title>Node3</title>
<g id="a_Node000003"><a xlink:href="classschemas_1_1user_1_1UserBase.html" target="_top" xlink:title="Schema base que define os campos comuns e editáveis de um utilizador.">
<polygon fill="white" stroke="#666666" points="185,-141 52,-141 52,-122 185,-122 185,-141"/>
<text text-anchor="middle" x="118.5" y="-129" font-family="Helvetica,sans-Serif" font-size="10.00">schemas.user.UserBase</text>
</a>
</g>
</g>
<!-- Node3&#45;&gt;Node2 -->
<g id="edge2_Node000002_Node000003" class="edge">
<title>Node3&#45;&gt;Node2</title>
<g id="a_edge2_Node000002_Node000003"><a xlink:title=" ">
<path fill="none" stroke="#63b8ff" d="M132.1,-113.77C142.07,-101.49 155.23,-85.3 163.26,-75.41"/>
<polygon fill="#63b8ff" stroke="#63b8ff" points="129.1,-111.9 125.51,-121.87 134.54,-116.31 129.1,-111.9"/>
</a>
</g>
</g>
<!-- Node4 -->
<g id="Node000004" class="node">
<title>Node4</title>
<g id="a_Node000004"><a xlink:title=" ">
<polygon fill="white" stroke="#bfbfbf" points="71,-251 0,-251 0,-232 71,-232 71,-251"/>
<text text-anchor="middle" x="35.5" y="-239" font-family="Helvetica,sans-Serif" font-size="10.00">BaseModel</text>
</a>
</g>
</g>
<!-- Node4&#45;&gt;Node3 -->
<g id="edge3_Node000003_Node000004" class="edge">
<title>Node4&#45;&gt;Node3</title>
<g id="a_edge3_Node000003_Node000004"><a xlink:title=" ">
<path fill="none" stroke="#63b8ff" d="M48.42,-223.69C66.34,-200.37 98.1,-159.05 111.85,-141.16"/>
<polygon fill="#63b8ff" stroke="#63b8ff" points="45.61,-221.6 42.29,-231.66 51.16,-225.87 45.61,-221.6"/>
</a>
</g>
</g>
<!-- Node5 -->
<g id="Node000005" class="node">
<title>Node5</title>
<g id="a_Node000005"><a xlink:title=" ">
<polygon fill="white" stroke="#bfbfbf" points="147.5,-251 89.5,-251 89.5,-232 147.5,-232 147.5,-251"/>
<text text-anchor="middle" x="118.5" y="-239" font-family="Helvetica,sans-Serif" font-size="10.00">EmailStr</text>
</a>
</g>
</g>
<!-- Node5&#45;&gt;Node3 -->
<g id="edge4_Node000003_Node000005" class="edge">
<title>Node5&#45;&gt;Node3</title>
<g id="a_edge4_Node000003_Node000005"><a xlink:title=" ">
<path fill="none" stroke="#9a32cd" stroke-dasharray="5,2" d="M118.5,-221.48C118.5,-197.84 118.5,-158.5 118.5,-141.16"/>
<polygon fill="#9a32cd" stroke="#9a32cd" points="115,-221.66 118.5,-231.66 122,-221.66 115,-221.66"/>
</a>
</g>
<text text-anchor="middle" x="134" y="-184" font-family="Helvetica,sans-Serif" font-size="10.00" fill="grey"> email</text>
</g>
<!-- Node6 -->
<g id="Node000006" class="node">
<title>Node6</title>
<g id="a_Node000006"><a xlink:title=" ">
<polygon fill="white" stroke="#bfbfbf" points="223.5,-251 165.5,-251 165.5,-232 223.5,-232 223.5,-251"/>
<text text-anchor="middle" x="194.5" y="-239" font-family="Helvetica,sans-Serif" font-size="10.00">Optional</text>
</a>
</g>
</g>
<!-- Node6&#45;&gt;Node3 -->
<g id="edge5_Node000003_Node000006" class="edge">
<title>Node6&#45;&gt;Node3</title>
<g id="a_edge5_Node000003_Node000006"><a xlink:title=" ">
<path fill="none" stroke="#9a32cd" stroke-dasharray="5,2" d="M188.14,-222.33C181.4,-204.83 169.53,-178.25 153.5,-159 147.65,-151.97 139.59,-145.71 132.68,-141.04"/>
<polygon fill="#9a32cd" stroke="#9a32cd" points="184.92,-223.72 191.66,-231.9 191.49,-221.31 184.92,-223.72"/>
</a>
</g>
<text text-anchor="middle" x="228" y="-206" font-family="Helvetica,sans-Serif" font-size="10.00" fill="grey"> altura_cm</text>
<text text-anchor="middle" x="228" y="-195" font-family="Helvetica,sans-Serif" font-size="10.00" fill="grey">data_nascimento</text>
<text text-anchor="middle" x="228" y="-184" font-family="Helvetica,sans-Serif" font-size="10.00" fill="grey">nome</text>
<text text-anchor="middle" x="228" y="-173" font-family="Helvetica,sans-Serif" font-size="10.00" fill="grey">peso_kg</text>
<text text-anchor="middle" x="228" y="-162" font-family="Helvetica,sans-Serif" font-size="10.00" fill="grey">sexo</text>
</g>
<!-- Node7 -->
<g id="Node000007" class="node">
<title>Node7</title>
<g id="a_Node000007"><a xlink:title=" ">
<polygon fill="white" stroke="#bfbfbf" points="241.5,-141 203.5,-141 203.5,-122 241.5,-122 241.5,-141"/>
<text text-anchor="middle" x="222.5" y="-129" font-family="Helvetica,sans-Serif" font-size="10.00">uuid</text>
</a>
</g>
</g>
<!-- Node7&#45;&gt;Node2 -->
<g id="edge6_Node000002_Node000007" class="edge">
<title>Node7&#45;&gt;Node2</title>
<g id="a_edge6_Node000002_Node000007"><a xlink:title=" ">
<path fill="none" stroke="#9a32cd" stroke-dasharray="5,2" d="M208.9,-113.77C198.93,-101.49 185.77,-85.3 177.74,-75.41"/>
<polygon fill="#9a32cd" stroke="#9a32cd" points="206.46,-116.31 215.49,-121.87 211.9,-111.9 206.46,-116.31"/>
</a>
</g>
<text text-anchor="middle" x="206" y="-96" font-family="Helvetica,sans-Serif" font-size="10.00" fill="grey"> id</text>
</g>
</g>
</svg>
</svg>

<style type='text/css'>
<![CDATA[
[data-mouse-over-selected='false'] { opacity: 0.7; }
[data-mouse-over-selected='true']  { opacity: 1.0; }
]]>
</style>
<script type="application/ecmascript"><![CDATA[
document.addEventListener('DOMContentLoaded', (event) => {
  highlightEdges();
  highlightAdjacentNodes();
});
]]></script>
</svg>
