<?xml version="1.0" encoding="UTF-8" standalone="no"?>
<!DOCTYPE svg PUBLIC "-//W3C//DTD SVG 1.1//EN"
 "http://www.w3.org/Graphics/SVG/1.1/DTD/svg11.dtd">
<!-- Generated by graphviz version 2.43.0 (0)
 -->
<!-- Title: schemas.exercise_session.SessaoDeTreino Pages: 1 -->
<svg width="370pt" height="171pt"
 viewBox="0.00 0.00 369.50 171.00" xmlns="http://www.w3.org/2000/svg" xmlns:xlink="http://www.w3.org/1999/xlink">
<g id="graph0" class="graph" transform="scale(1 1) rotate(0) translate(4 167)">
<title>schemas.exercise_session.SessaoDeTreino</title>
<!-- Node1 -->
<g id="Node000001" class="node">
<title>Node1</title>
<g id="a_Node000001"><a xlink:title="Schema para representar uma sessão de treino lida da base de dados.">
<polygon fill="#999999" stroke="#666666" points="293,-30 144,-30 144,0 293,0 293,-30"/>
<text text-anchor="start" x="152" y="-18" font-family="Helvetica,sans-Serif" font-size="10.00">schemas.exercise_session.</text>
<text text-anchor="middle" x="218.5" y="-7" font-family="Helvetica,sans-Serif" font-size="10.00">SessaoDeTreino</text>
</a>
</g>
</g>
<!-- Node2 -->
<g id="Node000002" class="node">
<title>Node2</title>
<g id="a_Node000002"><a xlink:href="classschemas_1_1exercise__session_1_1SessaoDeTreinoBase.html" target="_top" xlink:title="Schema base para uma sessão de treino, serve como base para outros schemas.">
<polygon fill="white" stroke="#666666" points="149,-107 0,-107 0,-77 149,-77 149,-107"/>
<text text-anchor="start" x="8" y="-95" font-family="Helvetica,sans-Serif" font-size="10.00">schemas.exercise_session.</text>
<text text-anchor="middle" x="74.5" y="-84" font-family="Helvetica,sans-Serif" font-size="10.00">SessaoDeTreinoBase</text>
</a>
</g>
</g>
<!-- Node2&#45;&gt;Node1 -->
<g id="edge1_Node000001_Node000002" class="edge">
<title>Node2&#45;&gt;Node1</title>
<g id="a_edge1_Node000001_Node000002"><a xlink:title=" ">
<path fill="none" stroke="#63b8ff" d="M110.46,-72.27C135.6,-59.18 168.64,-41.97 191.54,-30.04"/>
<polygon fill="#63b8ff" stroke="#63b8ff" points="108.84,-69.17 101.59,-76.89 112.07,-75.38 108.84,-69.17"/>
</a>
</g>
</g>
<!-- Node3 -->
<g id="Node000003" class="node">
<title>Node3</title>
<g id="a_Node000003"><a xlink:title=" ">
<polygon fill="white" stroke="#bfbfbf" points="110,-163 39,-163 39,-144 110,-144 110,-163"/>
<text text-anchor="middle" x="74.5" y="-151" font-family="Helvetica,sans-Serif" font-size="10.00">BaseModel</text>
</a>
</g>
</g>
<!-- Node3&#45;&gt;Node2 -->
<g id="edge2_Node000002_Node000003" class="edge">
<title>Node3&#45;&gt;Node2</title>
<g id="a_edge2_Node000002_Node000003"><a xlink:title=" ">
<path fill="none" stroke="#63b8ff" d="M74.5,-133.73C74.5,-125.09 74.5,-115 74.5,-107.02"/>
<polygon fill="#63b8ff" stroke="#63b8ff" points="71,-133.98 74.5,-143.98 78,-133.98 71,-133.98"/>
</a>
</g>
</g>
<!-- Node4 -->
<g id="Node000004" class="node">
<title>Node4</title>
<g id="a_Node000004"><a xlink:title=" ">
<polygon fill="white" stroke="#bfbfbf" points="204.5,-101.5 166.5,-101.5 166.5,-82.5 204.5,-82.5 204.5,-101.5"/>
<text text-anchor="middle" x="185.5" y="-89.5" font-family="Helvetica,sans-Serif" font-size="10.00">uuid</text>
</a>
</g>
</g>
<!-- Node4&#45;&gt;Node1 -->
<g id="edge3_Node000001_Node000004" class="edge">
<title>Node4&#45;&gt;Node1</title>
<g id="a_edge3_Node000001_Node000004"><a xlink:title=" ">
<path fill="none" stroke="#9a32cd" stroke-dasharray="5,2" d="M193.43,-72.99C199.21,-59.83 206.95,-42.25 212.29,-30.11"/>
<polygon fill="#9a32cd" stroke="#9a32cd" points="190.11,-71.83 189.29,-82.4 196.52,-74.65 190.11,-71.83"/>
</a>
</g>
<text text-anchor="middle" x="210" y="-51" font-family="Helvetica,sans-Serif" font-size="10.00" fill="grey"> id</text>
</g>
<!-- Node5 -->
<g id="Node000005" class="node">
<title>Node5</title>
<g id="a_Node000005"><a xlink:title=" ">
<polygon fill="white" stroke="#bfbfbf" points="284,-101.5 223,-101.5 223,-82.5 284,-82.5 284,-101.5"/>
<text text-anchor="middle" x="253.5" y="-89.5" font-family="Helvetica,sans-Serif" font-size="10.00">datetime</text>
</a>
</g>
</g>
<!-- Node5&#45;&gt;Node1 -->
<g id="edge4_Node000001_Node000005" class="edge">
<title>Node5&#45;&gt;Node1</title>
<g id="a_edge4_Node000001_Node000005"><a xlink:title=" ">
<path fill="none" stroke="#9a32cd" stroke-dasharray="5,2" d="M245.09,-72.99C238.96,-59.83 230.75,-42.25 225.09,-30.11"/>
<polygon fill="#9a32cd" stroke="#9a32cd" points="242.08,-74.81 249.49,-82.4 248.43,-71.85 242.08,-74.81"/>
</a>
</g>
<text text-anchor="middle" x="266" y="-51" font-family="Helvetica,sans-Serif" font-size="10.00" fill="grey"> data_inicio</text>
</g>
<!-- Node6 -->
<g id="Node000006" class="node">
<title>Node6</title>
<g id="a_Node000006"><a xlink:title=" ">
<polygon fill="white" stroke="#bfbfbf" points="361.5,-101.5 303.5,-101.5 303.5,-82.5 361.5,-82.5 361.5,-101.5"/>
<text text-anchor="middle" x="332.5" y="-89.5" font-family="Helvetica,sans-Serif" font-size="10.00">Optional</text>
</a>
</g>
</g>
<!-- Node6&#45;&gt;Node1 -->
<g id="edge5_Node000001_Node000006" class="edge">
<title>Node6&#45;&gt;Node1</title>
<g id="a_edge5_Node000001_Node000006"><a xlink:title=" ">
<path fill="none" stroke="#9a32cd" stroke-dasharray="5,2" d="M321.94,-73.68C315.95,-65.02 307.8,-54.94 298.5,-48 288.67,-40.66 276.93,-34.74 265.51,-30.09"/>
<polygon fill="#9a32cd" stroke="#9a32cd" points="319.16,-75.82 327.54,-82.3 325.03,-72 319.16,-75.82"/>
</a>
</g>
<text text-anchor="middle" x="332.5" y="-51" font-family="Helvetica,sans-Serif" font-size="10.00" fill="grey"> data_fim</text>
</g>
</g>
</svg>
