<?xml version="1.0" encoding="UTF-8" standalone="no"?>
<!DOCTYPE svg PUBLIC "-//W3C//DTD SVG 1.1//EN"
 "http://www.w3.org/Graphics/SVG/1.1/DTD/svg11.dtd">
<!-- Generated by graphviz version 2.43.0 (0)
 -->
<!-- Title: schemas.exercicio.ExercicioBase Pages: 1 -->
<svg width="481pt" height="124pt"
 viewBox="0.00 0.00 481.00 123.50" xmlns="http://www.w3.org/2000/svg" xmlns:xlink="http://www.w3.org/1999/xlink">

<svg id="main" version="1.1" xmlns="http://www.w3.org/2000/svg" xmlns:xlink="http://www.w3.org/1999/xlink" xml:space="preserve" onload="init(evt)">
<style type="text/css"><![CDATA[
.node, .edge {opacity: 0.7;}
.node.selected, .edge.selected {opacity: 1;}
.edge:hover path { stroke: red; }
.edge:hover polygon { stroke: red; fill: red; }
]]></style>
<script type="application/ecmascript" xlink:href="svg.min.js"/>
<svg id="graph" class="graph">
<g id="graph0" class="graph" transform="scale(1 1) rotate(0) translate(4 119.5)">
<title>schemas.exercicio.ExercicioBase</title>
<!-- Node1 -->
<g id="Node000001" class="node">
<title>Node1</title>
<g id="a_Node000001"><a xlink:title="Schema base que define os campos comuns de um exercício.">
<polygon fill="#999999" stroke="#666666" points="284,-72.5 107,-72.5 107,-53.5 284,-53.5 284,-72.5"/>
<text text-anchor="middle" x="195.5" y="-60.5" font-family="Helvetica,sans-Serif" font-size="10.00">schemas.exercicio.ExercicioBase</text>
</a>
</g>
</g>
<!-- Node3 -->
<g id="Node000003" class="node">
<title>Node3</title>
<g id="a_Node000003"><a xlink:href="classschemas_1_1exercicio_1_1Exercicio.html" target="_top" xlink:title="Schema usado para representar um exercício lido da base de dados.">
<polygon fill="white" stroke="#666666" points="473,-115.5 320,-115.5 320,-96.5 473,-96.5 473,-115.5"/>
<text text-anchor="middle" x="396.5" y="-103.5" font-family="Helvetica,sans-Serif" font-size="10.00">schemas.exercicio.Exercicio</text>
</a>
</g>
</g>
<!-- Node1&#45;&gt;Node3 -->
<g id="edge2_Node000001_Node000003" class="edge">
<title>Node1&#45;&gt;Node3</title>
<g id="a_edge2_Node000001_Node000003"><a xlink:title=" ">
<path fill="none" stroke="#63b8ff" d="M250.64,-74.7C282.29,-81.54 321.73,-90.06 351.46,-96.48"/>
<polygon fill="#63b8ff" stroke="#63b8ff" points="251.18,-71.23 240.66,-72.54 249.7,-78.08 251.18,-71.23"/>
</a>
</g>
</g>
<!-- Node4 -->
<g id="Node000004" class="node">
<title>Node4</title>
<g id="a_Node000004"><a xlink:href="classschemas_1_1exercicio_1_1ExercicioCreate.html" target="_top" xlink:title="Schema usado para validar os dados ao criar um novo exercício.">
<polygon fill="white" stroke="#666666" points="473,-78 320,-78 320,-48 473,-48 473,-78"/>
<text text-anchor="start" x="328" y="-66" font-family="Helvetica,sans-Serif" font-size="10.00">schemas.exercicio.Exercicio</text>
<text text-anchor="middle" x="396.5" y="-55" font-family="Helvetica,sans-Serif" font-size="10.00">Create</text>
</a>
</g>
</g>
<!-- Node1&#45;&gt;Node4 -->
<g id="edge3_Node000001_Node000004" class="edge">
<title>Node1&#45;&gt;Node4</title>
<g id="a_edge3_Node000001_Node000004"><a xlink:title=" ">
<path fill="none" stroke="#63b8ff" d="M294.14,-63C302.74,-63 311.36,-63 319.74,-63"/>
<polygon fill="#63b8ff" stroke="#63b8ff" points="294.07,-59.5 284.07,-63 294.07,-66.5 294.07,-59.5"/>
</a>
</g>
</g>
<!-- Node5 -->
<g id="Node000005" class="node">
<title>Node5</title>
<g id="a_Node000005"><a xlink:href="classschemas_1_1exercicio_1_1ExercicioUpdate.html" target="_top" xlink:title="Schema usado para validar os dados ao atualizar um exercício existente.">
<polygon fill="white" stroke="#666666" points="473,-30 320,-30 320,0 473,0 473,-30"/>
<text text-anchor="start" x="328" y="-18" font-family="Helvetica,sans-Serif" font-size="10.00">schemas.exercicio.Exercicio</text>
<text text-anchor="middle" x="396.5" y="-7" font-family="Helvetica,sans-Serif" font-size="10.00">Update</text>
</a>
</g>
</g>
<!-- Node1&#45;&gt;Node5 -->
<g id="edge4_Node000001_Node000005" class="edge">
<title>Node1&#45;&gt;Node5</title>
<g id="a_edge4_Node000001_Node000005"><a xlink:title=" ">
<path fill="none" stroke="#63b8ff" d="M246.05,-51.05C272.38,-44.7 305.01,-36.83 333.05,-30.06"/>
<polygon fill="#63b8ff" stroke="#63b8ff" points="245.19,-47.65 236.29,-53.4 246.83,-54.46 245.19,-47.65"/>
</a>
</g>
</g>
<!-- Node2 -->
<g id="Node000002" class="node">
<title>Node2</title>
<g id="a_Node000002"><a xlink:title=" ">
<polygon fill="white" stroke="#bfbfbf" points="71,-72.5 0,-72.5 0,-53.5 71,-53.5 71,-72.5"/>
<text text-anchor="middle" x="35.5" y="-60.5" font-family="Helvetica,sans-Serif" font-size="10.00">BaseModel</text>
</a>
</g>
</g>
<!-- Node2&#45;&gt;Node1 -->
<g id="edge1_Node000001_Node000002" class="edge">
<title>Node2&#45;&gt;Node1</title>
<g id="a_edge1_Node000001_Node000002"><a xlink:title=" ">
<path fill="none" stroke="#63b8ff" d="M81.38,-63C89.43,-63 98.07,-63 106.85,-63"/>
<polygon fill="#63b8ff" stroke="#63b8ff" points="81.17,-59.5 71.17,-63 81.17,-66.5 81.17,-59.5"/>
</a>
</g>
</g>
</g>
</svg>
</svg>

<style type='text/css'>
<![CDATA[
[data-mouse-over-selected='false'] { opacity: 0.7; }
[data-mouse-over-selected='true']  { opacity: 1.0; }
]]>
</style>
<script type="application/ecmascript"><![CDATA[
document.addEventListener('DOMContentLoaded', (event) => {
  highlightEdges();
  highlightAdjacentNodes();
});
]]></script>
</svg>
