<?xml version="1.0" encoding="UTF-8" standalone="no"?>
<!DOCTYPE svg PUBLIC "-//W3C//DTD SVG 1.1//EN"
 "http://www.w3.org/Graphics/SVG/1.1/DTD/svg11.dtd">
<!-- Generated by graphviz version 2.43.0 (0)
 -->
<!-- Title: schemas.exercise_session.ItemSessaoCreate Pages: 1 -->
<svg width="232pt" height="181pt"
 viewBox="0.00 0.00 231.50 181.00" xmlns="http://www.w3.org/2000/svg" xmlns:xlink="http://www.w3.org/1999/xlink">
<g id="graph0" class="graph" transform="scale(1 1) rotate(0) translate(4 177)">
<title>schemas.exercise_session.ItemSessaoCreate</title>
<!-- Node1 -->
<g id="Node000001" class="node">
<title>Node1</title>
<g id="a_Node000001"><a xlink:title="Schema para validar os dados ao criar um novo item de sessão.">
<polygon fill="#999999" stroke="#666666" points="206,-30 57,-30 57,0 206,0 206,-30"/>
<text text-anchor="start" x="65" y="-18" font-family="Helvetica,sans-Serif" font-size="10.00">schemas.exercise_session.</text>
<text text-anchor="middle" x="131.5" y="-7" font-family="Helvetica,sans-Serif" font-size="10.00">ItemSessaoCreate</text>
</a>
</g>
</g>
<!-- Node2 -->
<g id="Node000002" class="node">
<title>Node2</title>
<g id="a_Node000002"><a xlink:href="classschemas_1_1exercise__session_1_1ItemSessaoBase.html" target="_top" xlink:title="Schema base para um item de uma sessão de treino.">
<polygon fill="white" stroke="#666666" points="151,-107 2,-107 2,-77 151,-77 151,-107"/>
<text text-anchor="start" x="10" y="-95" font-family="Helvetica,sans-Serif" font-size="10.00">schemas.exercise_session.</text>
<text text-anchor="middle" x="76.5" y="-84" font-family="Helvetica,sans-Serif" font-size="10.00">ItemSessaoBase</text>
</a>
</g>
</g>
<!-- Node2&#45;&gt;Node1 -->
<g id="edge1_Node000001_Node000002" class="edge">
<title>Node2&#45;&gt;Node1</title>
<g id="a_edge1_Node000001_Node000002"><a xlink:title=" ">
<path fill="none" stroke="#63b8ff" d="M92.83,-68.74C102.02,-56.2 113.22,-40.92 121.2,-30.04"/>
<polygon fill="#63b8ff" stroke="#63b8ff" points="89.94,-66.76 86.85,-76.89 95.58,-70.9 89.94,-66.76"/>
</a>
</g>
</g>
<!-- Node3 -->
<g id="Node000003" class="node">
<title>Node3</title>
<g id="a_Node000003"><a xlink:title=" ">
<polygon fill="white" stroke="#bfbfbf" points="71,-173 0,-173 0,-154 71,-154 71,-173"/>
<text text-anchor="middle" x="35.5" y="-161" font-family="Helvetica,sans-Serif" font-size="10.00">BaseModel</text>
</a>
</g>
</g>
<!-- Node3&#45;&gt;Node2 -->
<g id="edge2_Node000002_Node000003" class="edge">
<title>Node3&#45;&gt;Node2</title>
<g id="a_edge2_Node000002_Node000003"><a xlink:title=" ">
<path fill="none" stroke="#63b8ff" d="M45.74,-145.14C52.66,-133.41 61.68,-118.12 68.16,-107.14"/>
<polygon fill="#63b8ff" stroke="#63b8ff" points="42.59,-143.59 40.53,-153.98 48.62,-147.14 42.59,-143.59"/>
</a>
</g>
</g>
<!-- Node4 -->
<g id="Node000004" class="node">
<title>Node4</title>
<g id="a_Node000004"><a xlink:title=" ">
<polygon fill="white" stroke="#bfbfbf" points="147.5,-173 89.5,-173 89.5,-154 147.5,-154 147.5,-173"/>
<text text-anchor="middle" x="118.5" y="-161" font-family="Helvetica,sans-Serif" font-size="10.00">Optional</text>
</a>
</g>
</g>
<!-- Node4&#45;&gt;Node2 -->
<g id="edge3_Node000002_Node000004" class="edge">
<title>Node4&#45;&gt;Node2</title>
<g id="a_edge3_Node000002_Node000004"><a xlink:title=" ">
<path fill="none" stroke="#9a32cd" stroke-dasharray="5,2" d="M108.01,-145.14C100.92,-133.41 91.68,-118.12 85.04,-107.14"/>
<polygon fill="#9a32cd" stroke="#9a32cd" points="105.18,-147.23 113.35,-153.98 111.17,-143.61 105.18,-147.23"/>
</a>
</g>
<text text-anchor="middle" x="133" y="-128" font-family="Helvetica,sans-Serif" font-size="10.00" fill="grey"> feedback_ia</text>
</g>
<!-- Node5 -->
<g id="Node000005" class="node">
<title>Node5</title>
<g id="a_Node000005"><a xlink:title=" ">
<polygon fill="white" stroke="#bfbfbf" points="206.5,-101.5 168.5,-101.5 168.5,-82.5 206.5,-82.5 206.5,-101.5"/>
<text text-anchor="middle" x="187.5" y="-89.5" font-family="Helvetica,sans-Serif" font-size="10.00">uuid</text>
</a>
</g>
</g>
<!-- Node5&#45;&gt;Node1 -->
<g id="edge4_Node000001_Node000005" class="edge">
<title>Node5&#45;&gt;Node1</title>
<g id="a_edge4_Node000001_Node000005"><a xlink:title=" ">
<path fill="none" stroke="#9a32cd" stroke-dasharray="5,2" d="M174.92,-74.15C165.01,-60.88 151.37,-42.61 142.04,-30.11"/>
<polygon fill="#9a32cd" stroke="#9a32cd" points="172.29,-76.48 181.08,-82.4 177.9,-72.29 172.29,-76.48"/>
</a>
</g>
<text text-anchor="middle" x="193" y="-51" font-family="Helvetica,sans-Serif" font-size="10.00" fill="grey"> exercicio_id</text>
</g>
</g>
</svg>
