<?xml version="1.0" encoding="UTF-8" standalone="no"?>
<!DOCTYPE svg PUBLIC "-//W3C//DTD SVG 1.1//EN"
 "http://www.w3.org/Graphics/SVG/1.1/DTD/svg11.dtd">
<!-- Generated by graphviz version 2.43.0 (0)
 -->
<!-- Title: schemas.exercise_session.SessaoDeTreinoBase Pages: 1 -->
<svg width="449pt" height="86pt"
 viewBox="0.00 0.00 449.00 86.00" xmlns="http://www.w3.org/2000/svg" xmlns:xlink="http://www.w3.org/1999/xlink">
<g id="graph0" class="graph" transform="scale(1 1) rotate(0) translate(4 82)">
<title>schemas.exercise_session.SessaoDeTreinoBase</title>
<!-- Node1 -->
<g id="Node000001" class="node">
<title>Node1</title>
<g id="a_Node000001"><a xlink:title="Schema base para uma sessão de treino, serve como base para outros schemas.">
<polygon fill="#999999" stroke="#666666" points="256,-54 107,-54 107,-24 256,-24 256,-54"/>
<text text-anchor="start" x="115" y="-42" font-family="Helvetica,sans-Serif" font-size="10.00">schemas.exercise_session.</text>
<text text-anchor="middle" x="181.5" y="-31" font-family="Helvetica,sans-Serif" font-size="10.00">SessaoDeTreinoBase</text>
</a>
</g>
</g>
<!-- Node3 -->
<g id="Node000003" class="node">
<title>Node3</title>
<g id="a_Node000003"><a xlink:href="classschemas_1_1exercise__session_1_1SessaoDeTreino.html" target="_top" xlink:title="Schema para representar uma sessão de treino lida da base de dados.">
<polygon fill="white" stroke="#666666" points="441,-78 292,-78 292,-48 441,-48 441,-78"/>
<text text-anchor="start" x="300" y="-66" font-family="Helvetica,sans-Serif" font-size="10.00">schemas.exercise_session.</text>
<text text-anchor="middle" x="366.5" y="-55" font-family="Helvetica,sans-Serif" font-size="10.00">SessaoDeTreino</text>
</a>
</g>
</g>
<!-- Node1&#45;&gt;Node3 -->
<g id="edge2_Node000001_Node000003" class="edge">
<title>Node1&#45;&gt;Node3</title>
<g id="a_edge2_Node000001_Node000003"><a xlink:title=" ">
<path fill="none" stroke="#63b8ff" d="M266.11,-49.97C274.65,-51.09 283.28,-52.22 291.71,-53.32"/>
<polygon fill="#63b8ff" stroke="#63b8ff" points="266.51,-46.49 256.14,-48.66 265.6,-53.43 266.51,-46.49"/>
</a>
</g>
</g>
<!-- Node4 -->
<g id="Node000004" class="node">
<title>Node4</title>
<g id="a_Node000004"><a xlink:href="classschemas_1_1exercise__session_1_1SessaoDeTreinoCreate.html" target="_top" xlink:title="Schema para validar os dados ao criar uma nova sessão de treino.">
<polygon fill="white" stroke="#666666" points="441,-30 292,-30 292,0 441,0 441,-30"/>
<text text-anchor="start" x="300" y="-18" font-family="Helvetica,sans-Serif" font-size="10.00">schemas.exercise_session.</text>
<text text-anchor="middle" x="366.5" y="-7" font-family="Helvetica,sans-Serif" font-size="10.00">SessaoDeTreinoCreate</text>
</a>
</g>
</g>
<!-- Node1&#45;&gt;Node4 -->
<g id="edge3_Node000001_Node000004" class="edge">
<title>Node1&#45;&gt;Node4</title>
<g id="a_edge3_Node000001_Node000004"><a xlink:title=" ">
<path fill="none" stroke="#63b8ff" d="M266.11,-28.03C274.65,-26.91 283.28,-25.78 291.71,-24.68"/>
<polygon fill="#63b8ff" stroke="#63b8ff" points="265.6,-24.57 256.14,-29.34 266.51,-31.51 265.6,-24.57"/>
</a>
</g>
</g>
<!-- Node2 -->
<g id="Node000002" class="node">
<title>Node2</title>
<g id="a_Node000002"><a xlink:title=" ">
<polygon fill="white" stroke="#bfbfbf" points="71,-48.5 0,-48.5 0,-29.5 71,-29.5 71,-48.5"/>
<text text-anchor="middle" x="35.5" y="-36.5" font-family="Helvetica,sans-Serif" font-size="10.00">BaseModel</text>
</a>
</g>
</g>
<!-- Node2&#45;&gt;Node1 -->
<g id="edge1_Node000001_Node000002" class="edge">
<title>Node2&#45;&gt;Node1</title>
<g id="a_edge1_Node000001_Node000002"><a xlink:title=" ">
<path fill="none" stroke="#63b8ff" d="M81.36,-39C89.52,-39 98.23,-39 106.96,-39"/>
<polygon fill="#63b8ff" stroke="#63b8ff" points="81.36,-35.5 71.36,-39 81.36,-42.5 81.36,-35.5"/>
</a>
</g>
</g>
</g>
</svg>
