<?xml version="1.0" encoding="UTF-8" standalone="no"?>
<!DOCTYPE svg PUBLIC "-//W3C//DTD SVG 1.1//EN"
 "http://www.w3.org/Graphics/SVG/1.1/DTD/svg11.dtd">
<!-- Generated by graphviz version 2.43.0 (0)
 -->
<!-- Title: models.progress_record.RegistroProgresso Pages: 1 -->
<svg width="475pt" height="182pt"
 viewBox="0.00 0.00 475.00 182.00" xmlns="http://www.w3.org/2000/svg" xmlns:xlink="http://www.w3.org/1999/xlink">

<svg id="main" version="1.1" xmlns="http://www.w3.org/2000/svg" xmlns:xlink="http://www.w3.org/1999/xlink" xml:space="preserve" onload="init(evt)">
<style type="text/css"><![CDATA[
.node, .edge {opacity: 0.7;}
.node.selected, .edge.selected {opacity: 1;}
.edge:hover path { stroke: red; }
.edge:hover polygon { stroke: red; fill: red; }
]]></style>
<script type="application/ecmascript" xlink:href="svg.min.js"/>
<svg id="graph" class="graph">
<g id="graph0" class="graph" transform="scale(1 1) rotate(0) translate(4 178)">
<title>models.progress_record.RegistroProgresso</title>
<!-- Node1 -->
<g id="Node000001" class="node">
<title>Node1</title>
<g id="a_Node000001"><a xlink:title="Modelo base para todos os tipos de registos de progresso.">
<polygon fill="#999999" stroke="#666666" points="254,-102 77,-102 77,-72 254,-72 254,-102"/>
<text text-anchor="start" x="85" y="-90" font-family="Helvetica,sans-Serif" font-size="10.00">models.progress_record.Registro</text>
<text text-anchor="middle" x="165.5" y="-79" font-family="Helvetica,sans-Serif" font-size="10.00">Progresso</text>
</a>
</g>
</g>
<!-- Node3 -->
<g id="Node000003" class="node">
<title>Node3</title>
<g id="a_Node000003"><a xlink:href="classmodels_1_1progress__record_1_1BodyMeasureRecord.html" target="_top" xlink:title="Modelo para Registos de Medidas Corporais, herdando de RegistroProgresso.">
<polygon fill="white" stroke="#666666" points="459,-174 298,-174 298,-144 459,-144 459,-174"/>
<text text-anchor="start" x="306" y="-162" font-family="Helvetica,sans-Serif" font-size="10.00">models.progress_record.Body</text>
<text text-anchor="middle" x="378.5" y="-151" font-family="Helvetica,sans-Serif" font-size="10.00">MeasureRecord</text>
</a>
</g>
</g>
<!-- Node1&#45;&gt;Node3 -->
<g id="edge2_Node000001_Node000003" class="edge">
<title>Node1&#45;&gt;Node3</title>
<g id="a_edge2_Node000001_Node000003"><a xlink:title=" ">
<path fill="none" stroke="#63b8ff" d="M211.91,-105.94C235.08,-115.27 263.82,-126.35 290,-135 299.42,-138.11 309.51,-141.15 319.36,-143.96"/>
<polygon fill="#63b8ff" stroke="#63b8ff" points="212.93,-102.58 202.35,-102.06 210.3,-109.07 212.93,-102.58"/>
</a>
</g>
</g>
<!-- Node4 -->
<g id="Node000004" class="node">
<title>Node4</title>
<g id="a_Node000004"><a xlink:href="classmodels_1_1progress__record_1_1CardioRecord.html" target="_top" xlink:title="Modelo para Registos de Exercício Cardiovascular, herdando de RegistroProgresso.">
<polygon fill="white" stroke="#666666" points="462.5,-126 294.5,-126 294.5,-96 462.5,-96 462.5,-126"/>
<text text-anchor="start" x="302.5" y="-114" font-family="Helvetica,sans-Serif" font-size="10.00">models.progress_record.Cardio</text>
<text text-anchor="middle" x="378.5" y="-103" font-family="Helvetica,sans-Serif" font-size="10.00">Record</text>
</a>
</g>
</g>
<!-- Node1&#45;&gt;Node4 -->
<g id="edge3_Node000001_Node000004" class="edge">
<title>Node1&#45;&gt;Node4</title>
<g id="a_edge3_Node000001_Node000004"><a xlink:title=" ">
<path fill="none" stroke="#63b8ff" d="M264.14,-98.11C274.18,-99.25 284.32,-100.4 294.18,-101.52"/>
<polygon fill="#63b8ff" stroke="#63b8ff" points="264.48,-94.62 254.15,-96.97 263.69,-101.58 264.48,-94.62"/>
</a>
</g>
</g>
<!-- Node5 -->
<g id="Node000005" class="node">
<title>Node5</title>
<g id="a_Node000005"><a xlink:href="classmodels_1_1progress__record_1_1RegistroImagemCorpo.html" target="_top" xlink:title="Modelo para Registos de Imagem Corporal, herdando de RegistroProgresso.">
<polygon fill="white" stroke="#666666" points="467,-78 290,-78 290,-48 467,-48 467,-78"/>
<text text-anchor="start" x="298" y="-66" font-family="Helvetica,sans-Serif" font-size="10.00">models.progress_record.Registro</text>
<text text-anchor="middle" x="378.5" y="-55" font-family="Helvetica,sans-Serif" font-size="10.00">ImagemCorpo</text>
</a>
</g>
</g>
<!-- Node1&#45;&gt;Node5 -->
<g id="edge4_Node000001_Node000005" class="edge">
<title>Node1&#45;&gt;Node5</title>
<g id="a_edge4_Node000001_Node000005"><a xlink:title=" ">
<path fill="none" stroke="#63b8ff" d="M264.14,-75.89C272.7,-74.92 281.32,-73.94 289.78,-72.98"/>
<polygon fill="#63b8ff" stroke="#63b8ff" points="263.69,-72.42 254.15,-77.03 264.48,-79.38 263.69,-72.42"/>
</a>
</g>
</g>
<!-- Node6 -->
<g id="Node000006" class="node">
<title>Node6</title>
<g id="a_Node000006"><a xlink:href="classmodels_1_1progress__record_1_1WeightRecord.html" target="_top" xlink:title="Modelo para Registos de Peso, herdando de RegistroProgresso.">
<polygon fill="white" stroke="#666666" points="463.5,-30 293.5,-30 293.5,0 463.5,0 463.5,-30"/>
<text text-anchor="start" x="301.5" y="-18" font-family="Helvetica,sans-Serif" font-size="10.00">models.progress_record.Weight</text>
<text text-anchor="middle" x="378.5" y="-7" font-family="Helvetica,sans-Serif" font-size="10.00">Record</text>
</a>
</g>
</g>
<!-- Node1&#45;&gt;Node6 -->
<g id="edge5_Node000001_Node000006" class="edge">
<title>Node1&#45;&gt;Node6</title>
<g id="a_edge5_Node000001_Node000006"><a xlink:title=" ">
<path fill="none" stroke="#63b8ff" d="M211.91,-68.06C235.08,-58.73 263.82,-47.65 290,-39 299.42,-35.89 309.51,-32.85 319.36,-30.04"/>
<polygon fill="#63b8ff" stroke="#63b8ff" points="210.3,-64.93 202.35,-71.94 212.93,-71.42 210.3,-64.93"/>
</a>
</g>
</g>
<!-- Node2 -->
<g id="Node000002" class="node">
<title>Node2</title>
<g id="a_Node000002"><a xlink:title=" ">
<polygon fill="white" stroke="#bfbfbf" points="41,-96.5 0,-96.5 0,-77.5 41,-77.5 41,-96.5"/>
<text text-anchor="middle" x="20.5" y="-84.5" font-family="Helvetica,sans-Serif" font-size="10.00">Base</text>
</a>
</g>
</g>
<!-- Node2&#45;&gt;Node1 -->
<g id="edge1_Node000001_Node000002" class="edge">
<title>Node2&#45;&gt;Node1</title>
<g id="a_edge1_Node000001_Node000002"><a xlink:title=" ">
<path fill="none" stroke="#63b8ff" d="M51.29,-87C59.03,-87 67.78,-87 76.89,-87"/>
<polygon fill="#63b8ff" stroke="#63b8ff" points="51.08,-83.5 41.08,-87 51.08,-90.5 51.08,-83.5"/>
</a>
</g>
</g>
</g>
</svg>
</svg>

<style type='text/css'>
<![CDATA[
[data-mouse-over-selected='false'] { opacity: 0.7; }
[data-mouse-over-selected='true']  { opacity: 1.0; }
]]>
</style>
<script type="application/ecmascript"><![CDATA[
document.addEventListener('DOMContentLoaded', (event) => {
  highlightEdges();
  highlightAdjacentNodes();
});
]]></script>
</svg>
