<?xml version="1.0" encoding="UTF-8" standalone="no"?>
<!DOCTYPE svg PUBLIC "-//W3C//DTD SVG 1.1//EN"
 "http://www.w3.org/Graphics/SVG/1.1/DTD/svg11.dtd">
<!-- Generated by graphviz version 2.43.0 (0)
 -->
<!-- Title: schemas.user.UserInDBBase Pages: 1 -->
<svg width="279pt" height="203pt"
 viewBox="0.00 0.00 278.50 203.00" xmlns="http://www.w3.org/2000/svg" xmlns:xlink="http://www.w3.org/1999/xlink">
<g id="graph0" class="graph" transform="scale(1 1) rotate(0) translate(4 199)">
<title>schemas.user.UserInDBBase</title>
<!-- Node1 -->
<g id="Node000001" class="node">
<title>Node1</title>
<g id="a_Node000001"><a xlink:title="Schema base para representar um utilizador lido da base de dados.">
<polygon fill="#999999" stroke="#666666" points="248.5,-19 92.5,-19 92.5,0 248.5,0 248.5,-19"/>
<text text-anchor="middle" x="170.5" y="-7" font-family="Helvetica,sans-Serif" font-size="10.00">schemas.user.UserInDBBase</text>
</a>
</g>
</g>
<!-- Node2 -->
<g id="Node000002" class="node">
<title>Node2</title>
<g id="a_Node000002"><a xlink:href="classschemas_1_1user_1_1UserBase.html" target="_top" xlink:title="Schema base que define os campos comuns e editáveis de um utilizador.">
<polygon fill="white" stroke="#666666" points="185,-85 52,-85 52,-66 185,-66 185,-85"/>
<text text-anchor="middle" x="118.5" y="-73" font-family="Helvetica,sans-Serif" font-size="10.00">schemas.user.UserBase</text>
</a>
</g>
</g>
<!-- Node2&#45;&gt;Node1 -->
<g id="edge1_Node000001_Node000002" class="edge">
<title>Node2&#45;&gt;Node1</title>
<g id="a_edge1_Node000001_Node000002"><a xlink:title=" ">
<path fill="none" stroke="#63b8ff" d="M132.1,-57.77C142.07,-45.49 155.23,-29.3 163.26,-19.41"/>
<polygon fill="#63b8ff" stroke="#63b8ff" points="129.1,-55.9 125.51,-65.87 134.54,-60.31 129.1,-55.9"/>
</a>
</g>
</g>
<!-- Node3 -->
<g id="Node000003" class="node">
<title>Node3</title>
<g id="a_Node000003"><a xlink:title=" ">
<polygon fill="white" stroke="#bfbfbf" points="71,-195 0,-195 0,-176 71,-176 71,-195"/>
<text text-anchor="middle" x="35.5" y="-183" font-family="Helvetica,sans-Serif" font-size="10.00">BaseModel</text>
</a>
</g>
</g>
<!-- Node3&#45;&gt;Node2 -->
<g id="edge2_Node000002_Node000003" class="edge">
<title>Node3&#45;&gt;Node2</title>
<g id="a_edge2_Node000002_Node000003"><a xlink:title=" ">
<path fill="none" stroke="#63b8ff" d="M48.42,-167.69C66.34,-144.37 98.1,-103.05 111.85,-85.16"/>
<polygon fill="#63b8ff" stroke="#63b8ff" points="45.61,-165.6 42.29,-175.66 51.16,-169.87 45.61,-165.6"/>
</a>
</g>
</g>
<!-- Node4 -->
<g id="Node000004" class="node">
<title>Node4</title>
<g id="a_Node000004"><a xlink:title=" ">
<polygon fill="white" stroke="#bfbfbf" points="147.5,-195 89.5,-195 89.5,-176 147.5,-176 147.5,-195"/>
<text text-anchor="middle" x="118.5" y="-183" font-family="Helvetica,sans-Serif" font-size="10.00">EmailStr</text>
</a>
</g>
</g>
<!-- Node4&#45;&gt;Node2 -->
<g id="edge3_Node000002_Node000004" class="edge">
<title>Node4&#45;&gt;Node2</title>
<g id="a_edge3_Node000002_Node000004"><a xlink:title=" ">
<path fill="none" stroke="#9a32cd" stroke-dasharray="5,2" d="M118.5,-165.48C118.5,-141.84 118.5,-102.5 118.5,-85.16"/>
<polygon fill="#9a32cd" stroke="#9a32cd" points="115,-165.66 118.5,-175.66 122,-165.66 115,-165.66"/>
</a>
</g>
<text text-anchor="middle" x="134" y="-128" font-family="Helvetica,sans-Serif" font-size="10.00" fill="grey"> email</text>
</g>
<!-- Node5 -->
<g id="Node000005" class="node">
<title>Node5</title>
<g id="a_Node000005"><a xlink:title=" ">
<polygon fill="white" stroke="#bfbfbf" points="223.5,-195 165.5,-195 165.5,-176 223.5,-176 223.5,-195"/>
<text text-anchor="middle" x="194.5" y="-183" font-family="Helvetica,sans-Serif" font-size="10.00">Optional</text>
</a>
</g>
</g>
<!-- Node5&#45;&gt;Node2 -->
<g id="edge4_Node000002_Node000005" class="edge">
<title>Node5&#45;&gt;Node2</title>
<g id="a_edge4_Node000002_Node000005"><a xlink:title=" ">
<path fill="none" stroke="#9a32cd" stroke-dasharray="5,2" d="M188.14,-166.33C181.4,-148.83 169.53,-122.25 153.5,-103 147.65,-95.97 139.59,-89.71 132.68,-85.04"/>
<polygon fill="#9a32cd" stroke="#9a32cd" points="184.92,-167.72 191.66,-175.9 191.49,-165.31 184.92,-167.72"/>
</a>
</g>
<text text-anchor="middle" x="228" y="-150" font-family="Helvetica,sans-Serif" font-size="10.00" fill="grey"> altura_cm</text>
<text text-anchor="middle" x="228" y="-139" font-family="Helvetica,sans-Serif" font-size="10.00" fill="grey">data_nascimento</text>
<text text-anchor="middle" x="228" y="-128" font-family="Helvetica,sans-Serif" font-size="10.00" fill="grey">nome</text>
<text text-anchor="middle" x="228" y="-117" font-family="Helvetica,sans-Serif" font-size="10.00" fill="grey">peso_kg</text>
<text text-anchor="middle" x="228" y="-106" font-family="Helvetica,sans-Serif" font-size="10.00" fill="grey">sexo</text>
</g>
<!-- Node6 -->
<g id="Node000006" class="node">
<title>Node6</title>
<g id="a_Node000006"><a xlink:title=" ">
<polygon fill="white" stroke="#bfbfbf" points="241.5,-85 203.5,-85 203.5,-66 241.5,-66 241.5,-85"/>
<text text-anchor="middle" x="222.5" y="-73" font-family="Helvetica,sans-Serif" font-size="10.00">uuid</text>
</a>
</g>
</g>
<!-- Node6&#45;&gt;Node1 -->
<g id="edge5_Node000001_Node000006" class="edge">
<title>Node6&#45;&gt;Node1</title>
<g id="a_edge5_Node000001_Node000006"><a xlink:title=" ">
<path fill="none" stroke="#9a32cd" stroke-dasharray="5,2" d="M208.9,-57.77C198.93,-45.49 185.77,-29.3 177.74,-19.41"/>
<polygon fill="#9a32cd" stroke="#9a32cd" points="206.46,-60.31 215.49,-65.87 211.9,-55.9 206.46,-60.31"/>
</a>
</g>
<text text-anchor="middle" x="206" y="-40" font-family="Helvetica,sans-Serif" font-size="10.00" fill="grey"> id</text>
</g>
</g>
</svg>
