<?xml version="1.0" encoding="UTF-8" standalone="no"?>
<!DOCTYPE svg PUBLIC "-//W3C//DTD SVG 1.1//EN"
 "http://www.w3.org/Graphics/SVG/1.1/DTD/svg11.dtd">
<!-- Generated by graphviz version 2.43.0 (0)
 -->
<!-- Title: schemas.progress_record.BodyMeasureRecord Pages: 1 -->
<svg width="288pt" height="182pt"
 viewBox="0.00 0.00 287.50 182.00" xmlns="http://www.w3.org/2000/svg" xmlns:xlink="http://www.w3.org/1999/xlink">
<g id="graph0" class="graph" transform="scale(1 1) rotate(0) translate(4 178)">
<title>schemas.progress_record.BodyMeasureRecord</title>
<!-- Node1 -->
<g id="Node000001" class="node">
<title>Node1</title>
<g id="a_Node000001"><a xlink:title="Schema para representar um registo de medida corporal lido da base de dados.">
<polygon fill="#999999" stroke="#666666" points="253,-30 109,-30 109,0 253,0 253,-30"/>
<text text-anchor="start" x="117" y="-18" font-family="Helvetica,sans-Serif" font-size="10.00">schemas.progress_record.</text>
<text text-anchor="middle" x="181" y="-7" font-family="Helvetica,sans-Serif" font-size="10.00">BodyMeasureRecord</text>
</a>
</g>
</g>
<!-- Node2 -->
<g id="Node000002" class="node">
<title>Node2</title>
<g id="a_Node000002"><a xlink:href="classschemas_1_1progress__record_1_1BodyMeasureRecordBase.html" target="_top" xlink:title="Schema base para um registo de medida corporal.">
<polygon fill="white" stroke="#666666" points="144,-118 0,-118 0,-88 144,-88 144,-118"/>
<text text-anchor="start" x="8" y="-106" font-family="Helvetica,sans-Serif" font-size="10.00">schemas.progress_record.</text>
<text text-anchor="middle" x="72" y="-95" font-family="Helvetica,sans-Serif" font-size="10.00">BodyMeasureRecordBase</text>
</a>
</g>
</g>
<!-- Node2&#45;&gt;Node1 -->
<g id="edge1_Node000001_Node000002" class="edge">
<title>Node2&#45;&gt;Node1</title>
<g id="a_edge1_Node000001_Node000002"><a xlink:title=" ">
<path fill="none" stroke="#63b8ff" d="M98.1,-81.4C118.14,-65.59 145.29,-44.17 162.97,-30.22"/>
<polygon fill="#63b8ff" stroke="#63b8ff" points="95.68,-78.86 90,-87.8 100.02,-84.35 95.68,-78.86"/>
</a>
</g>
</g>
<!-- Node3 -->
<g id="Node000003" class="node">
<title>Node3</title>
<g id="a_Node000003"><a xlink:title=" ">
<polygon fill="white" stroke="#bfbfbf" points="107.5,-174 36.5,-174 36.5,-155 107.5,-155 107.5,-174"/>
<text text-anchor="middle" x="72" y="-162" font-family="Helvetica,sans-Serif" font-size="10.00">BaseModel</text>
</a>
</g>
</g>
<!-- Node3&#45;&gt;Node2 -->
<g id="edge2_Node000002_Node000003" class="edge">
<title>Node3&#45;&gt;Node2</title>
<g id="a_edge2_Node000002_Node000003"><a xlink:title=" ">
<path fill="none" stroke="#63b8ff" d="M72,-144.73C72,-136.09 72,-126 72,-118.02"/>
<polygon fill="#63b8ff" stroke="#63b8ff" points="68.5,-144.98 72,-154.98 75.5,-144.98 68.5,-144.98"/>
</a>
</g>
</g>
<!-- Node4 -->
<g id="Node000004" class="node">
<title>Node4</title>
<g id="a_Node000004"><a xlink:title=" ">
<polygon fill="white" stroke="#bfbfbf" points="200,-112.5 162,-112.5 162,-93.5 200,-93.5 200,-112.5"/>
<text text-anchor="middle" x="181" y="-100.5" font-family="Helvetica,sans-Serif" font-size="10.00">uuid</text>
</a>
</g>
</g>
<!-- Node4&#45;&gt;Node1 -->
<g id="edge3_Node000001_Node000004" class="edge">
<title>Node4&#45;&gt;Node1</title>
<g id="a_edge3_Node000001_Node000004"><a xlink:title=" ">
<path fill="none" stroke="#9a32cd" stroke-dasharray="5,2" d="M181,-83.19C181,-67.23 181,-44.68 181,-30.2"/>
<polygon fill="#9a32cd" stroke="#9a32cd" points="177.5,-83.44 181,-93.44 184.5,-83.44 177.5,-83.44"/>
</a>
</g>
<text text-anchor="middle" x="199" y="-62" font-family="Helvetica,sans-Serif" font-size="10.00" fill="grey"> id</text>
<text text-anchor="middle" x="199" y="-51" font-family="Helvetica,sans-Serif" font-size="10.00" fill="grey">user_id</text>
</g>
<!-- Node5 -->
<g id="Node000005" class="node">
<title>Node5</title>
<g id="a_Node000005"><a xlink:title=" ">
<polygon fill="white" stroke="#bfbfbf" points="279.5,-112.5 218.5,-112.5 218.5,-93.5 279.5,-93.5 279.5,-112.5"/>
<text text-anchor="middle" x="249" y="-100.5" font-family="Helvetica,sans-Serif" font-size="10.00">datetime</text>
</a>
</g>
</g>
<!-- Node5&#45;&gt;Node1 -->
<g id="edge4_Node000001_Node000005" class="edge">
<title>Node5&#45;&gt;Node1</title>
<g id="a_edge4_Node000001_Node000005"><a xlink:title=" ">
<path fill="none" stroke="#9a32cd" stroke-dasharray="5,2" d="M241.86,-83.81C237,-72.77 229.83,-58.76 221,-48 215.58,-41.4 208.6,-35.25 202,-30.14"/>
<polygon fill="#9a32cd" stroke="#9a32cd" points="238.74,-85.41 245.81,-93.3 245.2,-82.72 238.74,-85.41"/>
</a>
</g>
<text text-anchor="middle" x="246.5" y="-56.5" font-family="Helvetica,sans-Serif" font-size="10.00" fill="grey"> data</text>
</g>
</g>
</svg>
