<?xml version="1.0" encoding="UTF-8" standalone="no"?>
<!DOCTYPE svg PUBLIC "-//W3C//DTD SVG 1.1//EN"
 "http://www.w3.org/Graphics/SVG/1.1/DTD/svg11.dtd">
<!-- Generated by graphviz version 2.43.0 (0)
 -->
<!-- Title: schemas.exercicio.ExercicioUpdate Pages: 1 -->
<svg width="185pt" height="171pt"
 viewBox="0.00 0.00 185.00 171.00" xmlns="http://www.w3.org/2000/svg" xmlns:xlink="http://www.w3.org/1999/xlink">
<g id="graph0" class="graph" transform="scale(1 1) rotate(0) translate(4 167)">
<title>schemas.exercicio.ExercicioUpdate</title>
<!-- Node1 -->
<g id="Node000001" class="node">
<title>Node1</title>
<g id="a_Node000001"><a xlink:title="Schema usado para validar os dados ao atualizar um exercício existente.">
<polygon fill="#999999" stroke="#666666" points="165,-30 12,-30 12,0 165,0 165,-30"/>
<text text-anchor="start" x="20" y="-18" font-family="Helvetica,sans-Serif" font-size="10.00">schemas.exercicio.Exercicio</text>
<text text-anchor="middle" x="88.5" y="-7" font-family="Helvetica,sans-Serif" font-size="10.00">Update</text>
</a>
</g>
</g>
<!-- Node2 -->
<g id="Node000002" class="node">
<title>Node2</title>
<g id="a_Node000002"><a xlink:href="classschemas_1_1exercicio_1_1ExercicioBase.html" target="_top" xlink:title="Schema base que define os campos comuns de um exercício.">
<polygon fill="white" stroke="#666666" points="177,-86 0,-86 0,-67 177,-67 177,-86"/>
<text text-anchor="middle" x="88.5" y="-74" font-family="Helvetica,sans-Serif" font-size="10.00">schemas.exercicio.ExercicioBase</text>
</a>
</g>
</g>
<!-- Node2&#45;&gt;Node1 -->
<g id="edge1_Node000001_Node000002" class="edge">
<title>Node2&#45;&gt;Node1</title>
<g id="a_edge1_Node000001_Node000002"><a xlink:title=" ">
<path fill="none" stroke="#63b8ff" d="M88.5,-56.73C88.5,-48.09 88.5,-38 88.5,-30.02"/>
<polygon fill="#63b8ff" stroke="#63b8ff" points="85,-56.98 88.5,-66.98 92,-56.98 85,-56.98"/>
</a>
</g>
</g>
<!-- Node3 -->
<g id="Node000003" class="node">
<title>Node3</title>
<g id="a_Node000003"><a xlink:title=" ">
<polygon fill="white" stroke="#bfbfbf" points="83,-163 12,-163 12,-144 83,-144 83,-163"/>
<text text-anchor="middle" x="47.5" y="-151" font-family="Helvetica,sans-Serif" font-size="10.00">BaseModel</text>
</a>
</g>
</g>
<!-- Node3&#45;&gt;Node2 -->
<g id="edge2_Node000002_Node000003" class="edge">
<title>Node3&#45;&gt;Node2</title>
<g id="a_edge2_Node000002_Node000003"><a xlink:title=" ">
<path fill="none" stroke="#63b8ff" d="M57.14,-134.86C65.56,-119.47 77.39,-97.82 83.85,-86"/>
<polygon fill="#63b8ff" stroke="#63b8ff" points="53.93,-133.44 52.2,-143.9 60.07,-136.8 53.93,-133.44"/>
</a>
</g>
</g>
<!-- Node4 -->
<g id="Node000004" class="node">
<title>Node4</title>
<g id="a_Node000004"><a xlink:title=" ">
<polygon fill="white" stroke="#bfbfbf" points="159.5,-163 101.5,-163 101.5,-144 159.5,-144 159.5,-163"/>
<text text-anchor="middle" x="130.5" y="-151" font-family="Helvetica,sans-Serif" font-size="10.00">Optional</text>
</a>
</g>
</g>
<!-- Node4&#45;&gt;Node2 -->
<g id="edge3_Node000002_Node000004" class="edge">
<title>Node4&#45;&gt;Node2</title>
<g id="a_edge3_Node000002_Node000004"><a xlink:title=" ">
<path fill="none" stroke="#9a32cd" stroke-dasharray="5,2" d="M120.62,-134.86C112,-119.47 99.88,-97.82 93.26,-86"/>
<polygon fill="#9a32cd" stroke="#9a32cd" points="117.74,-136.88 125.68,-143.9 123.85,-133.46 117.74,-136.88"/>
</a>
</g>
<text text-anchor="middle" x="139" y="-118" font-family="Helvetica,sans-Serif" font-size="10.00" fill="grey"> descricao</text>
<text text-anchor="middle" x="139" y="-107" font-family="Helvetica,sans-Serif" font-size="10.00" fill="grey">instrucoes</text>
</g>
</g>
</svg>
