<?xml version="1.0" encoding="UTF-8" standalone="no"?>
<!DOCTYPE svg PUBLIC "-//W3C//DTD SVG 1.1//EN"
 "http://www.w3.org/Graphics/SVG/1.1/DTD/svg11.dtd">
<!-- Generated by graphviz version 2.43.0 (0)
 -->
<!-- Title: schemas.progress_record.CardioRecordBase Pages: 1 -->
<svg width="203pt" height="126pt"
 viewBox="0.00 0.00 202.50 126.00" xmlns="http://www.w3.org/2000/svg" xmlns:xlink="http://www.w3.org/1999/xlink">
<g id="graph0" class="graph" transform="scale(1 1) rotate(0) translate(4 122)">
<title>schemas.progress_record.CardioRecordBase</title>
<!-- Node1 -->
<g id="Node000001" class="node">
<title>Node1</title>
<g id="a_Node000001"><a xlink:title="Schema base para um registo de exercício cardiovascular.">
<polygon fill="#999999" stroke="#666666" points="148.5,-30 4.5,-30 4.5,0 148.5,0 148.5,-30"/>
<text text-anchor="start" x="12.5" y="-18" font-family="Helvetica,sans-Serif" font-size="10.00">schemas.progress_record.</text>
<text text-anchor="middle" x="76.5" y="-7" font-family="Helvetica,sans-Serif" font-size="10.00">CardioRecordBase</text>
</a>
</g>
</g>
<!-- Node2 -->
<g id="Node000002" class="node">
<title>Node2</title>
<g id="a_Node000002"><a xlink:title=" ">
<polygon fill="white" stroke="#bfbfbf" points="71,-118 0,-118 0,-99 71,-99 71,-118"/>
<text text-anchor="middle" x="35.5" y="-106" font-family="Helvetica,sans-Serif" font-size="10.00">BaseModel</text>
</a>
</g>
</g>
<!-- Node2&#45;&gt;Node1 -->
<g id="edge1_Node000001_Node000002" class="edge">
<title>Node2&#45;&gt;Node1</title>
<g id="a_edge1_Node000001_Node000002"><a xlink:title=" ">
<path fill="none" stroke="#63b8ff" d="M43.72,-89.16C51.49,-71.8 63.01,-46.11 70.12,-30.25"/>
<polygon fill="#63b8ff" stroke="#63b8ff" points="40.33,-88.17 39.43,-98.73 46.71,-91.03 40.33,-88.17"/>
</a>
</g>
</g>
<!-- Node3 -->
<g id="Node000003" class="node">
<title>Node3</title>
<g id="a_Node000003"><a xlink:title=" ">
<polygon fill="white" stroke="#bfbfbf" points="147.5,-118 89.5,-118 89.5,-99 147.5,-99 147.5,-118"/>
<text text-anchor="middle" x="118.5" y="-106" font-family="Helvetica,sans-Serif" font-size="10.00">Optional</text>
</a>
</g>
</g>
<!-- Node3&#45;&gt;Node1 -->
<g id="edge2_Node000001_Node000003" class="edge">
<title>Node3&#45;&gt;Node1</title>
<g id="a_edge2_Node000001_Node000003"><a xlink:title=" ">
<path fill="none" stroke="#9a32cd" stroke-dasharray="5,2" d="M110.08,-89.16C102.12,-71.8 90.32,-46.11 83.04,-30.25"/>
<polygon fill="#9a32cd" stroke="#9a32cd" points="107.12,-91.1 114.47,-98.73 113.48,-88.18 107.12,-91.1"/>
</a>
</g>
<text text-anchor="middle" x="150" y="-73" font-family="Helvetica,sans-Serif" font-size="10.00" fill="grey"> calorias</text>
<text text-anchor="middle" x="150" y="-62" font-family="Helvetica,sans-Serif" font-size="10.00" fill="grey">distancia_km</text>
<text text-anchor="middle" x="150" y="-51" font-family="Helvetica,sans-Serif" font-size="10.00" fill="grey">tipo_equipamento</text>
</g>
</g>
</svg>
