<?xml version="1.0" encoding="UTF-8" standalone="no"?>
<!DOCTYPE svg PUBLIC "-//W3C//DTD SVG 1.1//EN"
 "http://www.w3.org/Graphics/SVG/1.1/DTD/svg11.dtd">
<!-- Generated by graphviz version 2.43.0 (0)
 -->
<!-- Title: schemas.exercicio.Exercicio Pages: 1 -->
<svg width="241pt" height="170pt"
 viewBox="0.00 0.00 240.50 170.00" xmlns="http://www.w3.org/2000/svg" xmlns:xlink="http://www.w3.org/1999/xlink">
<g id="graph0" class="graph" transform="scale(1 1) rotate(0) translate(4 166)">
<title>schemas.exercicio.Exercicio</title>
<!-- Node1 -->
<g id="Node000001" class="node">
<title>Node1</title>
<g id="a_Node000001"><a xlink:title="Schema usado para representar um exercício lido da base de dados.">
<polygon fill="#999999" stroke="#666666" points="227,-19 74,-19 74,0 227,0 227,-19"/>
<text text-anchor="middle" x="150.5" y="-7" font-family="Helvetica,sans-Serif" font-size="10.00">schemas.exercicio.Exercicio</text>
</a>
</g>
</g>
<!-- Node2 -->
<g id="Node000002" class="node">
<title>Node2</title>
<g id="a_Node000002"><a xlink:href="classschemas_1_1exercicio_1_1ExercicioBase.html" target="_top" xlink:title="Schema base que define os campos comuns de um exercício.">
<polygon fill="white" stroke="#666666" points="177,-85 0,-85 0,-66 177,-66 177,-85"/>
<text text-anchor="middle" x="88.5" y="-73" font-family="Helvetica,sans-Serif" font-size="10.00">schemas.exercicio.ExercicioBase</text>
</a>
</g>
</g>
<!-- Node2&#45;&gt;Node1 -->
<g id="edge1_Node000001_Node000002" class="edge">
<title>Node2&#45;&gt;Node1</title>
<g id="a_edge1_Node000001_Node000002"><a xlink:title=" ">
<path fill="none" stroke="#63b8ff" d="M104.02,-58.48C115.99,-46.12 132.1,-29.49 141.87,-19.41"/>
<polygon fill="#63b8ff" stroke="#63b8ff" points="101.31,-56.25 96.86,-65.87 106.33,-61.12 101.31,-56.25"/>
</a>
</g>
</g>
<!-- Node3 -->
<g id="Node000003" class="node">
<title>Node3</title>
<g id="a_Node000003"><a xlink:title=" ">
<polygon fill="white" stroke="#bfbfbf" points="83,-162 12,-162 12,-143 83,-143 83,-162"/>
<text text-anchor="middle" x="47.5" y="-150" font-family="Helvetica,sans-Serif" font-size="10.00">BaseModel</text>
</a>
</g>
</g>
<!-- Node3&#45;&gt;Node2 -->
<g id="edge2_Node000002_Node000003" class="edge">
<title>Node3&#45;&gt;Node2</title>
<g id="a_edge2_Node000002_Node000003"><a xlink:title=" ">
<path fill="none" stroke="#63b8ff" d="M57.14,-133.86C65.56,-118.47 77.39,-96.82 83.85,-85"/>
<polygon fill="#63b8ff" stroke="#63b8ff" points="53.93,-132.44 52.2,-142.9 60.07,-135.8 53.93,-132.44"/>
</a>
</g>
</g>
<!-- Node4 -->
<g id="Node000004" class="node">
<title>Node4</title>
<g id="a_Node000004"><a xlink:title=" ">
<polygon fill="white" stroke="#bfbfbf" points="159.5,-162 101.5,-162 101.5,-143 159.5,-143 159.5,-162"/>
<text text-anchor="middle" x="130.5" y="-150" font-family="Helvetica,sans-Serif" font-size="10.00">Optional</text>
</a>
</g>
</g>
<!-- Node4&#45;&gt;Node2 -->
<g id="edge3_Node000002_Node000004" class="edge">
<title>Node4&#45;&gt;Node2</title>
<g id="a_edge3_Node000002_Node000004"><a xlink:title=" ">
<path fill="none" stroke="#9a32cd" stroke-dasharray="5,2" d="M120.62,-133.86C112,-118.47 99.88,-96.82 93.26,-85"/>
<polygon fill="#9a32cd" stroke="#9a32cd" points="117.74,-135.88 125.68,-142.9 123.85,-132.46 117.74,-135.88"/>
</a>
</g>
<text text-anchor="middle" x="140" y="-117" font-family="Helvetica,sans-Serif" font-size="10.00" fill="grey"> descricao</text>
<text text-anchor="middle" x="140" y="-106" font-family="Helvetica,sans-Serif" font-size="10.00" fill="grey">instrucoes</text>
</g>
<!-- Node5 -->
<g id="Node000005" class="node">
<title>Node5</title>
<g id="a_Node000005"><a xlink:title=" ">
<polygon fill="white" stroke="#bfbfbf" points="232.5,-85 194.5,-85 194.5,-66 232.5,-66 232.5,-85"/>
<text text-anchor="middle" x="213.5" y="-73" font-family="Helvetica,sans-Serif" font-size="10.00">uuid</text>
</a>
</g>
</g>
<!-- Node5&#45;&gt;Node1 -->
<g id="edge4_Node000001_Node000005" class="edge">
<title>Node5&#45;&gt;Node1</title>
<g id="a_edge4_Node000001_Node000005"><a xlink:title=" ">
<path fill="none" stroke="#9a32cd" stroke-dasharray="5,2" d="M197.73,-58.48C185.56,-46.12 169.19,-29.49 159.27,-19.41"/>
<polygon fill="#9a32cd" stroke="#9a32cd" points="195.49,-61.2 205,-65.87 200.48,-56.29 195.49,-61.2"/>
</a>
</g>
<text text-anchor="middle" x="192" y="-40" font-family="Helvetica,sans-Serif" font-size="10.00" fill="grey"> id</text>
</g>
</g>
</svg>
