<?xml version="1.0" encoding="UTF-8" standalone="no"?>
<!DOCTYPE svg PUBLIC "-//W3C//DTD SVG 1.1//EN"
 "http://www.w3.org/Graphics/SVG/1.1/DTD/svg11.dtd">
<!-- Generated by graphviz version 2.43.0 (0)
 -->
<!-- Title: schemas.progress_record.CardioRecordCreate Pages: 1 -->
<svg width="203pt" height="193pt"
 viewBox="0.00 0.00 202.50 193.00" xmlns="http://www.w3.org/2000/svg" xmlns:xlink="http://www.w3.org/1999/xlink">
<g id="graph0" class="graph" transform="scale(1 1) rotate(0) translate(4 189)">
<title>schemas.progress_record.CardioRecordCreate</title>
<!-- Node1 -->
<g id="Node000001" class="node">
<title>Node1</title>
<g id="a_Node000001"><a xlink:title="Schema para validar dados ao criar um novo registo de cardio.">
<polygon fill="#999999" stroke="#666666" points="148.5,-30 4.5,-30 4.5,0 148.5,0 148.5,-30"/>
<text text-anchor="start" x="12.5" y="-18" font-family="Helvetica,sans-Serif" font-size="10.00">schemas.progress_record.</text>
<text text-anchor="middle" x="76.5" y="-7" font-family="Helvetica,sans-Serif" font-size="10.00">CardioRecordCreate</text>
</a>
</g>
</g>
<!-- Node2 -->
<g id="Node000002" class="node">
<title>Node2</title>
<g id="a_Node000002"><a xlink:href="classschemas_1_1progress__record_1_1CardioRecordBase.html" target="_top" xlink:title="Schema base para um registo de exercício cardiovascular.">
<polygon fill="white" stroke="#666666" points="148.5,-97 4.5,-97 4.5,-67 148.5,-67 148.5,-97"/>
<text text-anchor="start" x="12.5" y="-85" font-family="Helvetica,sans-Serif" font-size="10.00">schemas.progress_record.</text>
<text text-anchor="middle" x="76.5" y="-74" font-family="Helvetica,sans-Serif" font-size="10.00">CardioRecordBase</text>
</a>
</g>
</g>
<!-- Node2&#45;&gt;Node1 -->
<g id="edge1_Node000001_Node000002" class="edge">
<title>Node2&#45;&gt;Node1</title>
<g id="a_edge1_Node000001_Node000002"><a xlink:title=" ">
<path fill="none" stroke="#63b8ff" d="M76.5,-56.61C76.5,-47.65 76.5,-37.82 76.5,-30.08"/>
<polygon fill="#63b8ff" stroke="#63b8ff" points="73,-56.9 76.5,-66.9 80,-56.9 73,-56.9"/>
</a>
</g>
</g>
<!-- Node3 -->
<g id="Node000003" class="node">
<title>Node3</title>
<g id="a_Node000003"><a xlink:title=" ">
<polygon fill="white" stroke="#bfbfbf" points="71,-185 0,-185 0,-166 71,-166 71,-185"/>
<text text-anchor="middle" x="35.5" y="-173" font-family="Helvetica,sans-Serif" font-size="10.00">BaseModel</text>
</a>
</g>
</g>
<!-- Node3&#45;&gt;Node2 -->
<g id="edge2_Node000002_Node000003" class="edge">
<title>Node3&#45;&gt;Node2</title>
<g id="a_edge2_Node000002_Node000003"><a xlink:title=" ">
<path fill="none" stroke="#63b8ff" d="M43.72,-156.16C51.49,-138.8 63.01,-113.11 70.12,-97.25"/>
<polygon fill="#63b8ff" stroke="#63b8ff" points="40.33,-155.17 39.43,-165.73 46.71,-158.03 40.33,-155.17"/>
</a>
</g>
</g>
<!-- Node4 -->
<g id="Node000004" class="node">
<title>Node4</title>
<g id="a_Node000004"><a xlink:title=" ">
<polygon fill="white" stroke="#bfbfbf" points="147.5,-185 89.5,-185 89.5,-166 147.5,-166 147.5,-185"/>
<text text-anchor="middle" x="118.5" y="-173" font-family="Helvetica,sans-Serif" font-size="10.00">Optional</text>
</a>
</g>
</g>
<!-- Node4&#45;&gt;Node2 -->
<g id="edge3_Node000002_Node000004" class="edge">
<title>Node4&#45;&gt;Node2</title>
<g id="a_edge3_Node000002_Node000004"><a xlink:title=" ">
<path fill="none" stroke="#9a32cd" stroke-dasharray="5,2" d="M110.08,-156.16C102.12,-138.8 90.32,-113.11 83.04,-97.25"/>
<polygon fill="#9a32cd" stroke="#9a32cd" points="107.12,-158.1 114.47,-165.73 113.48,-155.18 107.12,-158.1"/>
</a>
</g>
<text text-anchor="middle" x="150" y="-140" font-family="Helvetica,sans-Serif" font-size="10.00" fill="grey"> calorias</text>
<text text-anchor="middle" x="150" y="-129" font-family="Helvetica,sans-Serif" font-size="10.00" fill="grey">distancia_km</text>
<text text-anchor="middle" x="150" y="-118" font-family="Helvetica,sans-Serif" font-size="10.00" fill="grey">tipo_equipamento</text>
</g>
</g>
</svg>
