<?xml version="1.0" encoding="UTF-8" standalone="no"?>
<!DOCTYPE svg PUBLIC "-//W3C//DTD SVG 1.1//EN"
 "http://www.w3.org/Graphics/SVG/1.1/DTD/svg11.dtd">
<!-- Generated by graphviz version 2.43.0 (0)
 -->
<!-- Title: schemas.user.UserBase Pages: 1 -->
<svg width="486pt" height="192pt"
 viewBox="0.00 0.00 485.50 192.00" xmlns="http://www.w3.org/2000/svg" xmlns:xlink="http://www.w3.org/1999/xlink">

<svg id="main" version="1.1" xmlns="http://www.w3.org/2000/svg" xmlns:xlink="http://www.w3.org/1999/xlink" xml:space="preserve" onload="init(evt)">
<style type="text/css"><![CDATA[
.node, .edge {opacity: 0.7;}
.node.selected, .edge.selected {opacity: 1;}
.edge:hover path { stroke: red; }
.edge:hover polygon { stroke: red; fill: red; }
]]></style>
<script type="application/ecmascript" xlink:href="svg.min.js"/>
<svg id="graph" class="graph">
<g id="graph0" class="graph" transform="scale(1 1) rotate(0) translate(4 188)">
<title>schemas.user.UserBase</title>
<!-- Node1 -->
<g id="Node000001" class="node">
<title>Node1</title>
<g id="a_Node000001"><a xlink:title="Schema base que define os campos comuns e editáveis de um utilizador.">
<polygon fill="#999999" stroke="#666666" points="304,-129 171,-129 171,-110 304,-110 304,-129"/>
<text text-anchor="middle" x="237.5" y="-117" font-family="Helvetica,sans-Serif" font-size="10.00">schemas.user.UserBase</text>
</a>
</g>
</g>
<!-- Node3 -->
<g id="Node000003" class="node">
<title>Node3</title>
<g id="a_Node000003"><a xlink:href="classschemas_1_1user_1_1UserCreate.html" target="_top" xlink:title="Schema para validar os dados ao criar um novo utilizador.">
<polygon fill="white" stroke="#666666" points="141,-74 0,-74 0,-55 141,-55 141,-74"/>
<text text-anchor="middle" x="70.5" y="-62" font-family="Helvetica,sans-Serif" font-size="10.00">schemas.user.UserCreate</text>
</a>
</g>
</g>
<!-- Node1&#45;&gt;Node3 -->
<g id="edge2_Node000001_Node000003" class="edge">
<title>Node1&#45;&gt;Node3</title>
<g id="a_edge2_Node000001_Node000003"><a xlink:title=" ">
<path fill="none" stroke="#63b8ff" d="M201.04,-106.93C169.84,-97.03 125.66,-83.01 97.54,-74.08"/>
<polygon fill="#63b8ff" stroke="#63b8ff" points="200.08,-110.3 210.67,-109.98 202.2,-103.62 200.08,-110.3"/>
</a>
</g>
</g>
<!-- Node4 -->
<g id="Node000004" class="node">
<title>Node4</title>
<g id="a_Node000004"><a xlink:href="classschemas_1_1user_1_1UserInDBBase.html" target="_top" xlink:title="Schema base para representar um utilizador lido da base de dados.">
<polygon fill="white" stroke="#666666" points="315.5,-74 159.5,-74 159.5,-55 315.5,-55 315.5,-74"/>
<text text-anchor="middle" x="237.5" y="-62" font-family="Helvetica,sans-Serif" font-size="10.00">schemas.user.UserInDBBase</text>
</a>
</g>
</g>
<!-- Node1&#45;&gt;Node4 -->
<g id="edge3_Node000001_Node000004" class="edge">
<title>Node1&#45;&gt;Node4</title>
<g id="a_edge3_Node000001_Node000004"><a xlink:title=" ">
<path fill="none" stroke="#63b8ff" d="M237.5,-99.66C237.5,-90.93 237.5,-80.99 237.5,-74.09"/>
<polygon fill="#63b8ff" stroke="#63b8ff" points="234,-99.75 237.5,-109.75 241,-99.75 234,-99.75"/>
</a>
</g>
</g>
<!-- Node6 -->
<g id="Node000006" class="node">
<title>Node6</title>
<g id="a_Node000006"><a xlink:href="classschemas_1_1user_1_1UserUpdate.html" target="_top" xlink:title="Schema para validar os dados ao atualizar um utilizador existente.">
<polygon fill="white" stroke="#666666" points="477.5,-74 333.5,-74 333.5,-55 477.5,-55 477.5,-74"/>
<text text-anchor="middle" x="405.5" y="-62" font-family="Helvetica,sans-Serif" font-size="10.00">schemas.user.UserUpdate</text>
</a>
</g>
</g>
<!-- Node1&#45;&gt;Node6 -->
<g id="edge5_Node000001_Node000006" class="edge">
<title>Node1&#45;&gt;Node6</title>
<g id="a_edge5_Node000001_Node000006"><a xlink:title=" ">
<path fill="none" stroke="#63b8ff" d="M274.18,-106.93C305.56,-97.03 350.01,-83.01 378.3,-74.08"/>
<polygon fill="#63b8ff" stroke="#63b8ff" points="272.98,-103.64 264.49,-109.98 275.08,-110.31 272.98,-103.64"/>
</a>
</g>
</g>
<!-- Node2 -->
<g id="Node000002" class="node">
<title>Node2</title>
<g id="a_Node000002"><a xlink:title=" ">
<polygon fill="white" stroke="#bfbfbf" points="273,-184 202,-184 202,-165 273,-165 273,-184"/>
<text text-anchor="middle" x="237.5" y="-172" font-family="Helvetica,sans-Serif" font-size="10.00">BaseModel</text>
</a>
</g>
</g>
<!-- Node2&#45;&gt;Node1 -->
<g id="edge1_Node000001_Node000002" class="edge">
<title>Node2&#45;&gt;Node1</title>
<g id="a_edge1_Node000001_Node000002"><a xlink:title=" ">
<path fill="none" stroke="#63b8ff" d="M237.5,-154.66C237.5,-145.93 237.5,-135.99 237.5,-129.09"/>
<polygon fill="#63b8ff" stroke="#63b8ff" points="234,-154.75 237.5,-164.75 241,-154.75 234,-154.75"/>
</a>
</g>
</g>
<!-- Node5 -->
<g id="Node000005" class="node">
<title>Node5</title>
<g id="a_Node000005"><a xlink:href="classschemas_1_1user_1_1User.html" target="_top" xlink:title="Schema principal usado para retornar os dados de um utilizador na API.">
<polygon fill="white" stroke="#666666" points="292,-19 183,-19 183,0 292,0 292,-19"/>
<text text-anchor="middle" x="237.5" y="-7" font-family="Helvetica,sans-Serif" font-size="10.00">schemas.user.User</text>
</a>
</g>
</g>
<!-- Node4&#45;&gt;Node5 -->
<g id="edge4_Node000004_Node000005" class="edge">
<title>Node4&#45;&gt;Node5</title>
<g id="a_edge4_Node000004_Node000005"><a xlink:title=" ">
<path fill="none" stroke="#63b8ff" d="M237.5,-44.66C237.5,-35.93 237.5,-25.99 237.5,-19.09"/>
<polygon fill="#63b8ff" stroke="#63b8ff" points="234,-44.75 237.5,-54.75 241,-44.75 234,-44.75"/>
</a>
</g>
</g>
</g>
</svg>
</svg>

<style type='text/css'>
<![CDATA[
[data-mouse-over-selected='false'] { opacity: 0.7; }
[data-mouse-over-selected='true']  { opacity: 1.0; }
]]>
</style>
<script type="application/ecmascript"><![CDATA[
document.addEventListener('DOMContentLoaded', (event) => {
  highlightEdges();
  highlightAdjacentNodes();
});
]]></script>
</svg>
