<?xml version="1.0" encoding="UTF-8" standalone="no"?>
<!DOCTYPE svg PUBLIC "-//W3C//DTD SVG 1.1//EN"
 "http://www.w3.org/Graphics/SVG/1.1/DTD/svg11.dtd">
<!-- Generated by graphviz version 2.43.0 (0)
 -->
<!-- Title: schemas.exercise_session.ItemSessao Pages: 1 -->
<svg width="407pt" height="258pt"
 viewBox="0.00 0.00 407.00 258.00" xmlns="http://www.w3.org/2000/svg" xmlns:xlink="http://www.w3.org/1999/xlink">
<g id="graph0" class="graph" transform="scale(1 1) rotate(0) translate(4 254)">
<title>schemas.exercise_session.ItemSessao</title>
<!-- Node1 -->
<g id="Node000001" class="node">
<title>Node1</title>
<g id="a_Node000001"><a xlink:title="Schema para representar um item de sessão lido da base de dados.">
<polygon fill="#999999" stroke="#666666" points="305,-30 156,-30 156,0 305,0 305,-30"/>
<text text-anchor="start" x="164" y="-18" font-family="Helvetica,sans-Serif" font-size="10.00">schemas.exercise_session.</text>
<text text-anchor="middle" x="230.5" y="-7" font-family="Helvetica,sans-Serif" font-size="10.00">ItemSessao</text>
</a>
</g>
</g>
<!-- Node2 -->
<g id="Node000002" class="node">
<title>Node2</title>
<g id="a_Node000002"><a xlink:href="classschemas_1_1exercise__session_1_1ItemSessaoBase.html" target="_top" xlink:title="Schema base para um item de uma sessão de treino.">
<polygon fill="white" stroke="#666666" points="399,-173 250,-173 250,-143 399,-143 399,-173"/>
<text text-anchor="start" x="258" y="-161" font-family="Helvetica,sans-Serif" font-size="10.00">schemas.exercise_session.</text>
<text text-anchor="middle" x="324.5" y="-150" font-family="Helvetica,sans-Serif" font-size="10.00">ItemSessaoBase</text>
</a>
</g>
</g>
<!-- Node2&#45;&gt;Node1 -->
<g id="edge1_Node000001_Node000002" class="edge">
<title>Node2&#45;&gt;Node1</title>
<g id="a_edge1_Node000001_Node000002"><a xlink:title=" ">
<path fill="none" stroke="#63b8ff" d="M309.58,-134.62C290.09,-105.38 256.51,-55.02 240.1,-30.4"/>
<polygon fill="#63b8ff" stroke="#63b8ff" points="306.68,-136.59 315.14,-142.96 312.51,-132.7 306.68,-136.59"/>
</a>
</g>
</g>
<!-- Node3 -->
<g id="Node000003" class="node">
<title>Node3</title>
<g id="a_Node000003"><a xlink:title=" ">
<polygon fill="white" stroke="#bfbfbf" points="188,-250 117,-250 117,-231 188,-231 188,-250"/>
<text text-anchor="middle" x="152.5" y="-238" font-family="Helvetica,sans-Serif" font-size="10.00">BaseModel</text>
</a>
</g>
</g>
<!-- Node3&#45;&gt;Node2 -->
<g id="edge2_Node000002_Node000003" class="edge">
<title>Node3&#45;&gt;Node2</title>
<g id="a_edge2_Node000002_Node000003"><a xlink:title=" ">
<path fill="none" stroke="#63b8ff" d="M166.14,-223.52C176.05,-212.86 190.34,-199.32 205.5,-191 219.29,-183.44 234.96,-177.58 250.31,-173.07"/>
<polygon fill="#63b8ff" stroke="#63b8ff" points="163.53,-221.19 159.47,-230.97 168.75,-225.85 163.53,-221.19"/>
</a>
</g>
</g>
<!-- Node7 -->
<g id="Node000007" class="node">
<title>Node7</title>
<g id="a_Node000007"><a xlink:href="classschemas_1_1exercicio_1_1ExercicioBase.html" target="_top" xlink:title="Schema base que define os campos comuns de um exercício.">
<polygon fill="white" stroke="#666666" points="177,-167.5 0,-167.5 0,-148.5 177,-148.5 177,-167.5"/>
<text text-anchor="middle" x="88.5" y="-155.5" font-family="Helvetica,sans-Serif" font-size="10.00">schemas.exercicio.ExercicioBase</text>
</a>
</g>
</g>
<!-- Node3&#45;&gt;Node7 -->
<g id="edge7_Node000007_Node000003" class="edge">
<title>Node3&#45;&gt;Node7</title>
<g id="a_edge7_Node000007_Node000003"><a xlink:title=" ">
<path fill="none" stroke="#63b8ff" d="M139.4,-223.03C126.1,-206.3 106.02,-181.03 95.49,-167.8"/>
<polygon fill="#63b8ff" stroke="#63b8ff" points="136.69,-225.24 145.65,-230.89 142.17,-220.88 136.69,-225.24"/>
</a>
</g>
</g>
<!-- Node4 -->
<g id="Node000004" class="node">
<title>Node4</title>
<g id="a_Node000004"><a xlink:title=" ">
<polygon fill="white" stroke="#bfbfbf" points="282.5,-250 224.5,-250 224.5,-231 282.5,-231 282.5,-250"/>
<text text-anchor="middle" x="253.5" y="-238" font-family="Helvetica,sans-Serif" font-size="10.00">Optional</text>
</a>
</g>
</g>
<!-- Node4&#45;&gt;Node2 -->
<g id="edge3_Node000002_Node000004" class="edge">
<title>Node4&#45;&gt;Node2</title>
<g id="a_edge3_Node000002_Node000004"><a xlink:title=" ">
<path fill="none" stroke="#9a32cd" stroke-dasharray="5,2" d="M277.99,-225.28C283.13,-221.67 288.26,-217.51 292.5,-213 303.55,-201.25 312.52,-185.04 318.12,-173.45"/>
<polygon fill="#9a32cd" stroke="#9a32cd" points="275.96,-222.43 269.51,-230.84 279.8,-228.29 275.96,-222.43"/>
</a>
</g>
<text text-anchor="middle" x="339" y="-199.5" font-family="Helvetica,sans-Serif" font-size="10.00" fill="grey"> feedback_ia</text>
</g>
<!-- Node4&#45;&gt;Node7 -->
<g id="edge8_Node000007_Node000004" class="edge">
<title>Node4&#45;&gt;Node7</title>
<g id="a_edge8_Node000007_Node000004"><a xlink:title=" ">
<path fill="none" stroke="#9a32cd" stroke-dasharray="5,2" d="M226.49,-226.32C192.44,-209.71 134.85,-181.61 106.03,-167.55"/>
<polygon fill="#9a32cd" stroke="#9a32cd" points="225.32,-229.65 235.84,-230.89 228.39,-223.35 225.32,-229.65"/>
</a>
</g>
<text text-anchor="middle" x="221" y="-205" font-family="Helvetica,sans-Serif" font-size="10.00" fill="grey"> descricao</text>
<text text-anchor="middle" x="221" y="-194" font-family="Helvetica,sans-Serif" font-size="10.00" fill="grey">instrucoes</text>
</g>
<!-- Node5 -->
<g id="Node000005" class="node">
<title>Node5</title>
<g id="a_Node000005"><a xlink:title=" ">
<polygon fill="white" stroke="#bfbfbf" points="232.5,-167.5 194.5,-167.5 194.5,-148.5 232.5,-148.5 232.5,-167.5"/>
<text text-anchor="middle" x="213.5" y="-155.5" font-family="Helvetica,sans-Serif" font-size="10.00">uuid</text>
</a>
</g>
</g>
<!-- Node5&#45;&gt;Node1 -->
<g id="edge4_Node000001_Node000005" class="edge">
<title>Node5&#45;&gt;Node1</title>
<g id="a_edge4_Node000001_Node000005"><a xlink:title=" ">
<path fill="none" stroke="#9a32cd" stroke-dasharray="5,2" d="M215.76,-138.24C219.22,-109.58 225.73,-55.57 228.81,-30.04"/>
<polygon fill="#9a32cd" stroke="#9a32cd" points="212.29,-137.83 214.56,-148.18 219.24,-138.67 212.29,-137.83"/>
</a>
</g>
<text text-anchor="middle" x="230" y="-84" font-family="Helvetica,sans-Serif" font-size="10.00" fill="grey"> id</text>
</g>
<!-- Node6 -->
<g id="Node000006" class="node">
<title>Node6</title>
<g id="a_Node000006"><a xlink:href="classschemas_1_1exercicio_1_1Exercicio.html" target="_top" xlink:title="Schema usado para representar um exercício lido da base de dados.">
<polygon fill="white" stroke="#666666" points="194,-96 41,-96 41,-77 194,-77 194,-96"/>
<text text-anchor="middle" x="117.5" y="-84" font-family="Helvetica,sans-Serif" font-size="10.00">schemas.exercicio.Exercicio</text>
</a>
</g>
</g>
<!-- Node5&#45;&gt;Node6 -->
<g id="edge9_Node000006_Node000005" class="edge">
<title>Node5&#45;&gt;Node6</title>
<g id="a_edge9_Node000006_Node000005"><a xlink:title=" ">
<path fill="none" stroke="#9a32cd" stroke-dasharray="5,2" d="M193.57,-142.57C174.19,-128.54 145.4,-107.7 129.37,-96.09"/>
<polygon fill="#9a32cd" stroke="#9a32cd" points="191.58,-145.45 201.73,-148.48 195.68,-139.78 191.58,-145.45"/>
</a>
</g>
<text text-anchor="middle" x="175" y="-117" font-family="Helvetica,sans-Serif" font-size="10.00" fill="grey"> id</text>
</g>
<!-- Node6&#45;&gt;Node1 -->
<g id="edge5_Node000001_Node000006" class="edge">
<title>Node6&#45;&gt;Node1</title>
<g id="a_edge5_Node000001_Node000006"><a xlink:title=" ">
<path fill="none" stroke="#9a32cd" stroke-dasharray="5,2" d="M136.45,-70.84C146.12,-63.62 158.19,-54.99 169.5,-48 179.67,-41.71 191.2,-35.45 201.48,-30.16"/>
<polygon fill="#9a32cd" stroke="#9a32cd" points="134.2,-68.16 128.35,-76.99 138.43,-73.74 134.2,-68.16"/>
</a>
</g>
<text text-anchor="middle" x="193" y="-51" font-family="Helvetica,sans-Serif" font-size="10.00" fill="grey"> exercicio</text>
</g>
<!-- Node7&#45;&gt;Node6 -->
<g id="edge6_Node000006_Node000007" class="edge">
<title>Node7&#45;&gt;Node6</title>
<g id="a_edge6_Node000006_Node000007"><a xlink:title=" ">
<path fill="none" stroke="#63b8ff" d="M96,-139.03C101.76,-125.22 109.47,-106.76 113.91,-96.09"/>
<polygon fill="#63b8ff" stroke="#63b8ff" points="92.68,-137.9 92.06,-148.48 99.14,-140.6 92.68,-137.9"/>
</a>
</g>
</g>
</g>
</svg>
