<?xml version="1.0" encoding="UTF-8" standalone="no"?>
<!DOCTYPE svg PUBLIC "-//W3C//DTD SVG 1.1//EN"
 "http://www.w3.org/Graphics/SVG/1.1/DTD/svg11.dtd">
<!-- Generated by graphviz version 2.43.0 (0)
 -->
<!-- Title: Graphical Class Hierarchy Pages: 1 -->
<svg width="646pt" height="908pt"
 viewBox="0.00 0.00 646.00 907.50" xmlns="http://www.w3.org/2000/svg" xmlns:xlink="http://www.w3.org/1999/xlink">
<g id="graph0" class="graph" transform="scale(1 1) rotate(0) translate(4 903.5)">
<title>Graphical Class Hierarchy</title>
<!-- Node0 -->
<g id="Node000000" class="node">
<title>Node0</title>
<g id="a_Node000000"><a xlink:title=" ">
<polygon fill="#e0e0e0" stroke="#999999" points="71,-472 0,-472 0,-453 71,-453 71,-472"/>
<text text-anchor="middle" x="35.5" y="-460" font-family="Helvetica,sans-Serif" font-size="10.00">BaseModel</text>
</a>
</g>
</g>
<!-- Node1 -->
<g id="Node000001" class="node">
<title>Node1</title>
<g id="a_Node000001"><a xlink:href="classapi_1_1v1_1_1endpoints_1_1ai__generator_1_1PlanRequest.html" target="_top" xlink:title="Schema para a requisição de geração de plano de treino.">
<polygon fill="white" stroke="#666666" points="261.5,-899.5 129.5,-899.5 129.5,-869.5 261.5,-869.5 261.5,-899.5"/>
<text text-anchor="start" x="137.5" y="-887.5" font-family="Helvetica,sans-Serif" font-size="10.00">api.v1.endpoints.ai</text>
<text text-anchor="middle" x="195.5" y="-876.5" font-family="Helvetica,sans-Serif" font-size="10.00">_generator.PlanRequest</text>
</a>
</g>
</g>
<!-- Node0&#45;&gt;Node1 -->
<g id="edge11_Node000000_Node000001" class="edge">
<title>Node0&#45;&gt;Node1</title>
<g id="a_edge11_Node000000_Node000001"><a xlink:title=" ">
<path fill="none" stroke="#63b8ff" d="M37.28,-482.15C40.53,-554.37 55.39,-803.89 107,-860.5 113.16,-867.25 121.01,-872.18 129.49,-875.75"/>
<polygon fill="#63b8ff" stroke="#63b8ff" points="40.77,-481.98 36.85,-472.14 33.78,-482.28 40.77,-481.98"/>
</a>
</g>
</g>
<!-- Node2 -->
<g id="Node000002" class="node">
<title>Node2</title>
<g id="a_Node000002"><a xlink:href="classapi_1_1v1_1_1endpoints_1_1ai__generator_1_1PlanResponse.html" target="_top" xlink:title="Schema para a resposta do plano de treino gerado.">
<polygon fill="white" stroke="#666666" points="265.5,-851.5 125.5,-851.5 125.5,-821.5 265.5,-821.5 265.5,-851.5"/>
<text text-anchor="start" x="133.5" y="-839.5" font-family="Helvetica,sans-Serif" font-size="10.00">api.v1.endpoints.ai</text>
<text text-anchor="middle" x="195.5" y="-828.5" font-family="Helvetica,sans-Serif" font-size="10.00">_generator.PlanResponse</text>
</a>
</g>
</g>
<!-- Node0&#45;&gt;Node2 -->
<g id="edge12_Node000000_Node000002" class="edge">
<title>Node0&#45;&gt;Node2</title>
<g id="a_edge12_Node000000_Node000002"><a xlink:title=" ">
<path fill="none" stroke="#63b8ff" d="M37.81,-482.31C42.62,-548.97 61.42,-763.67 107,-812.5 112.16,-818.03 118.46,-822.33 125.29,-825.66"/>
<polygon fill="#63b8ff" stroke="#63b8ff" points="41.3,-482.02 37.12,-472.29 34.32,-482.51 41.3,-482.02"/>
</a>
</g>
</g>
<!-- Node3 -->
<g id="Node000003" class="node">
<title>Node3</title>
<g id="a_Node000003"><a xlink:href="classapi_1_1v1_1_1endpoints_1_1ai__generator_1_1TipResponse.html" target="_top" xlink:title="Schema para a resposta da dica diária.">
<polygon fill="white" stroke="#666666" points="262.5,-803.5 128.5,-803.5 128.5,-773.5 262.5,-773.5 262.5,-803.5"/>
<text text-anchor="start" x="136.5" y="-791.5" font-family="Helvetica,sans-Serif" font-size="10.00">api.v1.endpoints.ai</text>
<text text-anchor="middle" x="195.5" y="-780.5" font-family="Helvetica,sans-Serif" font-size="10.00">_generator.TipResponse</text>
</a>
</g>
</g>
<!-- Node0&#45;&gt;Node3 -->
<g id="edge13_Node000000_Node000003" class="edge">
<title>Node0&#45;&gt;Node3</title>
<g id="a_edge13_Node000000_Node000003"><a xlink:title=" ">
<path fill="none" stroke="#63b8ff" d="M38.5,-482.28C44.98,-542.72 67.37,-723.32 107,-764.5 113.01,-770.74 120.47,-775.41 128.49,-778.89"/>
<polygon fill="#63b8ff" stroke="#63b8ff" points="41.96,-481.75 37.44,-472.16 35,-482.47 41.96,-481.75"/>
</a>
</g>
</g>
<!-- Node4 -->
<g id="Node000004" class="node">
<title>Node4</title>
<g id="a_Node000004"><a xlink:href="classapi_1_1v1_1_1endpoints_1_1auth_1_1GoogleToken.html" target="_top" xlink:title="Schema para a requisição de login com o token do Google.">
<polygon fill="white" stroke="#666666" points="275.5,-755.5 115.5,-755.5 115.5,-725.5 275.5,-725.5 275.5,-755.5"/>
<text text-anchor="start" x="123.5" y="-743.5" font-family="Helvetica,sans-Serif" font-size="10.00">api.v1.endpoints.auth.Google</text>
<text text-anchor="middle" x="195.5" y="-732.5" font-family="Helvetica,sans-Serif" font-size="10.00">Token</text>
</a>
</g>
</g>
<!-- Node0&#45;&gt;Node4 -->
<g id="edge14_Node000000_Node000004" class="edge">
<title>Node0&#45;&gt;Node4</title>
<g id="a_edge14_Node000000_Node000004"><a xlink:title=" ">
<path fill="none" stroke="#63b8ff" d="M35.85,-482.37C35.44,-529.89 41.28,-650.98 107,-716.5 110.46,-719.95 114.36,-722.91 118.55,-725.46"/>
<polygon fill="#63b8ff" stroke="#63b8ff" points="39.36,-482.26 36.05,-472.19 32.36,-482.12 39.36,-482.26"/>
</a>
</g>
</g>
<!-- Node5 -->
<g id="Node000005" class="node">
<title>Node5</title>
<g id="a_Node000005"><a xlink:href="classapi_1_1v1_1_1endpoints_1_1exercises_1_1ExerciseRequest.html" target="_top" xlink:title="Schema para a requisição de análise de exercício.">
<polygon fill="white" stroke="#666666" points="270,-707.5 121,-707.5 121,-677.5 270,-677.5 270,-707.5"/>
<text text-anchor="start" x="129" y="-695.5" font-family="Helvetica,sans-Serif" font-size="10.00">api.v1.endpoints.exercises.</text>
<text text-anchor="middle" x="195.5" y="-684.5" font-family="Helvetica,sans-Serif" font-size="10.00">ExerciseRequest</text>
</a>
</g>
</g>
<!-- Node0&#45;&gt;Node5 -->
<g id="edge15_Node000000_Node000005" class="edge">
<title>Node0&#45;&gt;Node5</title>
<g id="a_edge15_Node000000_Node000005"><a xlink:title=" ">
<path fill="none" stroke="#63b8ff" d="M37.38,-482.45C40.3,-523.46 52.87,-617.63 107,-668.5 111.13,-672.38 115.83,-675.65 120.86,-678.39"/>
<polygon fill="#63b8ff" stroke="#63b8ff" points="40.87,-482.15 36.79,-472.38 33.88,-482.56 40.87,-482.15"/>
</a>
</g>
</g>
<!-- Node6 -->
<g id="Node000006" class="node">
<title>Node6</title>
<g id="a_Node000006"><a xlink:href="classschemas_1_1exercicio_1_1ExercicioBase.html" target="_top" xlink:title="Schema base que define os campos comuns de um exercício.">
<polygon fill="white" stroke="#666666" points="284,-659 107,-659 107,-640 284,-640 284,-659"/>
<text text-anchor="middle" x="195.5" y="-647" font-family="Helvetica,sans-Serif" font-size="10.00">schemas.exercicio.ExercicioBase</text>
</a>
</g>
</g>
<!-- Node0&#45;&gt;Node6 -->
<g id="edge16_Node000000_Node000006" class="edge">
<title>Node0&#45;&gt;Node6</title>
<g id="a_edge16_Node000000_Node000006"><a xlink:title=" ">
<path fill="none" stroke="#63b8ff" d="M38.89,-482.36C44.27,-517.84 60.69,-592 107,-630.5 111.54,-634.28 116.66,-637.35 122.09,-639.85"/>
<polygon fill="#63b8ff" stroke="#63b8ff" points="42.34,-481.72 37.51,-472.29 35.4,-482.68 42.34,-481.72"/>
</a>
</g>
</g>
<!-- Node10 -->
<g id="Node000010" class="node">
<title>Node10</title>
<g id="a_Node000010"><a xlink:href="classschemas_1_1exercise__session_1_1ItemSessaoBase.html" target="_top" xlink:title="Schema base para um item de uma sessão de treino.">
<polygon fill="white" stroke="#666666" points="270,-621.5 121,-621.5 121,-591.5 270,-591.5 270,-621.5"/>
<text text-anchor="start" x="129" y="-609.5" font-family="Helvetica,sans-Serif" font-size="10.00">schemas.exercise_session.</text>
<text text-anchor="middle" x="195.5" y="-598.5" font-family="Helvetica,sans-Serif" font-size="10.00">ItemSessaoBase</text>
</a>
</g>
</g>
<!-- Node0&#45;&gt;Node10 -->
<g id="edge20_Node000000_Node000010" class="edge">
<title>Node0&#45;&gt;Node10</title>
<g id="a_edge20_Node000000_Node000010"><a xlink:title=" ">
<path fill="none" stroke="#63b8ff" d="M42.71,-482.06C52.22,-508.79 72.94,-556.41 107,-582.5 111.5,-585.95 116.47,-588.9 121.68,-591.43"/>
<polygon fill="#63b8ff" stroke="#63b8ff" points="45.93,-480.66 39.42,-472.3 39.3,-482.9 45.93,-480.66"/>
</a>
</g>
</g>
<!-- Node13 -->
<g id="Node000013" class="node">
<title>Node13</title>
<g id="a_Node000013"><a xlink:href="classschemas_1_1exercise__session_1_1SessaoDeTreinoBase.html" target="_top" xlink:title="Schema base para uma sessão de treino, serve como base para outros schemas.">
<polygon fill="white" stroke="#666666" points="270,-573.5 121,-573.5 121,-543.5 270,-543.5 270,-573.5"/>
<text text-anchor="start" x="129" y="-561.5" font-family="Helvetica,sans-Serif" font-size="10.00">schemas.exercise_session.</text>
<text text-anchor="middle" x="195.5" y="-550.5" font-family="Helvetica,sans-Serif" font-size="10.00">SessaoDeTreinoBase</text>
</a>
</g>
</g>
<!-- Node0&#45;&gt;Node13 -->
<g id="edge23_Node000000_Node000013" class="edge">
<title>Node0&#45;&gt;Node13</title>
<g id="a_edge23_Node000000_Node000013"><a xlink:title=" ">
<path fill="none" stroke="#63b8ff" d="M49.37,-480.25C62.19,-496.67 83.34,-520.58 107,-534.5 112.84,-537.93 119.18,-540.89 125.7,-543.44"/>
<polygon fill="#63b8ff" stroke="#63b8ff" points="51.96,-477.87 43.14,-472 46.38,-482.09 51.96,-477.87"/>
</a>
</g>
</g>
<!-- Node16 -->
<g id="Node000016" class="node">
<title>Node16</title>
<g id="a_Node000016"><a xlink:href="classschemas_1_1ia__interaction_1_1RegistroInteracaoIABase.html" target="_top" xlink:title="Schema base que define os campos comuns de uma interação com a IA.">
<polygon fill="white" stroke="#666666" points="282,-525.5 109,-525.5 109,-495.5 282,-495.5 282,-525.5"/>
<text text-anchor="start" x="117" y="-513.5" font-family="Helvetica,sans-Serif" font-size="10.00">schemas.ia_interaction.Registro</text>
<text text-anchor="middle" x="195.5" y="-502.5" font-family="Helvetica,sans-Serif" font-size="10.00">InteracaoIABase</text>
</a>
</g>
</g>
<!-- Node0&#45;&gt;Node16 -->
<g id="edge26_Node000000_Node000016" class="edge">
<title>Node0&#45;&gt;Node16</title>
<g id="a_edge26_Node000000_Node000016"><a xlink:title=" ">
<path fill="none" stroke="#63b8ff" d="M73.11,-475.43C83.97,-479.14 95.93,-483.1 107,-486.5 116.79,-489.51 127.25,-492.53 137.4,-495.37"/>
<polygon fill="#63b8ff" stroke="#63b8ff" points="74.09,-472.07 63.49,-472.12 71.81,-478.68 74.09,-472.07"/>
</a>
</g>
</g>
<!-- Node19 -->
<g id="Node000019" class="node">
<title>Node19</title>
<g id="a_Node000019"><a xlink:href="classschemas_1_1progress__record_1_1BodyImageRecordBase.html" target="_top" xlink:title="Schema base para um registo de imagem corporal.">
<polygon fill="white" stroke="#666666" points="267.5,-477.5 123.5,-477.5 123.5,-447.5 267.5,-447.5 267.5,-477.5"/>
<text text-anchor="start" x="131.5" y="-465.5" font-family="Helvetica,sans-Serif" font-size="10.00">schemas.progress_record.</text>
<text text-anchor="middle" x="195.5" y="-454.5" font-family="Helvetica,sans-Serif" font-size="10.00">BodyImageRecordBase</text>
</a>
</g>
</g>
<!-- Node0&#45;&gt;Node19 -->
<g id="edge29_Node000000_Node000019" class="edge">
<title>Node0&#45;&gt;Node19</title>
<g id="a_edge29_Node000000_Node000019"><a xlink:title=" ">
<path fill="none" stroke="#63b8ff" d="M81.29,-462.5C94.37,-462.5 109,-462.5 123.28,-462.5"/>
<polygon fill="#63b8ff" stroke="#63b8ff" points="81.17,-459 71.17,-462.5 81.17,-466 81.17,-459"/>
</a>
</g>
</g>
<!-- Node22 -->
<g id="Node000022" class="node">
<title>Node22</title>
<g id="a_Node000022"><a xlink:href="classschemas_1_1progress__record_1_1BodyMeasureRecordBase.html" target="_top" xlink:title="Schema base para um registo de medida corporal.">
<polygon fill="white" stroke="#666666" points="267.5,-429.5 123.5,-429.5 123.5,-399.5 267.5,-399.5 267.5,-429.5"/>
<text text-anchor="start" x="131.5" y="-417.5" font-family="Helvetica,sans-Serif" font-size="10.00">schemas.progress_record.</text>
<text text-anchor="middle" x="195.5" y="-406.5" font-family="Helvetica,sans-Serif" font-size="10.00">BodyMeasureRecordBase</text>
</a>
</g>
</g>
<!-- Node0&#45;&gt;Node22 -->
<g id="edge32_Node000000_Node000022" class="edge">
<title>Node0&#45;&gt;Node22</title>
<g id="a_edge32_Node000000_Node000022"><a xlink:title=" ">
<path fill="none" stroke="#63b8ff" d="M73.11,-449.57C83.97,-445.86 95.93,-441.9 107,-438.5 116.79,-435.49 127.25,-432.47 137.4,-429.63"/>
<polygon fill="#63b8ff" stroke="#63b8ff" points="71.81,-446.32 63.49,-452.88 74.09,-452.93 71.81,-446.32"/>
</a>
</g>
</g>
<!-- Node25 -->
<g id="Node000025" class="node">
<title>Node25</title>
<g id="a_Node000025"><a xlink:href="classschemas_1_1progress__record_1_1CardioRecordBase.html" target="_top" xlink:title="Schema base para um registo de exercício cardiovascular.">
<polygon fill="white" stroke="#666666" points="267.5,-381.5 123.5,-381.5 123.5,-351.5 267.5,-351.5 267.5,-381.5"/>
<text text-anchor="start" x="131.5" y="-369.5" font-family="Helvetica,sans-Serif" font-size="10.00">schemas.progress_record.</text>
<text text-anchor="middle" x="195.5" y="-358.5" font-family="Helvetica,sans-Serif" font-size="10.00">CardioRecordBase</text>
</a>
</g>
</g>
<!-- Node0&#45;&gt;Node25 -->
<g id="edge35_Node000000_Node000025" class="edge">
<title>Node0&#45;&gt;Node25</title>
<g id="a_edge35_Node000000_Node000025"><a xlink:title=" ">
<path fill="none" stroke="#63b8ff" d="M49.37,-444.75C62.19,-428.33 83.34,-404.42 107,-390.5 112.84,-387.07 119.18,-384.11 125.7,-381.56"/>
<polygon fill="#63b8ff" stroke="#63b8ff" points="46.38,-442.91 43.14,-453 51.96,-447.13 46.38,-442.91"/>
</a>
</g>
</g>
<!-- Node28 -->
<g id="Node000028" class="node">
<title>Node28</title>
<g id="a_Node000028"><a xlink:href="classschemas_1_1progress__record_1_1OcrRequest.html" target="_top" xlink:title="Schema para a requisição de extração de dados por OCR a partir de uma imagem.">
<polygon fill="white" stroke="#666666" points="267.5,-333.5 123.5,-333.5 123.5,-303.5 267.5,-303.5 267.5,-333.5"/>
<text text-anchor="start" x="131.5" y="-321.5" font-family="Helvetica,sans-Serif" font-size="10.00">schemas.progress_record.</text>
<text text-anchor="middle" x="195.5" y="-310.5" font-family="Helvetica,sans-Serif" font-size="10.00">OcrRequest</text>
</a>
</g>
</g>
<!-- Node0&#45;&gt;Node28 -->
<g id="edge38_Node000000_Node000028" class="edge">
<title>Node0&#45;&gt;Node28</title>
<g id="a_edge38_Node000000_Node000028"><a xlink:title=" ">
<path fill="none" stroke="#63b8ff" d="M42.71,-442.94C52.22,-416.21 72.94,-368.59 107,-342.5 112,-338.67 117.58,-335.45 123.42,-332.74"/>
<polygon fill="#63b8ff" stroke="#63b8ff" points="39.3,-442.1 39.42,-452.7 45.93,-444.34 39.3,-442.1"/>
</a>
</g>
</g>
<!-- Node29 -->
<g id="Node000029" class="node">
<title>Node29</title>
<g id="a_Node000029"><a xlink:href="classschemas_1_1progress__record_1_1OcrResponse.html" target="_top" xlink:title="Schema para a resposta da extração de dados por OCR.">
<polygon fill="white" stroke="#666666" points="267.5,-285.5 123.5,-285.5 123.5,-255.5 267.5,-255.5 267.5,-285.5"/>
<text text-anchor="start" x="131.5" y="-273.5" font-family="Helvetica,sans-Serif" font-size="10.00">schemas.progress_record.</text>
<text text-anchor="middle" x="195.5" y="-262.5" font-family="Helvetica,sans-Serif" font-size="10.00">OcrResponse</text>
</a>
</g>
</g>
<!-- Node0&#45;&gt;Node29 -->
<g id="edge39_Node000000_Node000029" class="edge">
<title>Node0&#45;&gt;Node29</title>
<g id="a_edge39_Node000000_Node000029"><a xlink:title=" ">
<path fill="none" stroke="#63b8ff" d="M39.1,-442.88C44.81,-407.79 61.75,-334.24 107,-294.5 111.85,-290.24 117.4,-286.73 123.28,-283.83"/>
<polygon fill="#63b8ff" stroke="#63b8ff" points="35.63,-442.43 37.62,-452.83 42.55,-443.46 35.63,-442.43"/>
</a>
</g>
</g>
<!-- Node30 -->
<g id="Node000030" class="node">
<title>Node30</title>
<g id="a_Node000030"><a xlink:href="classschemas_1_1progress__record_1_1RegistroProgressoBase.html" target="_top" xlink:title="Schema base de referência para todos os registos de progresso.">
<polygon fill="white" stroke="#666666" points="267.5,-237.5 123.5,-237.5 123.5,-207.5 267.5,-207.5 267.5,-237.5"/>
<text text-anchor="start" x="131.5" y="-225.5" font-family="Helvetica,sans-Serif" font-size="10.00">schemas.progress_record.</text>
<text text-anchor="middle" x="195.5" y="-214.5" font-family="Helvetica,sans-Serif" font-size="10.00">RegistroProgressoBase</text>
</a>
</g>
</g>
<!-- Node0&#45;&gt;Node30 -->
<g id="edge40_Node000000_Node000030" class="edge">
<title>Node0&#45;&gt;Node30</title>
<g id="a_edge40_Node000000_Node000030"><a xlink:title=" ">
<path fill="none" stroke="#63b8ff" d="M37.02,-442.47C39.23,-399.99 50.51,-300.35 107,-246.5 111.79,-241.93 117.36,-238.22 123.33,-235.2"/>
<polygon fill="#63b8ff" stroke="#63b8ff" points="33.51,-442.5 36.61,-452.63 40.51,-442.78 33.51,-442.5"/>
</a>
</g>
</g>
<!-- Node31 -->
<g id="Node000031" class="node">
<title>Node31</title>
<g id="a_Node000031"><a xlink:href="classschemas_1_1progress__record_1_1WeightRecordBase.html" target="_top" xlink:title="Schema base para um registo de peso.">
<polygon fill="white" stroke="#666666" points="267.5,-189.5 123.5,-189.5 123.5,-159.5 267.5,-159.5 267.5,-189.5"/>
<text text-anchor="start" x="131.5" y="-177.5" font-family="Helvetica,sans-Serif" font-size="10.00">schemas.progress_record.</text>
<text text-anchor="middle" x="195.5" y="-166.5" font-family="Helvetica,sans-Serif" font-size="10.00">WeightRecordBase</text>
</a>
</g>
</g>
<!-- Node0&#45;&gt;Node31 -->
<g id="edge41_Node000000_Node000031" class="edge">
<title>Node0&#45;&gt;Node31</title>
<g id="a_edge41_Node000000_Node000031"><a xlink:title=" ">
<path fill="none" stroke="#63b8ff" d="M39.21,-442.73C47.15,-387.56 72.04,-233.69 107,-198.5 111.77,-193.69 117.41,-189.83 123.49,-186.72"/>
<polygon fill="#63b8ff" stroke="#63b8ff" points="35.7,-442.53 37.77,-452.92 42.63,-443.51 35.7,-442.53"/>
</a>
</g>
</g>
<!-- Node34 -->
<g id="Node000034" class="node">
<title>Node34</title>
<g id="a_Node000034"><a xlink:href="classschemas_1_1token_1_1Token.html" target="_top" xlink:title="Representa a estrutura do token de acesso que é retornado ao utilizador após o login.">
<polygon fill="white" stroke="#666666" points="256,-141 135,-141 135,-122 256,-122 256,-141"/>
<text text-anchor="middle" x="195.5" y="-129" font-family="Helvetica,sans-Serif" font-size="10.00">schemas.token.Token</text>
</a>
</g>
</g>
<!-- Node0&#45;&gt;Node34 -->
<g id="edge44_Node000000_Node000034" class="edge">
<title>Node0&#45;&gt;Node34</title>
<g id="a_edge44_Node000000_Node000034"><a xlink:title=" ">
<path fill="none" stroke="#63b8ff" d="M38.23,-442.77C44.04,-380.88 64.96,-192.19 107,-150.5 114.62,-142.95 124.48,-138.09 134.84,-135.01"/>
<polygon fill="#63b8ff" stroke="#63b8ff" points="34.73,-442.51 37.31,-452.79 41.71,-443.15 34.73,-442.51"/>
</a>
</g>
</g>
<!-- Node35 -->
<g id="Node000035" class="node">
<title>Node35</title>
<g id="a_Node000035"><a xlink:href="classschemas_1_1token_1_1TokenData.html" target="_top" xlink:title="Representa os dados (payload) codificados dentro de um token JWT.">
<polygon fill="white" stroke="#666666" points="267.5,-104 123.5,-104 123.5,-85 267.5,-85 267.5,-104"/>
<text text-anchor="middle" x="195.5" y="-92" font-family="Helvetica,sans-Serif" font-size="10.00">schemas.token.TokenData</text>
</a>
</g>
</g>
<!-- Node0&#45;&gt;Node35 -->
<g id="edge45_Node000000_Node000035" class="edge">
<title>Node0&#45;&gt;Node35</title>
<g id="a_edge45_Node000000_Node000035"><a xlink:title=" ">
<path fill="none" stroke="#63b8ff" d="M37.72,-442.65C42.24,-375.88 60.24,-160.94 107,-113.5 111.69,-108.74 117.28,-105.04 123.32,-102.18"/>
<polygon fill="#63b8ff" stroke="#63b8ff" points="34.23,-442.48 37.07,-452.69 41.21,-442.94 34.23,-442.48"/>
</a>
</g>
</g>
<!-- Node36 -->
<g id="Node000036" class="node">
<title>Node36</title>
<g id="a_Node000036"><a xlink:href="classschemas_1_1user_1_1UserBase.html" target="_top" xlink:title="Schema base que define os campos comuns e editáveis de um utilizador.">
<polygon fill="white" stroke="#666666" points="262,-62 129,-62 129,-43 262,-43 262,-62"/>
<text text-anchor="middle" x="195.5" y="-50" font-family="Helvetica,sans-Serif" font-size="10.00">schemas.user.UserBase</text>
</a>
</g>
</g>
<!-- Node0&#45;&gt;Node36 -->
<g id="edge46_Node000000_Node000036" class="edge">
<title>Node0&#45;&gt;Node36</title>
<g id="a_edge46_Node000000_Node000036"><a xlink:title=" ">
<path fill="none" stroke="#63b8ff" d="M37.41,-442.54C41.07,-371.33 56.97,-131.09 107,-76.5 112.96,-70 120.5,-65.19 128.64,-61.65"/>
<polygon fill="#63b8ff" stroke="#63b8ff" points="33.9,-442.64 36.91,-452.8 40.9,-442.98 33.9,-442.64"/>
</a>
</g>
</g>
<!-- Node7 -->
<g id="Node000007" class="node">
<title>Node7</title>
<g id="a_Node000007"><a xlink:href="classschemas_1_1exercicio_1_1Exercicio.html" target="_top" xlink:title="Schema usado para representar um exercício lido da base de dados.">
<polygon fill="white" stroke="#666666" points="483,-899 330,-899 330,-880 483,-880 483,-899"/>
<text text-anchor="middle" x="406.5" y="-887" font-family="Helvetica,sans-Serif" font-size="10.00">schemas.exercicio.Exercicio</text>
</a>
</g>
</g>
<!-- Node6&#45;&gt;Node7 -->
<g id="edge17_Node000006_Node000007" class="edge">
<title>Node6&#45;&gt;Node7</title>
<g id="a_edge17_Node000006_Node000007"><a xlink:title=" ">
<path fill="none" stroke="#63b8ff" d="M280.15,-664.91C281.49,-666.04 282.78,-667.23 284,-668.5 347.26,-734.18 256.9,-804.67 320,-870.5 323.58,-874.23 327.71,-877.31 332.2,-879.84"/>
<polygon fill="#63b8ff" stroke="#63b8ff" points="282.13,-662.03 271.91,-659.22 278.15,-667.79 282.13,-662.03"/>
</a>
</g>
</g>
<!-- Node8 -->
<g id="Node000008" class="node">
<title>Node8</title>
<g id="a_Node000008"><a xlink:href="classschemas_1_1exercicio_1_1ExercicioCreate.html" target="_top" xlink:title="Schema usado para validar os dados ao criar um novo exercício.">
<polygon fill="white" stroke="#666666" points="483,-861.5 330,-861.5 330,-831.5 483,-831.5 483,-861.5"/>
<text text-anchor="start" x="338" y="-849.5" font-family="Helvetica,sans-Serif" font-size="10.00">schemas.exercicio.Exercicio</text>
<text text-anchor="middle" x="406.5" y="-838.5" font-family="Helvetica,sans-Serif" font-size="10.00">Create</text>
</a>
</g>
</g>
<!-- Node6&#45;&gt;Node8 -->
<g id="edge18_Node000006_Node000008" class="edge">
<title>Node6&#45;&gt;Node8</title>
<g id="a_edge18_Node000006_Node000008"><a xlink:title=" ">
<path fill="none" stroke="#63b8ff" d="M279.93,-664.9C281.35,-666.03 282.71,-667.23 284,-668.5 334.09,-717.81 271.4,-771.72 320,-822.5 323.3,-825.95 327.06,-828.92 331.12,-831.47"/>
<polygon fill="#63b8ff" stroke="#63b8ff" points="281.56,-661.79 271.28,-659.22 277.72,-667.64 281.56,-661.79"/>
</a>
</g>
</g>
<!-- Node9 -->
<g id="Node000009" class="node">
<title>Node9</title>
<g id="a_Node000009"><a xlink:href="classschemas_1_1exercicio_1_1ExercicioUpdate.html" target="_top" xlink:title="Schema usado para validar os dados ao atualizar um exercício existente.">
<polygon fill="white" stroke="#666666" points="483,-813.5 330,-813.5 330,-783.5 483,-783.5 483,-813.5"/>
<text text-anchor="start" x="338" y="-801.5" font-family="Helvetica,sans-Serif" font-size="10.00">schemas.exercicio.Exercicio</text>
<text text-anchor="middle" x="406.5" y="-790.5" font-family="Helvetica,sans-Serif" font-size="10.00">Update</text>
</a>
</g>
</g>
<!-- Node6&#45;&gt;Node9 -->
<g id="edge19_Node000006_Node000009" class="edge">
<title>Node6&#45;&gt;Node9</title>
<g id="a_edge19_Node000006_Node000009"><a xlink:title=" ">
<path fill="none" stroke="#63b8ff" d="M278.5,-664.18C280.42,-665.51 282.26,-666.94 284,-668.5 321.12,-701.63 283.89,-740.28 320,-774.5 323.58,-777.89 327.6,-780.81 331.9,-783.33"/>
<polygon fill="#63b8ff" stroke="#63b8ff" points="280.03,-661.02 269.62,-659.02 276.51,-667.07 280.03,-661.02"/>
</a>
</g>
</g>
<!-- Node11 -->
<g id="Node000011" class="node">
<title>Node11</title>
<g id="a_Node000011"><a xlink:href="classschemas_1_1exercise__session_1_1ItemSessao.html" target="_top" xlink:title="Schema para representar um item de sessão lido da base de dados.">
<polygon fill="white" stroke="#666666" points="481,-765.5 332,-765.5 332,-735.5 481,-735.5 481,-765.5"/>
<text text-anchor="start" x="340" y="-753.5" font-family="Helvetica,sans-Serif" font-size="10.00">schemas.exercise_session.</text>
<text text-anchor="middle" x="406.5" y="-742.5" font-family="Helvetica,sans-Serif" font-size="10.00">ItemSessao</text>
</a>
</g>
</g>
<!-- Node10&#45;&gt;Node11 -->
<g id="edge21_Node000010_Node000011" class="edge">
<title>Node10&#45;&gt;Node11</title>
<g id="a_edge21_Node000010_Node000011"><a xlink:title=" ">
<path fill="none" stroke="#63b8ff" d="M278.64,-627.09C280.51,-628.47 282.3,-629.94 284,-631.5 317.24,-662.06 286.69,-696.02 320,-726.5 323.75,-729.93 327.96,-732.88 332.44,-735.41"/>
<polygon fill="#63b8ff" stroke="#63b8ff" points="280.34,-624.03 270.02,-621.63 276.59,-629.94 280.34,-624.03"/>
</a>
</g>
</g>
<!-- Node12 -->
<g id="Node000012" class="node">
<title>Node12</title>
<g id="a_Node000012"><a xlink:href="classschemas_1_1exercise__session_1_1ItemSessaoCreate.html" target="_top" xlink:title="Schema para validar os dados ao criar um novo item de sessão.">
<polygon fill="white" stroke="#666666" points="481,-717.5 332,-717.5 332,-687.5 481,-687.5 481,-717.5"/>
<text text-anchor="start" x="340" y="-705.5" font-family="Helvetica,sans-Serif" font-size="10.00">schemas.exercise_session.</text>
<text text-anchor="middle" x="406.5" y="-694.5" font-family="Helvetica,sans-Serif" font-size="10.00">ItemSessaoCreate</text>
</a>
</g>
</g>
<!-- Node10&#45;&gt;Node12 -->
<g id="edge22_Node000010_Node000012" class="edge">
<title>Node10&#45;&gt;Node12</title>
<g id="a_edge22_Node000010_Node000012"><a xlink:title=" ">
<path fill="none" stroke="#63b8ff" d="M274.9,-626.04C278.05,-627.71 281.1,-629.53 284,-631.5 305.75,-646.31 298.22,-663.74 320,-678.5 325.11,-681.96 330.7,-684.92 336.51,-687.46"/>
<polygon fill="#63b8ff" stroke="#63b8ff" points="276.29,-622.82 265.76,-621.68 273.28,-629.14 276.29,-622.82"/>
</a>
</g>
</g>
<!-- Node14 -->
<g id="Node000014" class="node">
<title>Node14</title>
<g id="a_Node000014"><a xlink:href="classschemas_1_1exercise__session_1_1SessaoDeTreino.html" target="_top" xlink:title="Schema para representar uma sessão de treino lida da base de dados.">
<polygon fill="white" stroke="#666666" points="481,-669.5 332,-669.5 332,-639.5 481,-639.5 481,-669.5"/>
<text text-anchor="start" x="340" y="-657.5" font-family="Helvetica,sans-Serif" font-size="10.00">schemas.exercise_session.</text>
<text text-anchor="middle" x="406.5" y="-646.5" font-family="Helvetica,sans-Serif" font-size="10.00">SessaoDeTreino</text>
</a>
</g>
</g>
<!-- Node13&#45;&gt;Node14 -->
<g id="edge24_Node000013_Node000014" class="edge">
<title>Node13&#45;&gt;Node14</title>
<g id="a_edge24_Node000013_Node000014"><a xlink:title=" ">
<path fill="none" stroke="#63b8ff" d="M276.57,-577.96C279.13,-579.37 281.62,-580.88 284,-582.5 306.05,-597.5 298,-615.43 320,-630.5 324.96,-633.9 330.39,-636.82 336.04,-639.32"/>
<polygon fill="#63b8ff" stroke="#63b8ff" points="278.1,-574.81 267.58,-573.55 275.01,-581.1 278.1,-574.81"/>
</a>
</g>
</g>
<!-- Node15 -->
<g id="Node000015" class="node">
<title>Node15</title>
<g id="a_Node000015"><a xlink:href="classschemas_1_1exercise__session_1_1SessaoDeTreinoCreate.html" target="_top" xlink:title="Schema para validar os dados ao criar uma nova sessão de treino.">
<polygon fill="white" stroke="#666666" points="481,-621.5 332,-621.5 332,-591.5 481,-591.5 481,-621.5"/>
<text text-anchor="start" x="340" y="-609.5" font-family="Helvetica,sans-Serif" font-size="10.00">schemas.exercise_session.</text>
<text text-anchor="middle" x="406.5" y="-598.5" font-family="Helvetica,sans-Serif" font-size="10.00">SessaoDeTreinoCreate</text>
</a>
</g>
</g>
<!-- Node13&#45;&gt;Node15 -->
<g id="edge25_Node000013_Node000015" class="edge">
<title>Node13&#45;&gt;Node15</title>
<g id="a_edge25_Node000013_Node000015"><a xlink:title=" ">
<path fill="none" stroke="#63b8ff" d="M271.84,-575.8C294.21,-580.94 318.51,-586.52 340.18,-591.5"/>
<polygon fill="#63b8ff" stroke="#63b8ff" points="272.59,-572.38 262.06,-573.56 271.02,-579.21 272.59,-572.38"/>
</a>
</g>
</g>
<!-- Node17 -->
<g id="Node000017" class="node">
<title>Node17</title>
<g id="a_Node000017"><a xlink:href="classschemas_1_1ia__interaction_1_1RegistroInteracaoIA.html" target="_top" xlink:title="Schema usado para representar um registo de interação lido da base de dados.">
<polygon fill="white" stroke="#666666" points="493,-573.5 320,-573.5 320,-543.5 493,-543.5 493,-573.5"/>
<text text-anchor="start" x="328" y="-561.5" font-family="Helvetica,sans-Serif" font-size="10.00">schemas.ia_interaction.Registro</text>
<text text-anchor="middle" x="406.5" y="-550.5" font-family="Helvetica,sans-Serif" font-size="10.00">InteracaoIA</text>
</a>
</g>
</g>
<!-- Node16&#45;&gt;Node17 -->
<g id="edge27_Node000016_Node000017" class="edge">
<title>Node16&#45;&gt;Node17</title>
<g id="a_edge27_Node000016_Node000017"><a xlink:title=" ">
<path fill="none" stroke="#63b8ff" d="M271.84,-527.8C294.21,-532.94 318.51,-538.52 340.18,-543.5"/>
<polygon fill="#63b8ff" stroke="#63b8ff" points="272.59,-524.38 262.06,-525.56 271.02,-531.21 272.59,-524.38"/>
</a>
</g>
</g>
<!-- Node18 -->
<g id="Node000018" class="node">
<title>Node18</title>
<g id="a_Node000018"><a xlink:href="classschemas_1_1ia__interaction_1_1RegistroInteracaoIACreate.html" target="_top" xlink:title="Schema usado para validar os dados ao criar um novo registo de interação.">
<polygon fill="white" stroke="#666666" points="493,-525.5 320,-525.5 320,-495.5 493,-495.5 493,-525.5"/>
<text text-anchor="start" x="328" y="-513.5" font-family="Helvetica,sans-Serif" font-size="10.00">schemas.ia_interaction.Registro</text>
<text text-anchor="middle" x="406.5" y="-502.5" font-family="Helvetica,sans-Serif" font-size="10.00">InteracaoIACreate</text>
</a>
</g>
</g>
<!-- Node16&#45;&gt;Node18 -->
<g id="edge28_Node000016_Node000018" class="edge">
<title>Node16&#45;&gt;Node18</title>
<g id="a_edge28_Node000016_Node000018"><a xlink:title=" ">
<path fill="none" stroke="#63b8ff" d="M292.35,-510.5C301.47,-510.5 310.67,-510.5 319.68,-510.5"/>
<polygon fill="#63b8ff" stroke="#63b8ff" points="292.11,-507 282.11,-510.5 292.11,-514 292.11,-507"/>
</a>
</g>
</g>
<!-- Node20 -->
<g id="Node000020" class="node">
<title>Node20</title>
<g id="a_Node000020"><a xlink:href="classschemas_1_1progress__record_1_1BodyImageRecord.html" target="_top" xlink:title="Schema para representar um registo de imagem corporal lido da base de dados.">
<polygon fill="white" stroke="#666666" points="478.5,-477.5 334.5,-477.5 334.5,-447.5 478.5,-447.5 478.5,-477.5"/>
<text text-anchor="start" x="342.5" y="-465.5" font-family="Helvetica,sans-Serif" font-size="10.00">schemas.progress_record.</text>
<text text-anchor="middle" x="406.5" y="-454.5" font-family="Helvetica,sans-Serif" font-size="10.00">BodyImageRecord</text>
</a>
</g>
</g>
<!-- Node19&#45;&gt;Node20 -->
<g id="edge30_Node000019_Node000020" class="edge">
<title>Node19&#45;&gt;Node20</title>
<g id="a_edge30_Node000019_Node000020"><a xlink:title=" ">
<path fill="none" stroke="#63b8ff" d="M277.78,-462.5C296.43,-462.5 316.11,-462.5 334.29,-462.5"/>
<polygon fill="#63b8ff" stroke="#63b8ff" points="277.55,-459 267.55,-462.5 277.55,-466 277.55,-459"/>
</a>
</g>
</g>
<!-- Node21 -->
<g id="Node000021" class="node">
<title>Node21</title>
<g id="a_Node000021"><a xlink:href="classschemas_1_1progress__record_1_1BodyImageRecordCreate.html" target="_top" xlink:title="Schema para validar dados ao criar um novo registo de imagem corporal.">
<polygon fill="white" stroke="#666666" points="478.5,-429.5 334.5,-429.5 334.5,-399.5 478.5,-399.5 478.5,-429.5"/>
<text text-anchor="start" x="342.5" y="-417.5" font-family="Helvetica,sans-Serif" font-size="10.00">schemas.progress_record.</text>
<text text-anchor="middle" x="406.5" y="-406.5" font-family="Helvetica,sans-Serif" font-size="10.00">BodyImageRecordCreate</text>
</a>
</g>
</g>
<!-- Node19&#45;&gt;Node21 -->
<g id="edge31_Node000019_Node000021" class="edge">
<title>Node19&#45;&gt;Node21</title>
<g id="a_edge31_Node000019_Node000021"><a xlink:title=" ">
<path fill="none" stroke="#63b8ff" d="M271.84,-445.2C294.21,-440.06 318.51,-434.48 340.18,-429.5"/>
<polygon fill="#63b8ff" stroke="#63b8ff" points="271.02,-441.79 262.06,-447.44 272.59,-448.62 271.02,-441.79"/>
</a>
</g>
</g>
<!-- Node23 -->
<g id="Node000023" class="node">
<title>Node23</title>
<g id="a_Node000023"><a xlink:href="classschemas_1_1progress__record_1_1BodyMeasureRecord.html" target="_top" xlink:title="Schema para representar um registo de medida corporal lido da base de dados.">
<polygon fill="white" stroke="#666666" points="478.5,-381.5 334.5,-381.5 334.5,-351.5 478.5,-351.5 478.5,-381.5"/>
<text text-anchor="start" x="342.5" y="-369.5" font-family="Helvetica,sans-Serif" font-size="10.00">schemas.progress_record.</text>
<text text-anchor="middle" x="406.5" y="-358.5" font-family="Helvetica,sans-Serif" font-size="10.00">BodyMeasureRecord</text>
</a>
</g>
</g>
<!-- Node22&#45;&gt;Node23 -->
<g id="edge33_Node000022_Node000023" class="edge">
<title>Node22&#45;&gt;Node23</title>
<g id="a_edge33_Node000022_Node000023"><a xlink:title=" ">
<path fill="none" stroke="#63b8ff" d="M271.84,-397.2C294.21,-392.06 318.51,-386.48 340.18,-381.5"/>
<polygon fill="#63b8ff" stroke="#63b8ff" points="271.02,-393.79 262.06,-399.44 272.59,-400.62 271.02,-393.79"/>
</a>
</g>
</g>
<!-- Node24 -->
<g id="Node000024" class="node">
<title>Node24</title>
<g id="a_Node000024"><a xlink:href="classschemas_1_1progress__record_1_1BodyMeasureRecordCreate.html" target="_top" xlink:title="Schema para validar dados ao criar um novo registo de medida corporal.">
<polygon fill="white" stroke="#666666" points="481,-333.5 332,-333.5 332,-303.5 481,-303.5 481,-333.5"/>
<text text-anchor="start" x="340" y="-321.5" font-family="Helvetica,sans-Serif" font-size="10.00">schemas.progress_record.</text>
<text text-anchor="middle" x="406.5" y="-310.5" font-family="Helvetica,sans-Serif" font-size="10.00">BodyMeasureRecordCreate</text>
</a>
</g>
</g>
<!-- Node22&#45;&gt;Node24 -->
<g id="edge34_Node000022_Node000024" class="edge">
<title>Node22&#45;&gt;Node24</title>
<g id="a_edge34_Node000022_Node000024"><a xlink:title=" ">
<path fill="none" stroke="#63b8ff" d="M276.57,-395.04C279.13,-393.63 281.62,-392.12 284,-390.5 306.05,-375.5 298,-357.57 320,-342.5 324.96,-339.1 330.39,-336.18 336.04,-333.68"/>
<polygon fill="#63b8ff" stroke="#63b8ff" points="275.01,-391.9 267.58,-399.45 278.1,-398.19 275.01,-391.9"/>
</a>
</g>
</g>
<!-- Node26 -->
<g id="Node000026" class="node">
<title>Node26</title>
<g id="a_Node000026"><a xlink:href="classschemas_1_1progress__record_1_1CardioRecord.html" target="_top" xlink:title="Schema para representar um registo de cardio lido da base de dados.">
<polygon fill="white" stroke="#666666" points="478.5,-285.5 334.5,-285.5 334.5,-255.5 478.5,-255.5 478.5,-285.5"/>
<text text-anchor="start" x="342.5" y="-273.5" font-family="Helvetica,sans-Serif" font-size="10.00">schemas.progress_record.</text>
<text text-anchor="middle" x="406.5" y="-262.5" font-family="Helvetica,sans-Serif" font-size="10.00">CardioRecord</text>
</a>
</g>
</g>
<!-- Node25&#45;&gt;Node26 -->
<g id="edge36_Node000025_Node000026" class="edge">
<title>Node25&#45;&gt;Node26</title>
<g id="a_edge36_Node000025_Node000026"><a xlink:title=" ">
<path fill="none" stroke="#63b8ff" d="M276.57,-347.04C279.13,-345.63 281.62,-344.12 284,-342.5 306.05,-327.5 298,-309.57 320,-294.5 324.96,-291.1 330.39,-288.18 336.04,-285.68"/>
<polygon fill="#63b8ff" stroke="#63b8ff" points="275.01,-343.9 267.58,-351.45 278.1,-350.19 275.01,-343.9"/>
</a>
</g>
</g>
<!-- Node27 -->
<g id="Node000027" class="node">
<title>Node27</title>
<g id="a_Node000027"><a xlink:href="classschemas_1_1progress__record_1_1CardioRecordCreate.html" target="_top" xlink:title="Schema para validar dados ao criar um novo registo de cardio.">
<polygon fill="white" stroke="#666666" points="478.5,-237.5 334.5,-237.5 334.5,-207.5 478.5,-207.5 478.5,-237.5"/>
<text text-anchor="start" x="342.5" y="-225.5" font-family="Helvetica,sans-Serif" font-size="10.00">schemas.progress_record.</text>
<text text-anchor="middle" x="406.5" y="-214.5" font-family="Helvetica,sans-Serif" font-size="10.00">CardioRecordCreate</text>
</a>
</g>
</g>
<!-- Node25&#45;&gt;Node27 -->
<g id="edge37_Node000025_Node000027" class="edge">
<title>Node25&#45;&gt;Node27</title>
<g id="a_edge37_Node000025_Node000027"><a xlink:title=" ">
<path fill="none" stroke="#63b8ff" d="M276.6,-348.29C279.21,-346.54 281.69,-344.61 284,-342.5 317.65,-311.78 286.44,-277.32 320,-246.5 324.32,-242.54 329.23,-239.22 334.48,-236.45"/>
<polygon fill="#63b8ff" stroke="#63b8ff" points="274.78,-345.31 267.89,-353.36 278.3,-351.36 274.78,-345.31"/>
</a>
</g>
</g>
<!-- Node32 -->
<g id="Node000032" class="node">
<title>Node32</title>
<g id="a_Node000032"><a xlink:href="classschemas_1_1progress__record_1_1WeightRecord.html" target="_top" xlink:title="Schema para representar um registo de peso lido da base de dados.">
<polygon fill="white" stroke="#666666" points="478.5,-189.5 334.5,-189.5 334.5,-159.5 478.5,-159.5 478.5,-189.5"/>
<text text-anchor="start" x="342.5" y="-177.5" font-family="Helvetica,sans-Serif" font-size="10.00">schemas.progress_record.</text>
<text text-anchor="middle" x="406.5" y="-166.5" font-family="Helvetica,sans-Serif" font-size="10.00">WeightRecord</text>
</a>
</g>
</g>
<!-- Node31&#45;&gt;Node32 -->
<g id="edge42_Node000031_Node000032" class="edge">
<title>Node31&#45;&gt;Node32</title>
<g id="a_edge42_Node000031_Node000032"><a xlink:title=" ">
<path fill="none" stroke="#63b8ff" d="M277.78,-174.5C296.43,-174.5 316.11,-174.5 334.29,-174.5"/>
<polygon fill="#63b8ff" stroke="#63b8ff" points="277.55,-171 267.55,-174.5 277.55,-178 277.55,-171"/>
</a>
</g>
</g>
<!-- Node33 -->
<g id="Node000033" class="node">
<title>Node33</title>
<g id="a_Node000033"><a xlink:href="classschemas_1_1progress__record_1_1WeightRecordCreate.html" target="_top" xlink:title="Schema para validar dados ao criar um novo registo de peso.">
<polygon fill="white" stroke="#666666" points="478.5,-141.5 334.5,-141.5 334.5,-111.5 478.5,-111.5 478.5,-141.5"/>
<text text-anchor="start" x="342.5" y="-129.5" font-family="Helvetica,sans-Serif" font-size="10.00">schemas.progress_record.</text>
<text text-anchor="middle" x="406.5" y="-118.5" font-family="Helvetica,sans-Serif" font-size="10.00">WeightRecordCreate</text>
</a>
</g>
</g>
<!-- Node31&#45;&gt;Node33 -->
<g id="edge43_Node000031_Node000033" class="edge">
<title>Node31&#45;&gt;Node33</title>
<g id="a_edge43_Node000031_Node000033"><a xlink:title=" ">
<path fill="none" stroke="#63b8ff" d="M271.84,-157.2C294.21,-152.06 318.51,-146.48 340.18,-141.5"/>
<polygon fill="#63b8ff" stroke="#63b8ff" points="271.02,-153.79 262.06,-159.44 272.59,-160.62 271.02,-153.79"/>
</a>
</g>
</g>
<!-- Node37 -->
<g id="Node000037" class="node">
<title>Node37</title>
<g id="a_Node000037"><a xlink:href="classschemas_1_1user_1_1UserCreate.html" target="_top" xlink:title="Schema para validar os dados ao criar um novo utilizador.">
<polygon fill="white" stroke="#666666" points="477,-93 336,-93 336,-74 477,-74 477,-93"/>
<text text-anchor="middle" x="406.5" y="-81" font-family="Helvetica,sans-Serif" font-size="10.00">schemas.user.UserCreate</text>
</a>
</g>
</g>
<!-- Node36&#45;&gt;Node37 -->
<g id="edge47_Node000036_Node000037" class="edge">
<title>Node36&#45;&gt;Node37</title>
<g id="a_edge47_Node000036_Node000037"><a xlink:title=" ">
<path fill="none" stroke="#63b8ff" d="M270.68,-63.5C293.69,-66.92 318.85,-70.65 341.13,-73.95"/>
<polygon fill="#63b8ff" stroke="#63b8ff" points="271.03,-60.02 260.63,-62.01 270.01,-66.94 271.03,-60.02"/>
</a>
</g>
</g>
<!-- Node38 -->
<g id="Node000038" class="node">
<title>Node38</title>
<g id="a_Node000038"><a xlink:href="classschemas_1_1user_1_1UserInDBBase.html" target="_top" xlink:title="Schema base para representar um utilizador lido da base de dados.">
<polygon fill="white" stroke="#666666" points="484.5,-56 328.5,-56 328.5,-37 484.5,-37 484.5,-56"/>
<text text-anchor="middle" x="406.5" y="-44" font-family="Helvetica,sans-Serif" font-size="10.00">schemas.user.UserInDBBase</text>
</a>
</g>
</g>
<!-- Node36&#45;&gt;Node38 -->
<g id="edge48_Node000036_Node000038" class="edge">
<title>Node36&#45;&gt;Node38</title>
<g id="a_edge48_Node000036_Node000038"><a xlink:title=" ">
<path fill="none" stroke="#63b8ff" d="M272.1,-50.33C290.44,-49.8 310.07,-49.24 328.47,-48.71"/>
<polygon fill="#63b8ff" stroke="#63b8ff" points="271.95,-46.83 262.06,-50.62 272.15,-53.83 271.95,-46.83"/>
</a>
</g>
</g>
<!-- Node40 -->
<g id="Node000040" class="node">
<title>Node40</title>
<g id="a_Node000040"><a xlink:href="classschemas_1_1user_1_1UserUpdate.html" target="_top" xlink:title="Schema para validar os dados ao atualizar um utilizador existente.">
<polygon fill="white" stroke="#666666" points="478.5,-19 334.5,-19 334.5,0 478.5,0 478.5,-19"/>
<text text-anchor="middle" x="406.5" y="-7" font-family="Helvetica,sans-Serif" font-size="10.00">schemas.user.UserUpdate</text>
</a>
</g>
</g>
<!-- Node36&#45;&gt;Node40 -->
<g id="edge50_Node000036_Node000040" class="edge">
<title>Node36&#45;&gt;Node40</title>
<g id="a_edge50_Node000036_Node000040"><a xlink:title=" ">
<path fill="none" stroke="#63b8ff" d="M252.93,-40.89C286.24,-34.04 327.89,-25.47 359.25,-19.02"/>
<polygon fill="#63b8ff" stroke="#63b8ff" points="251.97,-37.51 242.88,-42.96 253.38,-44.37 251.97,-37.51"/>
</a>
</g>
</g>
<!-- Node39 -->
<g id="Node000039" class="node">
<title>Node39</title>
<g id="a_Node000039"><a xlink:href="classschemas_1_1user_1_1User.html" target="_top" xlink:title="Schema principal usado para retornar os dados de um utilizador na API.">
<polygon fill="white" stroke="#666666" points="638,-56 529,-56 529,-37 638,-37 638,-56"/>
<text text-anchor="middle" x="583.5" y="-44" font-family="Helvetica,sans-Serif" font-size="10.00">schemas.user.User</text>
</a>
</g>
</g>
<!-- Node38&#45;&gt;Node39 -->
<g id="edge49_Node000038_Node000039" class="edge">
<title>Node38&#45;&gt;Node39</title>
<g id="a_edge49_Node000038_Node000039"><a xlink:title=" ">
<path fill="none" stroke="#63b8ff" d="M494.71,-46.5C506.35,-46.5 517.99,-46.5 528.82,-46.5"/>
<polygon fill="#63b8ff" stroke="#63b8ff" points="494.51,-43 484.51,-46.5 494.51,-50 494.51,-43"/>
</a>
</g>
</g>
</g>
</svg>
