<?xml version="1.0" encoding="UTF-8" standalone="no"?>
<!DOCTYPE svg PUBLIC "-//W3C//DTD SVG 1.1//EN"
 "http://www.w3.org/Graphics/SVG/1.1/DTD/svg11.dtd">
<!-- Generated by graphviz version 2.43.0 (0)
 -->
<!-- Title: Graphical Class Hierarchy Pages: 1 -->
<svg width="475pt" height="292pt"
 viewBox="0.00 0.00 475.00 291.50" xmlns="http://www.w3.org/2000/svg" xmlns:xlink="http://www.w3.org/1999/xlink">
<g id="graph0" class="graph" transform="scale(1 1) rotate(0) translate(4 287.5)">
<title>Graphical Class Hierarchy</title>
<!-- Node0 -->
<g id="Node000000" class="node">
<title>Node0</title>
<g id="a_Node000000"><a xlink:title=" ">
<polygon fill="#e0e0e0" stroke="#999999" points="41,-168.5 0,-168.5 0,-149.5 41,-149.5 41,-168.5"/>
<text text-anchor="middle" x="20.5" y="-156.5" font-family="Helvetica,sans-Serif" font-size="10.00">Base</text>
</a>
</g>
</g>
<!-- Node1 -->
<g id="Node000001" class="node">
<title>Node1</title>
<g id="a_Node000001"><a xlink:href="classmodels_1_1exercicio_1_1Exercicio.html" target="_top" xlink:title="Modelo para a tabela &#39;exercicios&#39;.">
<polygon fill="white" stroke="#666666" points="238.5,-283.5 92.5,-283.5 92.5,-264.5 238.5,-264.5 238.5,-283.5"/>
<text text-anchor="middle" x="165.5" y="-271.5" font-family="Helvetica,sans-Serif" font-size="10.00">models.exercicio.Exercicio</text>
</a>
</g>
</g>
<!-- Node0&#45;&gt;Node1 -->
<g id="edge1_Node000000_Node000001" class="edge">
<title>Node0&#45;&gt;Node1</title>
<g id="a_edge1_Node000000_Node000001"><a xlink:title=" ">
<path fill="none" stroke="#63b8ff" d="M27.34,-178.3C35.05,-200.37 50.8,-235.89 77,-255 82.27,-258.85 88.17,-261.94 94.35,-264.43"/>
<polygon fill="#63b8ff" stroke="#63b8ff" points="30.63,-177.1 24.19,-168.68 23.98,-179.28 30.63,-177.1"/>
</a>
</g>
</g>
<!-- Node2 -->
<g id="Node000002" class="node">
<title>Node2</title>
<g id="a_Node000002"><a xlink:href="classmodels_1_1exercise__session_1_1ItemSessao.html" target="_top" xlink:title="Modelo para a tabela &#39;itens_sessao&#39;.">
<polygon fill="white" stroke="#666666" points="236,-246 95,-246 95,-216 236,-216 236,-246"/>
<text text-anchor="start" x="103" y="-234" font-family="Helvetica,sans-Serif" font-size="10.00">models.exercise_session.</text>
<text text-anchor="middle" x="165.5" y="-223" font-family="Helvetica,sans-Serif" font-size="10.00">ItemSessao</text>
</a>
</g>
</g>
<!-- Node0&#45;&gt;Node2 -->
<g id="edge2_Node000000_Node000002" class="edge">
<title>Node0&#45;&gt;Node2</title>
<g id="a_edge2_Node000000_Node000002"><a xlink:title=" ">
<path fill="none" stroke="#63b8ff" d="M37.07,-175.87C47.47,-186.21 61.96,-198.97 77,-207 83.39,-210.41 90.31,-213.37 97.36,-215.94"/>
<polygon fill="#63b8ff" stroke="#63b8ff" points="39.45,-173.29 29.97,-168.54 34.42,-178.16 39.45,-173.29"/>
</a>
</g>
</g>
<!-- Node3 -->
<g id="Node000003" class="node">
<title>Node3</title>
<g id="a_Node000003"><a xlink:href="classmodels_1_1exercise__session_1_1SessaoDeTreino.html" target="_top" xlink:title="Modelo para a tabela &#39;sessoes_de_treino&#39;.">
<polygon fill="white" stroke="#666666" points="236,-198 95,-198 95,-168 236,-168 236,-198"/>
<text text-anchor="start" x="103" y="-186" font-family="Helvetica,sans-Serif" font-size="10.00">models.exercise_session.</text>
<text text-anchor="middle" x="165.5" y="-175" font-family="Helvetica,sans-Serif" font-size="10.00">SessaoDeTreino</text>
</a>
</g>
</g>
<!-- Node0&#45;&gt;Node3 -->
<g id="edge3_Node000000_Node000003" class="edge">
<title>Node0&#45;&gt;Node3</title>
<g id="a_edge3_Node000000_Node000003"><a xlink:title=" ">
<path fill="none" stroke="#63b8ff" d="M51.09,-163.97C63.85,-166.11 79.37,-168.71 94.77,-171.3"/>
<polygon fill="#63b8ff" stroke="#63b8ff" points="51.53,-160.49 41.08,-162.29 50.37,-167.39 51.53,-160.49"/>
</a>
</g>
</g>
<!-- Node4 -->
<g id="Node000004" class="node">
<title>Node4</title>
<g id="a_Node000004"><a xlink:href="classmodels_1_1ia__interaction_1_1RegistroInteracaoIA.html" target="_top" xlink:title="Modelo para a tabela &#39;registro_interacao_ia&#39;.">
<polygon fill="white" stroke="#666666" points="248.5,-150 82.5,-150 82.5,-120 248.5,-120 248.5,-150"/>
<text text-anchor="start" x="90.5" y="-138" font-family="Helvetica,sans-Serif" font-size="10.00">models.ia_interaction.Registro</text>
<text text-anchor="middle" x="165.5" y="-127" font-family="Helvetica,sans-Serif" font-size="10.00">InteracaoIA</text>
</a>
</g>
</g>
<!-- Node0&#45;&gt;Node4 -->
<g id="edge4_Node000000_Node000004" class="edge">
<title>Node0&#45;&gt;Node4</title>
<g id="a_edge4_Node000000_Node000004"><a xlink:title=" ">
<path fill="none" stroke="#63b8ff" d="M51.23,-154.01C60.5,-152.45 71.21,-150.66 82.27,-148.8"/>
<polygon fill="#63b8ff" stroke="#63b8ff" points="50.37,-150.61 41.08,-155.71 51.53,-157.51 50.37,-150.61"/>
</a>
</g>
</g>
<!-- Node5 -->
<g id="Node000005" class="node">
<title>Node5</title>
<g id="a_Node000005"><a xlink:href="classmodels_1_1progress__record_1_1RegistroProgresso.html" target="_top" xlink:title="Modelo base para todos os tipos de registos de progresso.">
<polygon fill="white" stroke="#666666" points="254,-102 77,-102 77,-72 254,-72 254,-102"/>
<text text-anchor="start" x="85" y="-90" font-family="Helvetica,sans-Serif" font-size="10.00">models.progress_record.Registro</text>
<text text-anchor="middle" x="165.5" y="-79" font-family="Helvetica,sans-Serif" font-size="10.00">Progresso</text>
</a>
</g>
</g>
<!-- Node0&#45;&gt;Node5 -->
<g id="edge5_Node000000_Node000005" class="edge">
<title>Node0&#45;&gt;Node5</title>
<g id="a_edge5_Node000000_Node000005"><a xlink:title=" ">
<path fill="none" stroke="#63b8ff" d="M37.07,-142.13C47.47,-131.79 61.96,-119.03 77,-111 83.39,-107.59 90.31,-104.63 97.36,-102.06"/>
<polygon fill="#63b8ff" stroke="#63b8ff" points="34.42,-139.84 29.97,-149.46 39.45,-144.71 34.42,-139.84"/>
</a>
</g>
</g>
<!-- Node10 -->
<g id="Node000010" class="node">
<title>Node10</title>
<g id="a_Node000010"><a xlink:href="classmodels_1_1user_1_1User.html" target="_top" xlink:title="Modelo de dados para a tabela &#39;users&#39;, representando um utilizador no sistema.">
<polygon fill="white" stroke="#666666" points="216,-53.5 115,-53.5 115,-34.5 216,-34.5 216,-53.5"/>
<text text-anchor="middle" x="165.5" y="-41.5" font-family="Helvetica,sans-Serif" font-size="10.00">models.user.User</text>
</a>
</g>
</g>
<!-- Node0&#45;&gt;Node10 -->
<g id="edge10_Node000000_Node000010" class="edge">
<title>Node0&#45;&gt;Node10</title>
<g id="a_edge10_Node000000_Node000010"><a xlink:title=" ">
<path fill="none" stroke="#63b8ff" d="M27.34,-139.7C35.05,-117.63 50.8,-82.11 77,-63 87.93,-55.03 101.53,-50.28 114.73,-47.49"/>
<polygon fill="#63b8ff" stroke="#63b8ff" points="23.98,-138.72 24.19,-149.32 30.63,-140.9 23.98,-138.72"/>
</a>
</g>
</g>
<!-- Node6 -->
<g id="Node000006" class="node">
<title>Node6</title>
<g id="a_Node000006"><a xlink:href="classmodels_1_1progress__record_1_1BodyMeasureRecord.html" target="_top" xlink:title="Modelo para Registos de Medidas Corporais, herdando de RegistroProgresso.">
<polygon fill="white" stroke="#666666" points="459,-174 298,-174 298,-144 459,-144 459,-174"/>
<text text-anchor="start" x="306" y="-162" font-family="Helvetica,sans-Serif" font-size="10.00">models.progress_record.Body</text>
<text text-anchor="middle" x="378.5" y="-151" font-family="Helvetica,sans-Serif" font-size="10.00">MeasureRecord</text>
</a>
</g>
</g>
<!-- Node5&#45;&gt;Node6 -->
<g id="edge6_Node000005_Node000006" class="edge">
<title>Node5&#45;&gt;Node6</title>
<g id="a_edge6_Node000005_Node000006"><a xlink:title=" ">
<path fill="none" stroke="#63b8ff" d="M240.49,-105.46C245.12,-107.17 249.66,-109.02 254,-111 271.5,-118.98 272.5,-127.02 290,-135 297.31,-138.33 305.18,-141.29 313.1,-143.89"/>
<polygon fill="#63b8ff" stroke="#63b8ff" points="241.5,-102.1 230.9,-102.11 239.19,-108.71 241.5,-102.1"/>
</a>
</g>
</g>
<!-- Node7 -->
<g id="Node000007" class="node">
<title>Node7</title>
<g id="a_Node000007"><a xlink:href="classmodels_1_1progress__record_1_1CardioRecord.html" target="_top" xlink:title="Modelo para Registos de Exercício Cardiovascular, herdando de RegistroProgresso.">
<polygon fill="white" stroke="#666666" points="462.5,-126 294.5,-126 294.5,-96 462.5,-96 462.5,-126"/>
<text text-anchor="start" x="302.5" y="-114" font-family="Helvetica,sans-Serif" font-size="10.00">models.progress_record.Cardio</text>
<text text-anchor="middle" x="378.5" y="-103" font-family="Helvetica,sans-Serif" font-size="10.00">Record</text>
</a>
</g>
</g>
<!-- Node5&#45;&gt;Node7 -->
<g id="edge7_Node000005_Node000007" class="edge">
<title>Node5&#45;&gt;Node7</title>
<g id="a_edge7_Node000005_Node000007"><a xlink:title=" ">
<path fill="none" stroke="#63b8ff" d="M264.14,-98.11C274.18,-99.25 284.32,-100.4 294.18,-101.52"/>
<polygon fill="#63b8ff" stroke="#63b8ff" points="264.48,-94.62 254.15,-96.97 263.69,-101.58 264.48,-94.62"/>
</a>
</g>
</g>
<!-- Node8 -->
<g id="Node000008" class="node">
<title>Node8</title>
<g id="a_Node000008"><a xlink:href="classmodels_1_1progress__record_1_1RegistroImagemCorpo.html" target="_top" xlink:title="Modelo para Registos de Imagem Corporal, herdando de RegistroProgresso.">
<polygon fill="white" stroke="#666666" points="467,-78 290,-78 290,-48 467,-48 467,-78"/>
<text text-anchor="start" x="298" y="-66" font-family="Helvetica,sans-Serif" font-size="10.00">models.progress_record.Registro</text>
<text text-anchor="middle" x="378.5" y="-55" font-family="Helvetica,sans-Serif" font-size="10.00">ImagemCorpo</text>
</a>
</g>
</g>
<!-- Node5&#45;&gt;Node8 -->
<g id="edge8_Node000005_Node000008" class="edge">
<title>Node5&#45;&gt;Node8</title>
<g id="a_edge8_Node000005_Node000008"><a xlink:title=" ">
<path fill="none" stroke="#63b8ff" d="M264.14,-75.89C272.7,-74.92 281.32,-73.94 289.78,-72.98"/>
<polygon fill="#63b8ff" stroke="#63b8ff" points="263.69,-72.42 254.15,-77.03 264.48,-79.38 263.69,-72.42"/>
</a>
</g>
</g>
<!-- Node9 -->
<g id="Node000009" class="node">
<title>Node9</title>
<g id="a_Node000009"><a xlink:href="classmodels_1_1progress__record_1_1WeightRecord.html" target="_top" xlink:title="Modelo para Registos de Peso, herdando de RegistroProgresso.">
<polygon fill="white" stroke="#666666" points="463.5,-30 293.5,-30 293.5,0 463.5,0 463.5,-30"/>
<text text-anchor="start" x="301.5" y="-18" font-family="Helvetica,sans-Serif" font-size="10.00">models.progress_record.Weight</text>
<text text-anchor="middle" x="378.5" y="-7" font-family="Helvetica,sans-Serif" font-size="10.00">Record</text>
</a>
</g>
</g>
<!-- Node5&#45;&gt;Node9 -->
<g id="edge9_Node000005_Node000009" class="edge">
<title>Node5&#45;&gt;Node9</title>
<g id="a_edge9_Node000005_Node000009"><a xlink:title=" ">
<path fill="none" stroke="#63b8ff" d="M240.49,-68.54C245.12,-66.83 249.66,-64.98 254,-63 271.5,-55.02 272.5,-46.98 290,-39 297.31,-35.67 305.18,-32.71 313.1,-30.11"/>
<polygon fill="#63b8ff" stroke="#63b8ff" points="239.19,-65.29 230.9,-71.89 241.5,-71.9 239.19,-65.29"/>
</a>
</g>
</g>
</g>
</svg>
